<mxfile host="app.diagrams.net" agent="Mozilla/5.0 (Windows NT 10.0; Win64; x64) AppleWebKit/537.36 (KHTML, like Gecko) Chrome/140.0.0.0 Safari/537.36 Edg/140.0.0.0" version="28.2.3">
  <diagram name="PÃ¡gina-1" id="n_nFiGgCwcYckC8afRoP">
    <mxGraphModel dx="1042" dy="574" grid="1" gridSize="10" guides="1" tooltips="1" connect="1" arrows="1" fold="1" page="1" pageScale="1" pageWidth="827" pageHeight="1169" math="0" shadow="0">
      <root>
        <mxCell id="0" />
        <mxCell id="1" parent="0" />
        <mxCell id="jrJ8sMQovFL2cEqCVLPm-19" value="" style="rounded=0;whiteSpace=wrap;html=1;" vertex="1" parent="1">
          <mxGeometry x="20" y="50" width="790" height="320" as="geometry" />
        </mxCell>
        <mxCell id="jrJ8sMQovFL2cEqCVLPm-3" value="" style="rounded=1;whiteSpace=wrap;html=1;arcSize=9;fillColor=#f8cecc;strokeColor=#b85450;" vertex="1" parent="1">
          <mxGeometry x="130" y="120" width="160" height="220" as="geometry" />
        </mxCell>
        <mxCell id="jrJ8sMQovFL2cEqCVLPm-4" value="" style="rounded=1;whiteSpace=wrap;html=1;arcSize=9;" vertex="1" parent="1">
          <mxGeometry x="140" y="160" width="140" height="170" as="geometry" />
        </mxCell>
        <mxCell id="jrJ8sMQovFL2cEqCVLPm-1" value="" style="aspect=fixed;html=1;points=[];align=center;image;fontSize=12;image=img/lib/azure2/analytics/Azure_Databricks.svg;" vertex="1" parent="1">
          <mxGeometry x="130" y="56" width="35.29" height="40" as="geometry" />
        </mxCell>
        <mxCell id="jrJ8sMQovFL2cEqCVLPm-21" value="" style="rounded=0;whiteSpace=wrap;html=1;dashed=1;fillColor=none;" vertex="1" parent="1">
          <mxGeometry x="120" y="100" width="560" height="260" as="geometry" />
        </mxCell>
        <mxCell id="jrJ8sMQovFL2cEqCVLPm-2" value="" style="shape=cylinder3;whiteSpace=wrap;html=1;boundedLbl=1;backgroundOutline=1;size=15;fillColor=#f8cecc;strokeColor=#000000;" vertex="1" parent="1">
          <mxGeometry x="175" y="185" width="70" height="90" as="geometry" />
        </mxCell>
        <mxCell id="jrJ8sMQovFL2cEqCVLPm-5" value="&lt;b&gt;&lt;font style=&quot;font-size: 16px;&quot;&gt;BRONZE&lt;/font&gt;&lt;/b&gt;" style="text;html=1;align=center;verticalAlign=middle;whiteSpace=wrap;rounded=0;" vertex="1" parent="1">
          <mxGeometry x="180" y="130" width="60" height="30" as="geometry" />
        </mxCell>
        <mxCell id="jrJ8sMQovFL2cEqCVLPm-6" value="Armazenamento de dados brutos" style="text;html=1;align=center;verticalAlign=middle;whiteSpace=wrap;rounded=0;" vertex="1" parent="1">
          <mxGeometry x="180" y="290" width="60" height="30" as="geometry" />
        </mxCell>
        <mxCell id="jrJ8sMQovFL2cEqCVLPm-7" value="" style="rounded=1;whiteSpace=wrap;html=1;arcSize=9;fillColor=#f5f5f5;strokeColor=#666666;fontColor=#333333;" vertex="1" parent="1">
          <mxGeometry x="320" y="120" width="160" height="220" as="geometry" />
        </mxCell>
        <mxCell id="jrJ8sMQovFL2cEqCVLPm-8" value="" style="rounded=1;whiteSpace=wrap;html=1;arcSize=9;" vertex="1" parent="1">
          <mxGeometry x="330" y="160" width="140" height="170" as="geometry" />
        </mxCell>
        <mxCell id="jrJ8sMQovFL2cEqCVLPm-9" value="" style="shape=cylinder3;whiteSpace=wrap;html=1;boundedLbl=1;backgroundOutline=1;size=15;fillColor=#f5f5f5;strokeColor=#000000;fontColor=#333333;" vertex="1" parent="1">
          <mxGeometry x="365" y="185" width="70" height="90" as="geometry" />
        </mxCell>
        <mxCell id="jrJ8sMQovFL2cEqCVLPm-10" value="&lt;b&gt;&lt;font style=&quot;font-size: 16px;&quot;&gt;SILVER&lt;/font&gt;&lt;/b&gt;" style="text;html=1;align=center;verticalAlign=middle;whiteSpace=wrap;rounded=0;" vertex="1" parent="1">
          <mxGeometry x="370" y="130" width="60" height="30" as="geometry" />
        </mxCell>
        <mxCell id="jrJ8sMQovFL2cEqCVLPm-11" value="Dados transformados, limpos e refinados" style="text;html=1;align=center;verticalAlign=middle;whiteSpace=wrap;rounded=0;" vertex="1" parent="1">
          <mxGeometry x="335" y="290" width="130" height="30" as="geometry" />
        </mxCell>
        <mxCell id="jrJ8sMQovFL2cEqCVLPm-12" value="" style="rounded=1;whiteSpace=wrap;html=1;arcSize=9;fillColor=#ffe6cc;strokeColor=#d79b00;" vertex="1" parent="1">
          <mxGeometry x="510" y="120" width="160" height="220" as="geometry" />
        </mxCell>
        <mxCell id="jrJ8sMQovFL2cEqCVLPm-13" value="" style="rounded=1;whiteSpace=wrap;html=1;arcSize=9;" vertex="1" parent="1">
          <mxGeometry x="520" y="160" width="140" height="170" as="geometry" />
        </mxCell>
        <mxCell id="jrJ8sMQovFL2cEqCVLPm-14" value="" style="shape=cylinder3;whiteSpace=wrap;html=1;boundedLbl=1;backgroundOutline=1;size=15;fillColor=#ffe6cc;strokeColor=light-dark(#000000, #996500);" vertex="1" parent="1">
          <mxGeometry x="555" y="185" width="70" height="90" as="geometry" />
        </mxCell>
        <mxCell id="jrJ8sMQovFL2cEqCVLPm-15" value="&lt;b&gt;&lt;font style=&quot;font-size: 16px;&quot;&gt;GOLD&lt;/font&gt;&lt;/b&gt;" style="text;html=1;align=center;verticalAlign=middle;whiteSpace=wrap;rounded=0;" vertex="1" parent="1">
          <mxGeometry x="560" y="130" width="60" height="30" as="geometry" />
        </mxCell>
        <mxCell id="jrJ8sMQovFL2cEqCVLPm-16" value="Dados unificados e prontos para consumo" style="text;html=1;align=center;verticalAlign=middle;whiteSpace=wrap;rounded=0;" vertex="1" parent="1">
          <mxGeometry x="520" y="290" width="140" height="30" as="geometry" />
        </mxCell>
        <mxCell id="jrJ8sMQovFL2cEqCVLPm-17" value="" style="endArrow=classic;html=1;rounded=0;exitX=1;exitY=0.5;exitDx=0;exitDy=0;entryX=0;entryY=0.5;entryDx=0;entryDy=0;strokeWidth=3;" edge="1" parent="1" source="jrJ8sMQovFL2cEqCVLPm-3" target="jrJ8sMQovFL2cEqCVLPm-7">
          <mxGeometry width="50" height="50" relative="1" as="geometry">
            <mxPoint x="440" y="340" as="sourcePoint" />
            <mxPoint x="490" y="290" as="targetPoint" />
          </mxGeometry>
        </mxCell>
        <mxCell id="jrJ8sMQovFL2cEqCVLPm-18" value="" style="endArrow=classic;html=1;rounded=0;entryX=0;entryY=0.5;entryDx=0;entryDy=0;strokeWidth=3;" edge="1" parent="1" target="jrJ8sMQovFL2cEqCVLPm-12">
          <mxGeometry width="50" height="50" relative="1" as="geometry">
            <mxPoint x="480" y="230" as="sourcePoint" />
            <mxPoint x="340" y="250" as="targetPoint" />
            <Array as="points">
              <mxPoint x="500" y="230" />
            </Array>
          </mxGeometry>
        </mxCell>
        <mxCell id="jrJ8sMQovFL2cEqCVLPm-20" value="&lt;b&gt;Azure&lt;/b&gt;&lt;div&gt;&lt;b&gt;Databricks&lt;/b&gt;&lt;/div&gt;" style="text;html=1;align=left;verticalAlign=middle;whiteSpace=wrap;rounded=0;" vertex="1" parent="1">
          <mxGeometry x="180" y="61" width="60" height="30" as="geometry" />
        </mxCell>
        <mxCell id="jrJ8sMQovFL2cEqCVLPm-29" value="" style="rounded=0;whiteSpace=wrap;html=1;fillColor=none;dashed=1;" vertex="1" parent="1">
          <mxGeometry x="27.84" y="135" width="72.16" height="225" as="geometry" />
        </mxCell>
        <mxCell id="jrJ8sMQovFL2cEqCVLPm-26" value="" style="shape=image;verticalLabelPosition=bottom;labelBackgroundColor=default;verticalAlign=top;aspect=fixed;imageAspect=0;image=data:image/png,iVBORw0KGgoAAAANSUhEUgAAAkAAAAJMCAYAAAASWBlNAAAAAXNSR0IArs4c6QAAAARnQU1BAACxjwv8YQUAAAAJcEhZcwAADsMAAA7DAcdvqGQAAABmZVhJZklJKgAIAAAAAQBphwQAAQAAABoAAAAAAAAAAwAAkAcABAAAADAyMzABoAMAAQAAAAEAAAAFoAQAAQAAAEQAAAAAAAAAAgABAAIABAAAAFI5OAACAAcABAAAADAxMDAAAAAAIvvHMbnUA7gAAGXXSURBVHhe7d2Hm1T13ffx59+4U+5oEtNM1MQkJppiNGpMrImxo4goIiqKKCpioYk0FQRFVAQRkaLA9t7LbN/ZnW2zBdDn7/g+1+eHm4ecAdmdOWf3nDPv73W9ruS+o3t2ys75zK98f//n/1AURVEURVEURVEURVEURVEURVEURVEURVEURVEURVEURVEURVEURVEURVEURVEURVEURVEURVEURVEURVEURVEURVEURVEURVEURVEURVEURVEURVEURVEURVEURVEURVEURVEURVEURVEURVEURVEURVEURVEURVEURVEURVEURVEURVEURVEURVEURVEURVEURVEURVEURVEURVEUFYU6cfJLE+//n6IoasZq/ORXNnryK0uf+NJGjn9pwxNf2rD+EwB81j963Fp6B620qdMqmrusqavf+oZHCUIURQVfLvCc+MrSx786FXi+NjQBAMHqS09YY3fKjtUm7GhNqxXWtVl5c6c1dCQtNTJGEKIoyv8aU+g58RVhB8CsmQxAR2sS9kVVy38oENW09VjfUNqOMzVGUZQfpeCjkR7vBxEAzLSzBSA5Ut1iNQmFIKbEKIrKoRR8vB8+ADCbvikATapr67Wh0QlCEEVR06uJk/+XER8AoTSVAFRQm3BrgpgKoyhqyjV2kukuAOE1lQAkxQ3t1tqbIgBRFHXu0s4uFjgDCLOpBqCj1a1W2tjBeiCKor65FH68HzQAEDZTDUCTIagm0WuD6XFCEEVRmUX4ARAV0wlAcqS61Vp7Bmx04gQhiKKo/1+EHwBRMt0AJEV1bdaRHCIAURR1qrTNXcdWeD9gACCssglAGgXSsRndqWFCEEXle+k4C3Z7AYiabAKQHKtJuCaJ9AeiqDwvdnsBiKJsA5Do3LDGzn4bP36SEERR+Vis+wEQVbkEICmobbOu1IhNnKBJIkXlXXk/UAAgKnINQFoPpCaJ/fQHoqj8KkZ/AERZrgFoMgTp5PiBkTFCEEXlQ018+X/p9Awg0vwIQKLzwpq7+i09fpwQRFFxL053BxB1fgUg0VEZ7clBAhBFxb3SBCAAEednAJLy5i7rH2YqjKJiWzrlnekvAFHndwA6WnOqSSJHZVBUTIvFzwDiwO8AJFoP1NDZZ6MTrAeiqNhVmtEfADEQRAASNUns7BuiSSJFxakmOPYCQEwEFYCkoqXbegfTBCCKikux/gdAXAQZgNQfqK49aYOcF0ZR8Sit/+HUdwBxEGQAErceqCNpx09yVAZFRb5GjrMAGkA8BB2AjlS1uKMyWntTBCCKinoRgADERdABSI5Wt7omiX2cF0ZR0S7W/wCIi5kIQKIQVJPotcH0OCGIoqJaBCAAcTFTAUi0KLqlZ8DS4zRJpKhIFgEIQFzMZAAS9QfivDCKimgRgADExUwHoCPVLe6ojO6BYUIQRUWtCEAA4mKmA5Acq0lYTaLHhugPRFHRKgIQgLiYjQAkmgpr7OznqAyKilIRgADExWwFICmobbOu1IhNnKBJIkVFoghAAOJiNgOQdoUV17db3zD9gSgqEkUAAhAXsxmARCGopq3HUiNjhCCKCnsRgADExWwHINF5Yc1d/ZYeP04IoqgwFwEIQFyEIQCJjsqgPxBFhbwIQADiIiwBSMqbu6x/mKkwigptEYAAxEWYAtDRmlYrb+609ARTYRQVyiIAAYiLMAUgOVabsIbOpI0SgigqfEUAAhAXYQtAoiaJnX1DNEmkqLAVAQhAXIQxAElFS7f1DqYJQBQVpiIAAYiLsAYg9Qeqa09yXhhFhakIQADiIqwBSNQfqKEjacdPclQGRYWiCEAA4iLMAUiKG9qttTdFAKKoMBQBCEBchD0AHa1udU0S+4Y4L4yiZr0IQADiIuwBSBSCahK9NpgeJwRR1GwWAQhAXEQhAIkWRbf2DNjoxAlCEEXNVhGAAMRFVAKQqD8Q54VR1CwWAQhAXEQpAB2pbrGK5i7rHhgmBFHUbBQBCEBcRCkAybGahNUkeugPRFGzUQQgAHERtQAkmgpr7OznqAyKmukiAAGIiygGICmobbOu1IhNnKBJIkXNWBGAAMRFVAOQdoUV17db3zD9gShqxooABCAuohqARCGopq3HUiNjhCCKmokiAAGIiygHINF5Yc1d/ZYeP04IoqigiwAEIC6iHoBER2XQH4iiZqAIQADiIg4BSMqbu6x/mKkwigq0CEAA4iIuAehoTauVN3daeoKpMIoKrAhAAOIiLgFIjtUmrKEzaaOEIIoKpghAAOIiTgFI1CSxs2+IJokUFUQRgADERdwCkFS0dFvvYJoARFF+FwEIQFzEMQCpP1Bde5LzwijK7yIAAYiLOAYgUX+gho6kHT/JURkU5VsRgADERVwD0JGqFitp6LBEL/2BKMq3IgABiIu4BiA5Wt1qpY2dnBdGUX4VAQhAXMQ5AIlCUE1brw2OjhOCKCrXIgABiIu4ByDRoujWngEbnThBCKKoXIoABCAu8iEAifoDcV4YReVYBCAAcZEvAehIdYtVNHdZd2qEEERR2RYBCEBc5EsAkmM1CatJ9NIfiKKyLQIQgLjIpwAkmgpr7OrnqAyKyqYIQADiIt8CkBTUtllXasQmTtAkkaKmVQQgAHGRjwFIu8KK69vpD0RR0y0CEIC4yMcAJApBWg80MEJ/IIqachGAAMRFvgYg0VRYc1fK0uP0B6KoKRUBCEBc5HMAktLGDvoDUdRUiwAEIC7yPQBJeXOX9Q+PEYIo6lxFAAIQFwSgFjta02rlzZ2WnjhOCKKobyoCEIC4IACdoiaJjZ39nBdGUd9UBCAAcUEAOkVHZRTWtVtn/7CNn6BJIkWdsQhAAOKCAPTfKlq6rXcwTQCiqDMVAQhAXBCA/pv6A9W1JzkvjKLOVAQgAHFBAMpUUJuwho6kHT/JURkU9V9FAAIQFwSgMytp6LBEL/2BKOq/igAEIC4IQGd2tLrVShs7OS+Mok4vAhCAuCAAnZ1CUE1brw2Ocl4YRbkiAAGICwLQN9Oi6NaeAfoDUZSKAAQgLghA51ZY18Z5YRSlIgABiAsC0LmpSWJFc5d1p0YIQVR+FwEIQFwQgKZGR2XUJHrpD0TldxGAAMQFAWjqNBXW2NVv48c5KoPK0yIAAYgLAtD0FNS2WVdqxCZO0CSRysMiAAGICwLQ9GhXWHF9O/2BqPwsAhCAuCAATZ9CkNYDDYzQH4jKsyIAAYgLAlB2NBXW3JWy9Dj9gag8KgIQgLggAGWvtLGD/kBUfhUBCEBcKAA1EYCyVt7UZalhpsKoPCkCEIC46Esft6aeAQJQlo7WtFpFc6elJ44Tgqj4FwEIQFz0p49bS8+ga/TnvbljavTcNXb2c14YFf8iAAGIi/7R45ZIDhGAcqCjMgrr2q2zf9jGT9AkkYpxEYAAxEVq7IS1p9J2rJYAlKuKlm7rHUwTgKj4FgEIQFwMjp+0nqFxt63be0PH9Kg/UF17kvPCqPgWAQhAnGghdGF9u31RnXlTx/QoSDZ09tnxLzkqg4phEYAAxEn/6Akrb+lyO5q8N3RMj0aBSho6LNFLfyAqhkUAAhAnWgdU39HnTjv33tAxfUerW620sZPzwqj4FQEIQJwMjJ+0tr5hN3LhvZkjOwpBNW29NjhKk0QqRkUAAhAng1+vAypv7s64kSN7mg5r7RmgPxAVnyIAAYgbhaDa9qQVsB3eV5pW5LwwKjZFAAIQR4m+YStr6sq4iSN7apJY0dxl3akRQhAV/SIAAYij5MiE1Xb0uakb740c2VOX7ZpEL/2BqOgXAQhAHGkarLVv2IpZDO07TYXpvLDx4xyVQUW4CEAA4qp3eNzqO/vd1I33Jo7cqEmipsKOn6BJIhXRIgABiCsdjdGRSrtRIEKQvzS1WFzfTn8gKrpFAAIQZ9oS39IzyI6wACgE1bb12sAI/YGoCBYBCECcaRRIC6K1cJcQ5D+tB2ruTll6nP5AVMSKABScwYmT1j9+3HrGxqxzNI081z02an3jEzYwcTLjvYJgKQR1DaStsqXb7WLy3sSRm9LGDvoDUdErApC/FHoUeNpHh61xpN/KhjrtUKrePumrtr3JKuSpT/qq7LP+WisaTFjdSNISo0MuEKXGT2S8hxCcRHLI9QZia7z/ypu6LMVUGBWlIgD5R9/sO0ZHbHvPMZvfuNmuqnjGLil5xC4uWWAXlTyMPHdxycN2SckCu7x8sd1Rt9pe69hvtcO9hKAZNDB2wlp7h9zhnt4bOHJztCZhFS3dNjpxnBBERaMIQP5Q8NnXV23zGjb+J/j8sPB++17BPcB/+X7hHLuweL79ofwpu6N2jb3Z9YUbLfS+pxAMLYpOJIfdiAUjQf7SGiv1B+K8MCoSRQDKncLPzp5iu6fuNftZ8YN2XsG9GTc94EwuKJxr11e9YK93fGZVQ90Z7y0Eoz993J0YrxGLYyyM9o1aDRTWtVtn/7CNn6BJIhXyIgDlZmD8pFvfofDzg8L7Mm5wwFRcW7nMNnUesrbR4Yz3GIKhv932/hGrTvRaUX07o0E+qmjpst7BNAGICncRgLKnNT9a7PxAwwY38uO9qQHTcXvtatvbV5XxPkOwksMT1tDZ70LQUUKQbxo6+tgaT4W7CEDZ026vt7uP2lUVS5n2Qs60WP7x5rdtYIJF0TNJW+RTY8etcyDtRoMIQf4oaWBrPBXyIgBlT6M/8+o3uhuX92YGTNf3C++zW2tesdLBDtc/yvt+Q7BSYyesZ3jcEn3DVtOWdMc8HDnDjR1Tc7Sm1eraeglAVHiLAJQdTX+pn8uV5U+z2wu++UvFUnu3p9B6x8Yz3nOYGQNjJ617cMxaewetrqPPylu6T02P1TAyNF0VzV02PDZBCKLCWQSg7Kijb9FAm+vr4r2JAdn6fdkT9nLbbusaG814z2FmaWpMW+bbU2lr6Eq56bHy5i4raey04voOdwSETkRXZ2lRQMJ/0/OVHOKwVCqkRQDKTvfYmB3oq2f6C776Tekie7p1hzs6w/uew+xygWhkwp0u39IzZPWd/VbdlrSq1l6rbOmx8pYueNR1JDktngpvEYCyoymKL1JNBCD46rLSx+y51vcJQCGlECSaJtOaIWcUZzM4fsImTn5FAKLCWQSg7Oj4gsqhLvt16SJ2gME3fyh/0tZ17HfnhHnfc0DUjBwn/FAhLgJQdnToaXN6wG6sftF+UjQv40YGZOPayufs0/4aS45PZLzngKghAFGhLgJQ9jRN8ULrB3ZZ2eMZNzJgun5c9IDNqV9nLekBegEhFghAVKiLAJQ99WopHGixm6tfcgdcem9owFRpGlVb4Ne078t4nwFRRQCiQl0EoNwoBL3ctsf+WP5Uxk0NmKofF821J5q3WfVwT8Z7DIgqAhAV6iIA5U6LobVz57dlj2Xc2IBvcp47Ef5+e6hxs+3vr2XtD2KFAESFughAuRsYP2EFA622ou0ju67yOftR4Vx2huGcLiica5eXLbZHm7a4hc/toyMZ7y0gyghAVKiLAOQP7QqrH+mzzZ2H7d661+yaymX2u7LHXZ+gC4vnu9Pikd8uLH7QLip+2DU7vLLiabu9dpW9mNhl5UOd1jvO0ReIHwIQFeoiAPlLZ4Ql0kP2UbLclid22byGTXZ77Wr7V+2r9q8a5LPbalfaffXrbUnLu/Z291EXfLzvHyBOCEBUqIsA5D+FoOTYuHWOpd2J8YnRIReKgLbRYesYTVvP2JilOPEdMUcAokJdBCAAQBAIQFSoiwAEAAgCAYgKdRGAAABBIABRoS4CEAAgCAQgKtRFAAIABIEARIW6CEAAgCAQgKhQFwEIABAEAhAV6iIAAQCCQACiQl0EIABAEAhAVKiLAAQACAIBiAp1EYAAAEEgAFGhLgIQACAIBCAq1EUAAgAEgQBEhboIQACAIBCAqFAXAQgAEAQCEBXqIgABAIJAAKJCXQQgAEAQCEBUqIsABAAIAgGICnURgAAAQSAAUaEuAhAAIAgEICrURQACAASBAESFughAAIAgEICoUBcBCAAQBAIQFeoiAAEAgkAAokJdBCAAQBAIQFSoiwAEAAgCAYgKdRGAAABBIABRoS4CEAAgCAQgKtRFAAIABIEARIW6CEAAgCAQgKhQFwEIABAEAhAV6iIAAQCCQACiQl0EIABAEAhAVKiLAAQACAIBiAp1EYAAAEEgAFGhLgIQACAIBCAq1EUAAgAEgQBEhboIQMFJjZ+w3rFx6xxNAwihnrEx93fq/duFPwhAVKiLAOSvgYmT1j02Zm2jw1Y93GNHBprtk2SV7QUQKp/0VdvhVINVDXdba3rQusdGCUM+IwBRoS4CkH8Gxk+4D9KNnQftnrrX7I/lT9nFJQvsopKHAYSQ/j5/V/a43Vaz0ta077Oa4V5CkI8IQFSoiwDkj7b0kH3UW25z6tbZn8uX2C+KH7IfFN5n3yu4B0CInV8wxy4snm9XlD9pd9Sutq1dR60pncr4G8f0EYCoUBcBKHea7nqnp8B9eP646AE7r+DejA9ZAOF3QdFc+0fVctvUeciNBnn/1jE9BCAq1EUAyo2mvXYnK+yOutX2/cI5GR+oAKLn71XLbWvXEbdQ2vs3j6kjAFGhLgJQ9rTgOZEetPvqX7efFD2Q8SEKIJo0ijun/nU7lGrI+LvH1BGAqFAXASh72kL7ZtfndmXF00x7ATHzm9JF9kzLzoy/e0wdAYgKdRGAsqe1P/fVr3e7SbwfngCi7YeF99vttautYaTPTXV7//5xbgQgKtRFAMrOwMQJqxtJ2p/Kl7DbC4ipayufs319NZYcn8j4DMC5EYCoUBcBKDv6QCwaSNglJQsyPjQBxIO+4GzuPOymu72fATg3AhAV6iIAZUddYw/01blGat4PTQDxcHn5YlvZvte6xkYzPgNwbgQgKtRFAMqOzvg6kmoiAAEx9ofyJ+31js/cFx7vZwDOjQBEhboIQNlRu/yqoW63U4QdYEA8XVXxjL3XU+S+8Hg/A3BuBCAq1EUAys7gxElrSQ/YzTUv2U+L5mV8cAKINn2xual6hZUOdVj/+PGMzwCcGwGICnURgLLXNZa2FW0f2e/Knsj48AQQbTrP75HGN92GB33h8f7949wIQFSoiwCUPX0r1LfDf9a8wlZ4IEbOL7jXbqxeYdu7j2X83WPqCEBUqIsAlBuFoNXt++zKiqUZH6IAoknNTZcnPrTW9GDG3zymjgBEhboIQLmrGe6xFYmP7IryJzM+SAFEh9b9/Lxovi1t2WEFA61us4P37x1TRwCiQl0EoNxpfUDxYJutbNtrN1S/6BZFawjd++EKILz0d3tN5TJb1vK+HRtoofmhDwhAVKiLAOSPwYkvrWkkZdu6j9kD9Rvt71UvuBGhS0sXul5BFxU/DCBkflW60H5f9oRdW7nM7qt/3dZ3HHB/x+z68gcBiAp1EYD8pdEgdY090F9razv22ePNb9sDDRvt/rr1AEJkbv0GW9S01V5t22N7k5XWnE5l/D0jNwQgKtRFAPKfQlDf+ITrHtsxOuJOjQcQPvr71BcWbXXXAcfev2XkhgBEhboIQACAIBCAqFAXAQgAEAQCEBXqIgABAIJAAKJCXQQgAEAQCEBUqIsABAAIAgGICnURgAAAQSAAUaEuAhAAIAgEICrURQACAASBAESFughAAIAgEICoUBcBCAAQBAIQFeoiAAEAgkAAokJdBCAAQBAIQFSoiwAEAAgCAYgKdRGAAABBIABRoS4CEAAgCAQgKtRFAAIABIEARIW6CEAAgCAQgKhQFwEIABAEAhAV6iIAAQCCQACiQl0EIABAEAhAVKiLAAQACAIBiAp1EYAAAEEgAFGhLgIQACAIBCAq1EUAAgAEgQBEhboIQACAIBCAqFAXAQgAEAQCEBXqIgABAIJAAKJCXQQgAEAQCEBUqIsABAAIAgGICnURgAAAQSAAUaEuAhAAIAgEICrURQACAASBAESFughAAIAgEICoUBcBCAAQBAIQFeoiAAEAgkAAokJdBCAAQBAIQFSoiwAEAAgCAYgKdRGAgtM3PmFdY2lrGx22xOgQgJDpHE27v9PBiZMZf7/IHQGICnURgPw1MH7CusZGrTU9aKWD7bavr9re7y22Hb2F9i6A0Hivt8g+TlZa8WCbNY70uy8r/ePHM/6mkT0CEBXqIgD5Rx+e9SNJW9X+if2z5lW7rOxxu6jkYftF8UMAQkh/n5eWLrQbql+0FxO7rHSogxDkIwIQFeoiAPmjJT1g7/UU2521a+yK8iftZ8UP2vmFc+x7BfcACLHzCu61nxTNs9+VPWH/qnnVNnYetPqRPhs8w985pocARIW6CEC503TX1q4jdmvNK3ZB4f123hk+ZAGE3w8L77drK5+zde37rWqoO+NvHdNDAKJCXQSg3KTGT9gHvaXum6O+SXo/UAFEz7WVy2xz52HrGB3J+JvH1BGAqFAXASh7WvDcnB6wu+tesx8Vzs34EAUQXXfVrbX9/bUZf/eYOgIQFeoiAGWve2zMNnYesD+VL2H0B4iZX5UutKda3mGLfA4IQFSoiwCUPfX3uafuNbebxPvhCSDaflB4n/27dqXVDifdVLf37x/nRgCiQl0EoOwMTJyw2uFe+2P5U+6D0vvhCSD6rqlcZnv7qiw5PpHxGYBzIwBRoS4CUHb0gVgw0GqXlCzI+NAEEA/6gqNt8Zru9n4G4NwIQFSoiwCUne6xUTvQX2cXE4CA2Lq8bLGtbN/rurt7PwNwbgQgKtRFAMpO79i4HR1oZgQIiLE/lD9l6zsPMAKUJQIQFeoiAGUnNXHCqod73HEX57MDDIilqyuesfd7S90XHu9nAM6NAESFughA2WtJD9o/a15xx154PzgBRJu+2Nxc85KVD3VaivPBskIAokJdBKDsaV2A1gdcXr4448MTQLRdXPKwLWraan3jE/QCyhIBiAp1EYCyp94gVcPdrlfID9kKD8SGRn9uqXnZ3uspyvi7x9QRgKhQFwEoNwpB6zs/s79WPpvxIQogmn5V8oi90rbH2keHM/7mMXUEICrURQDKXd1w0la177UrK57O+CAFEB0a+bm45BF7vvUDKxlscw1PvX/vmDoCEBXqIgDlTusDtFByXcd+tyj658Xz7fzCORkfrgDCSWf5XVg83/5etdxeTHxkxYNtlmTnV84IQNQZa+zkhA0fH7WB8WHrHxuy5OiA9c6w5Ogwi/t81JoetA96S2xB45t2Y/UK+3PFEvtt2WPuUMVflQAIm9+UPuZ6/Vxf9YI92LDZ3ur6wlrTQ5z95RMCEPV/Jk4et/TxMRscH3FBp224x0p76u1AosT2NB6xnXUH7e3qT+ztqr0zZnvNp7an8ZglR/mW4ycFyuTYhB0baLE3uz63Za07bVHzVnu0cYstBBAaixq32tKW92x9xwE7lGqw9tGRjL9n5IYAlOfVO5qyz1qKbGXhdrv/4xfsL1vn2cUb/m0Xvn6r/XTdLfbTdTfbT1672X782k0z6qL1t9lN7z1hrYMDGW9a5EYhqH/8uPWMjVnnaNo6RkfchyuA8NDfpf4+1eVZW90HGA33HQEoD6ttqMc+avjclh7eYLd9sMSuenu+/WbzXS7wfG/V3+xbr/zV/ueVq2fVeauvt6u3PWwtg6mMNy0AALkiAOVJHf/qpNX2tdq7NfvtqUOv243vPW4Xb7jNvvPqNRnhIwwUgK56mwAEAAgGASjmNfHlCescSdrBRIkt/Xyj/WnLXDt/9fUZgSNszlt1vV1NAAIABIQAFOM6/uUJa0i12brSnfa7N++17668NiNohNWpEaCHCEAAgEAQgGJcn7eV2by9K9wi5iiFHyEAAQCCRACKYQ1NpG1T+Uf2z/efdLu5wrCoeboIQACAIBGAYlba4bWpfJddve0h+8Gaf2QEi6hwAWgbAQgAEAwCUIyqfbjX3qj4yH7/5pzITXl5/WcEaIAABADwHwEoJjVyYszeqtxjf9xyf0aYiCLtAmMKDAAQFAJQTOrd2v32jx2LIj/yM+nUNngCEAAgGASgGFR1stnu2b3MLlh7Y0aQiCpGgAAAQSIARbx0eKmOtPjlxtszQkSU/ScAsQYIABAAAlCES9vd97cU2a833Rmbqa9JBCAAQJAIQBEuTX3d//HySBxtMV3sAgMABIkAFNEankjbe7Wf2QVrbrBvvRq9RofnohGgvxCAAAABIQBFtEq6am3Bvlcj2eV5KlwA2koAAgAEgwAUwTrx5UnbWrnXNTz0Boe4IAABAIJEAIpgdQ4n7amDr8du4fPpCEAAgCARgCJYe5uO2i07F2eEhjghAAEAgkQAimC9eHSLXbrpzozQECcEIABAkAhAEauR46M2Z/fzLiB4Q0OcEIAAAEEiAEWsqpJNdv27CzMCQ9wQgAAAQSIARajGTk7Yjtr9sTnx/ZsQgAAAQSIARaiGj4/ass83xe7crzMhAAEAgkQAilANjo/YnD3P20/X3ZIRGOKGAAQACBIBKELVPzZk125fEMuzv7wIQACAIBGAIlTJ0QG77I277TuvXpMRGOKGAAQACBIBKELVNdJnF2+4zb51hsAQNwQgAECQCEARqrahHvvF+n9lhIU4IgABAIJEAIpQaQToovW3ZYSFOCIAAQCCRACKUPWmU/brTXfat1kDBABATghAESotglYTxP9deV1GYIgbAhAAIEgEoAhVz2jKrn7nYTuPbfAAAOSEABShSqR77Mr3H7bz1v49IzDEDQEIABAkAlCEqmW023656z779mtMgQEAkAsCUIRKAeiSfXPtW68TgAAAyAUBKELVMt5jv/xivn17E2uAAADIBQEoQuUCUPEj9p0tN9i3Vv41IzTECQEIABAkAlCEqmWix35V+oh9572b7VuvXZsRGuKEAAQACBIBKEI1GYC++8lt9u034r0TjAAEAAgSAShCNRmAvvfFXfadd2+y/4nxNBgBCAAQJAJQhOo/AajgHvvu7n/atzb8LSM4xAUBCAAQJAJQhOr0APS/B+44NQr0amZ4iAMCEAAgSASgCNXpAciFoE9uO7UYOoYhiAAEAAgSAShClRGADt9p33n/FvufVfFbC0QAAgAEiQAUofIGoO8dvdtNhbkdYauuyQgRUUYAAgAEiQAUocoIQF+HoO/u+Zd9a+P1sdoVRgACAASJABShOmMA+joEfWfnzafOCIvJeiACEAAgSASgCNVZA5DWA31+p31nx832P2vi0SGaAAQACBIBKEL1TQHoe8fusf89FJ9F0QQgAECQCEARqm8MQC4E3W3/e/AOF4K+tTba2+MJQACAIBGAIlTnDECTIejQnfbdnbfYt9UpOqKjQQQgAECQCEARqikFoElf3GXf/fBWt0X+W2uit0WeAAQACBIBKEI1rQCkhdHH7rbv7vu3ffvtG+x/FIIitE2eAAQACBIBKEI13QDkaErs8J323Y9vs29v/rt9KyINE08FoPkEIABAIAhAEaqsApALQaemxP53/+2npsW2/MP+R4ukzxA8wsIFoLcZAQIABIMAFKHKOgCd7vO73LTYdz641b697cZTo0LrrgvdYun/BKBBAhAAwH8EoAiVLwFo0mlTY+oi/Z23bzgVhjb+zb61/joXinTSvLbTn823115r33vt7/aD12+wH71+k/1k/S2+uWjTv+36nY9ZUV+L1Y/0fS0JAIAvGtN9lhjvt87jKevyQffxAes5PmjJE0OWOjliI1+O2cRXJwhZfpSvAchLjRS1c2z/v+27H//TTZV9572b7Ts7brJvv5vpO+/eZP/77i3285132WW7HrA/715g1+xZZNd+vMiu88H1e5+w2w49Zy8nPrLV7XttFQAAfunYa2s699q6rk9sffc+X2zs/tTe6jlo7/R+Ybv6i+zwULXVjLZbz4kBF4iGvxyzsa+OE4iyqUADkGit0LG73dlizpFJd53VeUfuse8fvdd+4MzxzQ+PzrELjt1nPyt60H5WDACAvy703Xz7efF8+0XxQ3ZRyUN2ccnD7p79+7LH7Zbal+zpxHbbkTziQpH3/k6dowIPQAAAwFfnF9xrPy2eZ78ue9T+Uvm03Vr7ki1s3mxv9hyw2tEOG/1ygkB0riIAAQAQbecXzHEjUNdUPWuPNG+2Td37rXC40Ua+HCcIna0IQAAAxMd5Bffa78oet4ebNrl1Q41jXTb6FSNCGUUAAgAgfs4vvNcuKnnYnmrdZqXpZkszGvTfRQACACCetFboJ0Xz7O/Vz9vW3kNu55g3B+RtEYAAAIi3nxQ9YNdUPWMvtX9gHRN9hCAVAQgAgPj7QeF99qeKJ+3F9p1WP9Zp4/neP4gABABAfji/cI5dUrLAVrR/YLWj7fndVZoABABA/jiv4B67oOh+W9W521rGewlA3icIAADEk0LQr0sftbWdH9vAyXR+hiACEAAA+ef7hXP+szvMmw3yoghAAADkp58Vz7O761dbyUhT/oUgAhAAAPlLU2FLWrdZ74nB/ApBBCAAAPKXmiX+unShfT5Uk19nhxGAAADIbz8uesAebFpvdWMdBCAAAJAfNAr0y5JH7KP+ovwZBSIAAQAAWZrYbjWj7QQgAACQP/5Wtcw+7C8kAAEAgPzxo6K59mrHLhv7Mg/OCSMAAQAAOa/gXnu4aaNVpRMEIAAAkD9urlmRH9NgBCAAADDp8vIn3DSYNy/ErghAAABg0k+L5tnC5s0EIAAAkF/urFtl6bj3AyIAAQCA091Su8Kax7sJQAAAIH/8vfp5KxputOP/92R8QxABCAAAnO66qmX22UClTXx1ggAEAADyw18rn7E9qWIbJwABAIB8cVXl0/Z+3zEb/yrGHaEJQAAA4HQKQO/1HbMxAhAAAMgXBCAAAJB3CEAAACDvEIAAAEDeIQABAIC8QwACAAB5hwAEAADyDgEIAADkHQIQAADIOwQgAACQdwhAAAAg7xCAAABA3iEAAQCAvEMAAgAAeYcABAAA8g4BCAAA5B0CEAAAyDsEIGCaziu4135QeJ/9tOhB+0XxQ3ZxyQL7Zckjdmnpo/ab0se+wSL3z+if1b/306J59sPC+9zP814DZ3dewT32/cI59pOieXZRycP2q5KF9utzPve5WuSuMfna/ahwrp1fMCfjdwszvWcvLJ7vni89nl+VLnT/t96D3n8WmX5YeL/93PP8/az4Qfe8ev9ZRAMBCDiLyRvtj4rm2s+KHrSfu7DzsLsR/rliid1a/bLdW7/OHmzYaI80vmlPNG+zpS3vndXTLTvcP/Nwwxs2p36d3Vzzkl1Z8bT7MNWNXB+uCkUXFN4fuZtrkBQQdfNR4NFr8MuShXZ5+WK7qXqF3V+/3h5t3GJPNm3PeL79pNducfN2e6TxLbun7jW7rvJ5+13ZEy78KkT8uOgBdyMMW5jV76P3k563P5Q/abfVrLRFTVvt6eYd7j9vr11tf6pY4v73Cwrnhu73n23nF9zr/v4VevW3ekft6v96/v5V86p7XvW3q+dZnxnen4HwIgABZ6EPtD+UP2Vz6l+3lxK7bVt3gR3or7OKoU5rTg9YIj1kbaPD1u6MWMfoiHWOpr+R/hn9s/r3WtND1pIesIqhLvu0r8Y2d33ubrT/rHnFLi15lBD09Q1c4eLG6hW2pHmHbes6ZscGWqwpnbLW9ODXz//Unvtc/fdrN2g1wz12MFVvGzoO2MKmt1yQ+HHR3IzHMJsUzm6tecXe7j5q5UMd7j07+VzpPxOjQ+79vK37qN1Ru8r9/tzE/7+Lih+2u+rW2M6eEqsa6nbP1389f+khKx1stzc6D9st1S+7zwzvz0B4EYCAr+lG+8fyp2xew0Z7pe1je7en0D7rr7WiwYTVDve6m1732Kj1jx+3oYkvfaOf1zU26kKVPmSPDjTb3r4q96G6uGm73Vj9ovsg1rdR7+8cV7pxK/Q81/q+7ewtti9STVY51O1eg96x8YzncDYMTJxw74fGkZSVDXXYZ/119mbX525k4MqKpbM6NaIQc1XFUnuh9QM7MtBsLenBs75v9f/X86rn+JW2PW50UyOf3p+ZTxS8r6t8zl5t/9gKB1pd6E2d5fnrG5+w5nTKDvU32POtH9gVZYvz6m81yghAyFuT0wP65n533Vp7puU9e7PzczvYX291I0l3ox2cOJnxgTcTBsZPuJGlooGEvd9bYq+2fWzzGzbZNZXL3LqDOE5V6KaroPfv2lXuRvJ+T4kbHUuOT8za6zAd+h11o9QI1ZauL9yU2XVVz7kw532sQVP4ealttwtmQ1N87lLjJ6xmuNe91/5a+Wws32NTpfCzpn2fVQ/3ZDxPZ6OAVD7UaS+0fmhXlj+d8TMRPgQg5B19O9OaB83pK/isbN/rRnr0LTmsN9re8XE3ErWx86A92LDJ/lb1vF1SsmBWRxn8pDUUCndaz/NxssJNLYT1tZgKhYn6kT57o+uwW6ekUYGZeK0UWhS4FCBPhZ/M3+1cakZ63cibFvt6f37c6bNB6/E08jOd8HM6TSk+1fyOC/Pen49wIQAhb0yuJ9FOLM3rv9X1hVuHMxChG+2gwtDYuO3rr3YjQpeXLf563UY0v63r99aI1u21q2x7d8GsjroFRdOaq9s/cYtl9f4LcnpEi8Vvrn7JjqSapjzycyZa6za3fkNk31fZ0oJnLXIvHExkPCfToRCv97T35yNcCEDIC/og1w6rhxo2255kpTWM9FvP2Fikws8kBQRNC2lB5kfJcrdmSTfWqN2s9PtqJG5Z6/tu2iiO4Uc0GqSpsc8HGu2u2jVuR5H3ufCLRtIU7LWezPt7TIcW+W7tOmI/iuD7KhcatdnVW+qmn73PyXRoTdX6js/y6rmLIgIQYk9blbXd983OL6xosM3t3tAaG++HVtQoLGhXUsFAq73R9bndUvPKrKw3yYZbe1X+lJvS01SNwqj38cWJXis9RgU9rQ3SyJ33OcnV9wvvc+0BSgbb3cJc7+8wHfr7+DzVmFc7m/QFSQvvtQ5KodX7nEyHFpbvTVbZ78oez/sF5WFGAEJsac3F9VUv2LOt77lRn7b0cCRHfM5lcoRhV2+ZPd70tv25PNy7eNTP5+9Vy932ce2eOdvumjhSEDo60GLLWne618n73ORCN/Bbal52a9m8182GNgKsbNvrpii914ojhZXlrbvc6Jf3uciGwq76BOVLgIwiAhBiRzd/TTPcXP2yW4SqLexxnFo5k5LBNnu5bbdbJB3GaTGtUfl71QtueqB7dCxvXhcvvU7aoq4mmOf7FFa1KH5+w+acp28macRKo0C/L3si1IHaD+cX3mv/qF5uh1MNOY+eTSod6rAFjW+6v0Pv9RAOBCDEikZ91KL+zrrVdjTVHPuplTPRFN8HvSUuBGm0JSwhSL/HFeVP2rqOz6zLp2/ZUaa+RktadrhdR34sjNb7/rGmt93r771WttpGh+yuurVurZb3enHy0+J5Nr9xk/WNH3cbDbzPQzYqh7rsqebt7m/Qez2EAwEIsaIGdC8n9rhOwfoml48jDHrMaqxYMNhqd9auDsXNa3K314bOA+61ycfXxUvrRLTeRNvkFYK8z9l0+T0CJPoCsbnzkFuv5b1enFxT+axt7DzgW/gRrW3T0SmMAIUXAQixoamV1zs+s9rhZCzX+kyHAoZ2VamrtD6ENdXifb5mkg6O1TEfOjYgn9b8nItCuqaZbqtdmfONUiMNN1WtcDuQvNfJltaXVQ932z9rXo31NNgD9RvdZgLv48+F/vZ0DAlrgMKLAITIU+8OfdDo6Ah9o/Z+EOUzBcFD/fVuauQ3ZbMTgjTyo9dHRy105+GU5DdRUFUI2tR5yE1Zep+76VBA0Xqd4sGEa5PgvVa2NFK1pPlddwiw95pxcHHxAjdq7NfiZ1Fw/DhZ6esaL/iPAIRI07Zvnaqu86LU1ND7QYRTN9lDqQZ7tGnLjJ8ppmv9pWKpbe46nJfrsaZKO66ebdlpv8ixe7D6AOkYDh2y671GLt7rKXINFr3Xi4ObqlfYB72lGY85F6f6AB2Y0b81TB8BCJF1QdFcu6nmJXdwqJ/feONIIUhrgu6te81tl56phdEa/ZnXsMk6xkZY93MOu5MVbirM+xxOh0ZDtaZIx6Z4f34uNLKqUcS4TYPp70AtCXSGl/cx50JfOHRkjfd6CBcCECJLTdp2dBdF5rDM2abnSU3y1OxNIcj7fAZBowY7eop4faagdXTINYb8QQ4hQyMOmtLZnSw/6+nv2dCUzvrOA/bbsscyrhlVkwvzddiw31+gNB0fRLNL+IsAhEi6ofpFe7Prc18XfMbdZDfiPckKF4KCXpyp0YglLe+4Y0e8vwsyKWQcStW7KRn1S/I+n1P1/YI5tiKxO+vDPM/m074au7duXcb1okojyHfUrXINC/0M6DoEV4eh/qhwbsY1ES4EIESKhuB1qKR2e9UNJzM+fPDN9EHfPTZqr3Xst79WLst4fv3018pn7e3uozkfK5BPGkb6bG37Prswx+7L/65d5bqfe39+LvS76VDXmTjVfiZo/aA+Rxp9Dug6n08doL3XQ/gQgBAZ5xfMsUtKHrHnWt/3/dvtdClIaIpBDf00CtU4knLf/GpHet3v5qVu1LqB6JBKHWKqEDIw7t+3zumqGe6xZ1p2ut4x3ufZL483v22FPm8t9tJroMZ/uomd7bnPlZ4rLVLWa6f+Sn6OFnglx8fdc6bpk1yCxqWlj9rq9n2uFYL3GtlS+wKtt/tdDDpD67nVFyltfff3OTphz7d+4I7V8F4T4UMAQmToG9ttNSutfiQ544eZTm5X1g1Q5241jaSsYqjT9vXV2PbuY67B36r2T2xF20f2XOJ9d8L5JP3fKxIf2ZqOfe5oDu2oOdBf5/oVKTx1jKbdh/BM9y7SlMacutcD2aarG4xOJfezK/GkyddCDf/0GmhKT8//mZ57P7zQ+qGtbN9rb3V/4Z4zBVltmfZzjc3p9P66p+61nE+Nf7jxDd8X95YNxuN4Bx2Q/ED9Bvdcex9jtvT3q3PYNPoW9YCYLwhAiASta7ih6kXX08bvBYvnMrl2RqFFUwAPNGx00zu/LHnEdfBVp2WFMy2oFC0w9vpZ0YNuWkPblHVj0wewvkmrP86SlnfdQsyW0cEZDUHqybOzp9gdoeBnCFL40UGfn/XXBjJaovDxWX+d63r8x/Ilbmv/5PPvfd79op+t104jkFdVPOMOzSwcSATyeml0cF3HfjdC4X1up0ONQbUl3vvzc6HAsLO3JOdwNtuurHjafXHxszVDz9i4besucG0fvNdDOBGAEAlXVz5ja9r3BT4FcTrdaA/219srbXtsTv0616juirLFLrxc4MMCR03pqUOymqXp8d1et9qebd3pRpVmoqeRnkedV6T+M7rJe3+/bP24aK4LiTrw03vNXOl4gVXte91roem7XKaJsnGeFs8W3u+mODRK82bXF74f6jrZHfpvVS9kXH86Li5+2BY1bvH1SBiNelUNd9t1Xx+2671mFPyw8D67vXaVm7L2cyRZI5LzGja6zwfvNRFOBCCEnr59P968zcp8Hs4/E83h61vux32Vrjusdr38sfwpu6Dofnfz8/5uftLN/Lelj9mddWvspbbd9ml/jZtC8uvmdSYaBdLN9trK53y7oen10kiZbjDe6+VC01066V7fsIN+LaZCj1Pb/BWCusbSvr1OGlXSOrE7alfnFPA0aqrfr2gg4et0nb4Y6FiT2T5eJVuXlT3m1hGmJvwLP5rC1noinZmmgOW9JsKJAITQ05b393qLfbvBnI3ChqY1tL1eNx99k5uphoFeWsSqUadt3cfcQlwtjvX+vn7RDe351g/tMp8WbmpKSk39/Fr/c2rn2pjbHaWRMu/1ZpNCo0ajDqbq3eik93fPlh6zznDL9SDbK8qfdCOnmlbzXiNbmoLe11ftHvds/X3kQju0diXLMh5XLrQIX32SNBXrvR7CiwCE0NKHq3pprO341PetqqfTzUbf4LXD5aGGN+wnRQ+E4oN9ctfbS20fuUNEg1r7pNGB0qEOu6XmZV8Wb2ptVOlgh2+jDvo5xwZbXBAOw+vipRD0SNObVjrU7mtIf7F1lzvby3u96dAolQ4y1Q42v343/ZzesTHXcdqvUcOZovf3k83vuF2b3seVLT0f6iWkL01+TI1j5hCAEFpaa6GjAXSIpp9z9afTh1fnWNrt4Lqu8tS6hjDdZNXZVzexe+vXucMVg3oeFDK04ynXUSDdYK4oX+x2yQ2e4TrZ0EiSGsv9OqRTLnqNtBj+w95St97G+/tnSyMKWmzvvd506L2sRe5akO73CNWa9k/cYmLvNcPsirInbXPnYV//jvSa6ywxjf6E6bMD50YAQmhpp4m2Uvt9sOMkfXBVD/XY4ubt7oM8zN9mdYO9u26t20IfxM4j0ZojrT/yXns69Bxq95FfHbr1WNVJWmuU1Fnae72w0Gjdy4nd7sws72PI1jvdBa5jt/da06UF7upNo6lU7zVycTjVaHPqX8+4Xpg92LDR7ST1PpZcqNWAvjxw8Gn0EIAQSj8pmuemPPTh4ue36kna/no01fyfkYVcFpvOFK2tuatures02xvAmqBEesiWJ3bldCK5RqvUq0k/y/vzs6HFpZpeuLR0Yei/XavvjhaUex9Dtj7sLXPTV97rTJcW5V5X+Zzb0ejnyIc2C+j9ovYA3muGjdu9V3S/6/ys6UDvY8mFRn+02Nx7TYQfAQihpLUPL7ft8XXYfpKme44OtNiS5nddf56w31hPp0WxWmugUOBnD5NJ+jDXWVTe606VRu3urn/NtwZz7aMj9lFvuQt/3muFjd/HT2jKU9u1vdeZrsm1dFrcr63a3uvkYkdPoVsM7b1m2OgLzp8qnrL9/bU24OPuLy0uV5sMtRzwXhPhRwBC6Gg64eaal922d78W0k7S2oWakV5b2vJezjtsZotGxzRypZ44fn6jF/V4eTGxK+vhfE3V3V//um8BSFNp2gkXhddK01VqaOl9DNna319jd+U4JXm6R5u2uuDvvU4uigcT7r0Y9i8R+pt5snm7VQx1ZTyGXBQOJlzvH+/1EA0EIITOL0sW2uLmdwIJP9q98nTLu/bb0kWh/9A+G/3eFxY9aOs7PnOLjb2PMxd6zjXicnHJw1mFIAWguT4eMaD1X1u7j0QiAGnK9v0ePwNQrZvy9F4nW+qfpMNpvdfJhUYh3+0ptB+FbPOAl0YQNaKmY2e8jyEXGzsP2jUBHyqM4BCAEDq6kWzz+YNa1EtmQ8cBu7rimUis+fkmutncWP2iO8rCr+3Nk9TQLdstvf4HoMHoBKCqU6+H9zFky+8ApPYOz7Tu9HVTgd57X6Qa3RqYHxben3HNMNDoj0bndPaeGp16H0M29Lh19IXWfUVhDRTOjACEUNGowwJ3iGNHxodOLjRXfzjVYDdWrfD12IfZpPVLmn7QTjbv482Fdgs91/pBVs+T1gCpe7ZfAUiLqd/pKYjE2VNhD0ByZ+0a18TQe61c1I0k7dW2j90CeO/1wkDHlujsNjX89P7u2Tp1XEmT/aP6xaxGShEOBCCEioaqV7Z97GvTP31b024yTX3p26D3mlF2fdULrlWAn1vjm9Ip29x1OKuutm4XWK1/u8DUA2h3MhqLoP9RtTz0AUgHrL6U2O3r2jFNg2n3mzYu+NFI00/nF95r/6he7r78+LmbVI1TtVZO4cp7TUQHAQih4tZR+LiQVDT6o/45lxQviN23NU1rqCNvh49nUZ0adSnMatTlVB+g5b71AdI2+CMDza67dBjO//omf6t8wXb0FGU8hmxppEYjNt7r5ELTVHfVrnW7wfx6v0jb6JALa2Gbqvxp8Tyb37jJ+saP+9aYU8+bOtMr8Orvz3tNRAcBCKGysOktd8PzfujkQt9ONVcft/AjWgukbsHavq6w4H3s2WhOp+yNrsNZrW3QDfbKiqW+rTM5dbNJuQW8YV1jMunK8iW2tetIxmPIlr4I3FrzSsZ1cqEQqffLrt4y394volGgzZ2H3GGg3mvOpmsqn7WNnQd8Cz+iUUm1OzgVyuP3mZJPCEAIFZ0i7ue5X9rVpJ0al5ctzrhWXOjQ1gcaNloi7c+6G60BUmfbbNYAKWRqWkCvoV8jDLrhPNG0zR0Q671emOh10IGtgz71mdnUedCuDWCHkY7GWNS01bfDakWLi6uHu13jxjBNgz1Qv9Et6vf+vrmoHOpyW+rjNp2ejwhACAV9k9IHyns9xb5+M9Xan0cbt4R+9CAX2tGmU78P9Te4nW7e52A69E356ECzOzFbZ7F5rzUV+masm07Sp9dR68E+SVa59U7fLwjPzdVLHZfVXLN5JPfRL4XHp1t2BBL6tLvvqspn3AG7fq6L0ZcNPf4gfudsXFy8wF5O7PF18bOC3qd9NW5EMuo7SUEAQkh8X51ay5+yg/11GR86udjaddStSfFeL240WqNRm6qh7pxGXrpGR+3d7kIXYrKdMtTaIfWG8WshtB5P12ja3Vx/E9IDUSfdXrva9iarMh7DdOgmWzvS6zpLK1R5r+EHrdXZEsA5e+oMfVNIjoVQR3NNDXt/x1xobduGzoOEn5ggACEUdNClTjwvGkxkfOhkSztdnmjebpeUxP+117TDb8secyeSZzuCpp1kR1Mt9ljT2xk/fzomD9+s8fnwzSOpJpvfsDnUh6L+pvQxW9q8w70G2QRR/Tuamlrb8akb1fP+fL/oOdTieT//3kSHwer9M9vTYBpRXta6040Ae3/HXBxKNdiDDZsyrodoIgAhFDT9taR5h1UOdWd86GRD4UeniGtNQrYjGVGjm44+nLM97Vo7g3SiuUZ/vD97OnRzvafuNd9vrtrJo51RunGHdfGpXgOt29F2+GyCqNtS3t/opliynYKcCv1NaIpILQb87Liu0av1nQdcGPdec6bovaF2DFpE7mc7DXmj83Cs1xPmGwIQQkE9Z17r+NSFFu+HTjb0wbenryLv2tQrvGgn3aFU/ZRHIDTyo+mqle173Q6hXL+969+/vHyx7e+rmfLvMFU6HPVAf5091aK1JgtDORWhm6/aOaj1wnTaAZzqeVThptH0hSDokKf1VCsSu92id+/vkgutkVEzTO/1ZsoFRXPtjrpV7sBgP99/9SN9rvGoDpb1XhPRRABCKGjdyM7eYtdPxPvBkw2dIv9K+x7XnM17rbi7rOwxNxKkdTh1w8mzLnQdGD8VfD7rr7UXEx/Z1ZXP+jK95E4fL5prmzoP+bYO6HRa6F002GZr2z+1Bxo22F8qns5qx1qQ9PhvrXnZ1rTvczdivR+9j0N0g9brUzzYZhs6D7jDT2ci/Ezy+wR7aRjpc7s5Zyuc6svU6x2f+bqbVD5KlrvNAd7rIboIQAgFbSFWvx5NAXg/eLKh6Zx5jRvdz/VeKx8oEPyt6nl7pW2P7UqW2RepJisZbLeKoU53irx2aembukLKA/Ub7KKSBTmP/HgtbHzLjqT87ek0SbvVNHWjx6Wt5wpC11U95xZJK3zMVIA4F3Ve1pbz7T0Fbv2Igo5OJBf998OpRneAqkYWrqpYOuO73LRja3X7vqym684mNX7c9vZV2e9moTO0Qpeec72//X1MJ9y6Njo/xwsBCKGgE+C1aNavFv2aetA5PXRqPdX3RVMyGhV6vHmbPdL4pjvsVItsg2wPoBu6DjL185iOs9H0kUaylra8Z9dWPmeXlCxwXaln+gZ8NgqkGmGb27DBFjdvd/TfFVI14jOb69TUJNTvxcJlgx22oPFN9xp4rxck1xPLx8N4Re9fHcqr0bKwvJ/gDwIQZp2+rf+6ZJE1jaQyPnyyMdmq3p1NNMPfqMPo/MI5LujoZqRAqP9ULxh9mAd5vMQFRffbs6073Wic9zXy2+RUknq+aCeS1t8o6Gk6MAw3Lb3HNTqh0SkFHtF/1zb32R6t+nvVC25LvPc5zYUCyM7ekqyOU8nFlRVP2/buY76NJItOfd/WXeAWpnuvh2gjAGHWuUWzZYut2aeeJJoa0VTPr0oWBnqDxzfTc691MFrb5X2NgqTpCq090iiEdo2t7zhg8xo2uRGvMIShsLm4+GFb1LjFBUi/Fg3rb7BquNuuq3p+xkaBFCZvr13lFiv7NZIsbjq9IX+n0+OMAIRZp9EJfbvyqymbOhBr4ammQbzXwszSrrRHm7a4cDvg0xER0zE5faEu2VrvpKmnf9a8YpeWPBro9F+UaJT05uqXrGgg4euWeI3GqZv1TDWv1Gjfc63vW8rH95nWEWk9kZq0BtWUErOHAIRZp6mA6yqfn9aW4W+iXULaBs43ttmnUSAdu6BT0v1clJoN3dw1OrArWWpPN+9wowU6uFXvk9lcgxMGGh3TjrXus+xWy4ZaUWgETuucZmKaTzu0tODf+3vkQlPp6muknWXe6yH6CECYdVqXcmP1i74FoK6xtNvhdFHJwxnXwsxTXxw1pKwdSbrpKe/rNVvUImBb9zGbV7/RNe77efF813wwH8PQ5GukkTq/psH0c3rHxlzjyqCnwTS1+WTzO9bo0zpC0e+vkWRtGNCaOe81EX0EIMw6LQi9qWaFbwGocyztvnkSgMJB3/71Wqxs22t1I8mM12u2KIxpgaumyNRXaF3Hfjc9dlFx/r1v9Bppt6B20p2tZ1E2FCLWtH/iFid7r+mnK8qetM2dh31d+6M1UTpLTKM/MzGChZlHAMKsIwDFn76hqz+Ldhv5tdjdL7pJa7pG0x1HB5pdA0kdLKtDPbV9PV9ufpNnuPndGVq9jubUv55xPT892LAx6yNgzkatAfQ+yMcRwXxBAMKsIwDlBwWJ22pXujOaNDXifd3CQutgdPNTg8IXE7vsvvrX3QhG2LpN+02LfK+rfM4O9tf7OpKiLfHLE7vcFKP3mrnSGjO1W1DnZ7+DtUZ/tDjce03EBwEIs44AlD+0FuSBho1uqiXbE9Nnin637tExO9zf4KZxtBX6+qoXXDdgPY64jQy5I0wK59qbXZ/73rtJo2raEu+9Zq7UW+lPFU/Z/v5aX3cZKgSri7paBHivifggAGHWEYDyixbc3l239j/HFYQ5BJ1Oa2N0tMfy1l0uCGmLvxbwx6230KNNW+3oQEvG489F0WDCLVL2OzTqs+PJ5u3uaBHvNXNROJhwgdd7PcQLAQizjgCUX3QTnDwx/YuBJte2wPsahtGpbtPHXX+b2uGk23L9RPPbdvksnHkVJPXkerv7aMbjz4U6M2sU6Ec+j5xpwfrHyUrrGE1nXDMXGzsP2jWVyzKuh3ghAGHWEYDyjxaW/qzoQftX7av2fm+xb6/9TNEOsvbREddxXO+1NR373EJfdwBoxI9f0ajWM607fWtMKgqPX6Qa3ZoavxpQ6nPjxuoVLoz61V5Bv6d2Bup8tCDWLCFcCECYdQSg/OTWnBTNdQ3sdKJ74UCrr+s4ZooWDGsH2f7+Glvf8Zk92vTWf46A8HO0YybdWbvG/Q15H2su1ALh1baP3eif93rZ0FosTUdqRM57rWxp6/vnqSZ3kDK7v+KPAIRZRwDKb9rJ88fyp+yp5nfsQH+d68vj55EMM0k30MrhLtvUedg1APxr5bN2UfFDkQtCalnwUmK3r7vBNA32earx1CHFOU4Znl94r/2jerkdTjW459x7rWypiap2/ilcea+J+CEAYdYRgCCaetE27G1dR61qqNstOo5qENJUit6HO3oK7d6619xuolxv+jNJ01R31a51u8H8XKTeNjpkd9WttZ/neEr8T4vn2fzGTW5N1uAZrpMNPU6N5P2jarl7L3qvifghAGHWEYAgGiXRtmbdHG+oetFtQ9buIe/rGxWnjoIYd2FuQ+cBN8oVlRCkUTmNXu3qLfP1DDcteNehtDpc1HvN6bim8lnb2HnAt/AjHaMjtidZ6Xb3RW3EDtkhAGHWEYDgpfeEpkpuq1lpy1s/tH3Javf+iOIaIY1SaGRhd1+FzW/YZL8qWZjxeMNIR2MsatrqgoH3MWVLi5Wrh7vduWO5hMEH6je6Ngren5+LyqEut6Ve7z3v9RBPBCDMOgIQzkaN+RSEtCh3acsO16TvUH+D6y484OPUzExIjo/boVS9LW7e7k5f1yiL9/GGiQ4AvaryGSsdbPd1nY2mNZc0v2uXlj6acc2puLh4gb2c2OPr4mcFMx2grBYAGoX0XhPxRADCrCMAYSp0UrumkR5s2Gybug657r9qgKcRiiiFocLBVlvausMuL38i9FMtmo7U+W1+bokXrY3SWWve603FTdUr3DEV3p+ZC332bOg8SPjJMwQgzDoCEKZL0ycKQ4ubt9nuZIU1jqT+s2jaz0W7QVFwW5H4yPWaCXMIUpsC7Wbzey1WzXCvPda0ddrTYHqulrXudGe1eX9mLg6lGuzBhk0Z10O8EYAw6whAyIZunnrv/Lp0kd1a84qtbv/EyoY6fF20G5TU+HG35uSlto9864sTBPXC0ZTT7mS5rzvyNOW0vvOA/bbssYxrns1kB3Edppv0cUpO3ug8bJeXLc64JuKNAIRZRwBCLs4vmOO6Sl9Rvtgdr6Euvrq5Hhto+XpEKPM9EgZaE1Q61G4PNGywi0sWZDyusFBn6xWJ3VY93JPxGHKhNTf31q3LuN7ZXFA01+6oW+VeVz9H+epH+lwPKq03814T8UYAwqwjAMFPmlbSFm5Naaxq+8T2JCvclEsYR4Y0krGvv8b+Xbsq1CNB+v20Rdz7++eiYaTPjdpNdd3NhcXz7fWOz9yOOu/PysVHyXLXjdx7PcQfAQizbvJMH78CkLq5EoCgKTIdlqmb90ttu93UiUYPdAMN01ohLeDe2HXIrqt6LrTrgbRjS2HFzxCpacC9fVWnzk87x1oghSR1p9bWd39/hxP2XOsHdH7OUwQgzDp1Xb2hermPAWjU9vfV2MUEIJzmkpIFdlvtSnu9c79bRJtID7mbaRh6C+m9/2zrzlB3INbUot+Lj8sGO2xB4xvu3DTv9U6nKcIH6je49gfen5EtBU8du6KAfK4AhngiAGHWaafJtZXPuQ8j74dUNnTmkM4ICvO6Csw8LejVVnpNkWkLuqbI3u0ptMZ0KuM9NNN0M96lqZja8E7F/L3qBbcl3vu750KBZmdvsf3iHEdjXFnxtG3vPub+tr0/I1s69X1bd4Hr/eO9HvIDAQizTucOXVmx1LdeI1pXoaFyfeP3XgsQfePX++MvFc/Y3XWvuS3pmjadzW7T2sq/ruMzNyUcxqkwnWe2qHGLa4ro1/ShpiKrhrvtuqrnzzoK9MPC++z22lVusbKfh7PqnLN5DRv5opTHCECYddrFo26/zT4FIM3rVw5126WlC0PfbRez70dFD7gt0LPdbVrvW11XDQL1pcD7e8427Qa7ufolKxpI+LolXh2dn27ZYb8pXZRxTbms7DF7rvV9S/kYTDX1qS9JOpNMAct7TeQHAhBmnULKpSWPWsNIvy/fLPUzmkZS9sfyJ6e8wyTONO2jBeHquaKgqRuKDnzUN+6ZHmk4ddjpfNe7R4tfLyt73J2NFZZRj9O7TW/uOmwH++vd9m8trPfjvXkuGuXQzjXtePL+bmGgIzzWtO+z7rHRjN89W24nXF+1/a3q+TO+B7RDa1eyLOPfy4UWwqtVQlifZ8wMAhBCQTdknZqtb8HeD6tsaIHrrTUv20+L8/NgQ91IdDPX2oqrKpbaffXr3SLbl9v22POJD+zhhjfs+qoX3POu8KH1Md6f4Rf9LhrRUPBRKL2zbo0taXnXXkp8ZMsTu+zRpi1uF6B2GgX9u0yHfudrKpe50Qf1rGlOB99tOvn1yMRvyxbZ+YXheB5Op636OshUo7V+PQf6Ob1jY67jtHcaTFOVTza/46YHvf9etnQ97Qa8vXa1O+/M+xiRPwhACAXNwx9M1Vu3T4sc20dHbEHjm+4G771WPlDY0I1qR0+RC5aaztFUg27g+k89P3UjSbcNWYdzaj2Mpji8P8cPalL4j6rlbkRFjf8So0Pu/C6Nqkz+LvpG/ll/rbvZ6b2gaVHvz5lpGpnUiNVPi+bZb0ofs1trXg2827RuzlqHdHfd2nMuDJ4NCrM6JV6vld5L3t8/W3rca9o/cYudT7/eFWVP2ubOw76u/dEaJp0lptGfM404IX8QgBAK+rB/p7vAWtNDGR9Y2dAQ/bqOT13vEO+14u7P5Uvs2ZaddnSg2YWNs63X0GJfNY3UDf3d7gK7RSNmRf6OmGk6Ses7tCuvKZ0666niugHqhlo21Gnbuo+5dTAaDfL+vNlyerdpNe3UY9KokF+B/XR6777WsT+07129R55v/cD3ztB6j8yp/+/O0A82bLRD/fUZ/2wutJV/Wev7oRlpxOwhACEUNLS+qm2vWwPh/cDKhm60B/rrXHM577Xi7A/lT7mbU8lgmw1NcYrChY/RtAug/6pZ6abOvD83G38qX+J+Fy2anep0if45jQ5t6z7qRrD8+l38pJEhLdi9t36dvdX1xdc7x6b2+KZC710dzqk1Md5rh4EWDV9X+ZxbH+XnyIxGKZcnPvz6gFgdfXG/6/zs1+aISRr90WJu7+NC/iEAIRTUAO6J5m1W4VOjNY1uaFv9XXVrQnkT9ZuG8rV+QmcaFQ5kd3K3RmA2dR7KuS+KfheNEmhHVbELYpnXOheNTG3oPJAxJRImel8ppLzdfdRN4/kVgibfu2raeH4IG/Tp9dW5Wdotp63k3t8/F+rLpC3xmnr8U8VTtr+/1te2BBpde6Vtj9vS731cyD8EIISCFiNqUaIWgHo/tHLxTOt7Z91eGye6YWixs0a9pjracibqyaJv4bl0xnUjBFXPu6mLXH6XKExV6LFqYbe2r/u5M0rP2/zGzb5PSfpJi9ePDrRk/O65KBpMuHVgetxPNm+3iqGujH8mF4WDCdf7x/tYkJ8IQAgF3XB/W/qY+8bn/dDKhbrMam2L93pxc2Hxg7a2Y1/OU4haL7S3r9KdjZRtCNLi0tfa97u2Bt6fPx36XXYny+2SkkdCG4I0VaO1Srqpnpp2zHwc2Xox8aFrW+C9ZlioeenW7qMZv3cu1OlZo0BadL43WWUdo+mMfyYXGzoPup193seC/EQAQii4Of/C+127ez+/SSsQ6JtknKfBTnXSftp9e1ZPFe9zMF3Fgwm7v2G9O6LEe61zUVDRiJu2GfuxU0ojgneEfLuyHrM+X3b2FPt6VMPrHfvt6spnMq4XFppyVWsFv87wE418lQ62u87cTSMDvrXF0M/Va6PzzLTGyPtYkJ8IQAgVndpdM9yb8QGWLY0ibO06YldXhPdGkiv1z9H6Kb/WY9QO97rXQQvTvdc6FwXNqyuededr5TL9NUlTclpLFOapIFGA1027xsedUVu6j7jzt7zXChN1z9ZuOO/vngu1R9DORJ0W7/3fsqWF5Z+nGu0f1ctDO5qImUcAQqjogErtgPF+gOVCIxpLmt91IyVxOxpDi2TV0FCddP0Y/RHtutEC12y+KSs0qXOvGlF6f242Gkb6XOdhTfF5rxU2fr933+sptptDPn2rrfovJXb7uhssCApVLyZ2uald72NA/iIAIVR0Kry2Y/sxejCpb/y4fZysdOspsl3XElYKKWr4mBzz74DK1tFBe6enIKtGfDpy4776192WZu/PzcapMPZFVmFspin4fZSsyHgM2drdV+F2gnmvEyb6UnFX7Vo3+ujX+89v+r3UaFPNOLXb1PsYkL8IQAgVrSvQN7UeH9aPTBqc+NLqhpO2sm1vVtM6YXZrzSv2QW+JrzcfTV9le06SAtD99Rt8C0DaDr61OxoB6MbqF+393pKMx5CtT/tr3LEh3uuEiUZU/1r5rO3qLfNlzVcQ1FdqT7LSdYWn8zNORwBCqOgD6oGGDb5vr9X0UOlgh1tQ+/MsRjbC6BfFD7tGgwoJ3sebi8rhblvSsiOrTswKQHMDCUDhf81uqH7R7Tr0PoZsaUfkXXVrM64TNjoa49Gmra4XkvcxhIG20msjRDbvZ8QbAQihc23lMteQz/tBlit9Q9VoiW5UauTmvW6UKCjeU/eafdJX5evoj3yRarIbq19y0xve655LXgegqhfdTjDvY8hWVAKQduhdVfmMlQy2n/Wok9miXWRapK3mnuqV5f3dkd8IQAgddWld2PiW2w7v581dP0sjQavaP3G7wqL6gah1TDqT6u3uI75uQRY95+rDosCRzXTBqSmw9T4GoEHb2n0kGgHI5ymwqAQg0euzpesL30cjc6W/D/X+ierfOoJFAEIo/b1quZsGO9tBnrnQh+LLbbtdv5psbvKzSVt4dVq6fn9tV/c+tlypB8vTLe9mXHeq/F4ErddKvaGiEIB0gKvOmfI+hmxpDVBUApB6Rin4qheV93HMJu3K0+487+8LCAEIoaRwsqTlXd87wYrObNJJ1ivb99qFRdmNdMwWhR9NMWlRt19N4k63vbvA/lrxbMZ1p0pBRTfttlF/tsFrAevuZIVdFIGzm+6sW+26aHsfQ7a0c/HftasyrhNGLpgXL3Cdu4P40pKtNzoP2+VlizN+X0AIQAglnQR9VeVS18PHr/42p9NahcqhLnu944BdUf5kVutdZpoWmz7UuNkKBloCWWvRlE7ZMy3v5bRYVLvsdIq7X32A9Dg1qnBp6cLQB9WFTVvsyEBzxmPIlkaTtMvPe52w+n7BHFuR2O2+XHgfy2xQF3gdDhz19X4IDgEIoaVt2KvbP8n5fKuz0TdV9QdZ17HfTV+Eeav1b8ses0VNW+0zn0/HPt2HvaX2zxxvuJoKubbyebd2x/vzszHZw0VbzHMJZkHTuqzV7ftyPv/sdDplXr1rvNcKM41Yacu597HMho+S5a43k/d3BCYRgBBaGpXRWiB1OQ6qx4husF2jaXdcxr1169whjOcXhKNZonqs6Dn4Y/lT7oTsw6lGXxeFT3LPwdio2yqsYzW8v8d0KAj8vmyxC61+/a7q4vtS4qPQHgyqx3x5+WI3ZeXnyNxr7Z/aVRVLM64XZnr/6EtLUH+vU6Xp4edaP6DzM74RAQihpmmP5a0fWtVQd8aHnJ8Gx0/asYFWW9rynjuVXh1jdcyE9/eZKbqp6vyrP5U/ZRs7DrhREO/v7BfdtL9INfp27tQlJQt8O5hVdCZU+VCn64qsqVHv9WaT3p8aOdR5ZX6/R5e17nQjf95rhp0OHNXr5X08M0Vr/DQCqdGouHV+h78IQAi9P5UvcWdTBX3ekKbE9MF5IFVvDzZsntV1JwphagXweX+jdY6mA33sWmj8WNNWt8bI+3tkQ0doaP2KXzvBRCFI7wGde+a93mxSSL2xeoW74fs5+qPRs4caNof+ENgzUZDWlnjvY5op6iK/rbvA9f7x/m7A6QhACD2tK9FWVo1SeD/s/KZvj+qFo6Zu7/UUuUWU11Quc6ecB32QqnqV6HBJrfXReWg6EbtnbMy3qaQzUbhSM0VNs/m1EPxnRQ+6k9H93qavUbCNnQfdtOhsBdPTKejdVbfG9vZV+fo6aY2XFqTfVrMykiMY6uO1qHGLC4R+PSfToXPJ5jVsdDsmvb8bcDoCECJBW1mfa33fEqNDLqR4P/SCoHUxmspRH5oXWj90fU707VajMzqzzPs7Tpe2DqtvzpUVS+3O2jX2dMt79kbXYTs20OJGZby/j9/0PBYPttlDjW/48ngmKbDeU7fWCgf87wlTM9xrW7qPuF5Dl5U97oKp9/pBUvDSriKdf7W4eZvb9u1n+BFNHaoHkA4G9l4/CrQb7Obql6xoIDHjW+K19qhgoNVNHf+Q5oc4BwIQIkHrcTQSs6OnyAUTP28453JqVGjMjqSa3c13Wev7rhePdkxpl85fK5e54fY/VyyxP5Q/dVZ/rnjarq58xq6rfM51Dda5ZBrtWdO+zy301tbxmQp3opPWdeSIvikrjHmf82y5RcFli93ISBA3wM6xtH0+0OjOQVPPob9VveCef41iifd598OfKpa41+4f1S/afXXrbX3HASsd6ghkR57e36+2f+wWk3uf26hQawm9rzWa6n18QdIoYbYH+SL/EIAQGRqluK7qeTdqkRyf3V0murErsGiEaE+ywt7tKbC3uj639Z2fnZWOdNDaGB1xUDrU7r6tzmSQO51+/w97y+xftcFsE9ZIycaOg771AzobdYr+PNXopgw1Paabn/d598ObXYftg2SpFQwmAn3d9HN1nIQWfEf5Jj7ZD0ohO6jnykvX0ejp7bWr3flk3t8J8CIAITJ0U9X6Eu0y0ZEN3g/AmabRGgUJTVnopqipEH3jPRv97/rntDZC/95M3RjOpGywwxY1bXHTVd7n2S96nRROvNf2k14DPZ96XjVKd0rmc5+rydcu6NdN1zg60Gy/Ll3k66jcTNPfqhbVq2+VRrS8jzMIeh/oC4aCYxjWiCH8CECIFPXo+WXJI7Y8scstEvZ+COKb6eathc+aPlLvGu/z6ydNg2iKLRXANFFcaY3T8sSHLuh7n8+o0Q42vc9mqjO0duJpejrKwREziwCESNKaj5Vte2fswzUOXPgZS9vmzsNuPVXQi0S1QFlrnHTkiPd3QSaNLn3aV+NemzicXq73l9a7HeyvD7SNwySN/mjxtff3AM6GAITI0nqg1zs+s9YZXjwcTSfd9mCtV9LuIj93fX2Tv1U97w6kDOLg1ripG0naq20fxyL8yOSOOfVv0nvP+3j9pGnKV9r2uC343t8DOBsCECJLH7BXVz5r73YXug/YIHbkxEXv2Jjt66uym6pX+NbvZyq0xujuutesaSQ1I6MAUaWAuKOn0P5RHa2zv6bi0aYtdnSgJeMx+6lwMOF6/3ivDXwTAhAiTTfzy8uecN8ym9OpjA9GnDrmQ+dU3VW7xj1fQTd0PJ1CqtYCrWrbO2OLYaOoerjbHm96e8b7Gs0E9bna2n004zH7aUPnQTd16L028E0IQIg8TRmox84rbR/P6hlEYaRRF213n1P/ul1U/FDGczcTflw0192ctP1fC7C9v2M+07os7SLU1Jf6SHmfuzjQdOszre+57f3ex58rPX86+kI7DnUmm/fawDchACE2tDBau07UCyTf1wRN7vba2VNs99S9ZpeUzO77X4fL6jgTNZP088ysqNO29w96S9x5YkG2JJht6nSuZp/ex58rvZc+TzW5BpXs/sJ0EYAQK+pA/ETzNjuUanDHSeTjuhPtJmoY6XNnmd1U/ZJrSud9nmaapsK0LVpHiqgHEYuiTy3c1fl2t9eusp/P0ujcTNEZdy8ldvv+99g1lrYXE7vsd2WPZ1wTOBcCEGJHN1p9I9RRDDrdXSeJez8446pv/LjVDiddV+Tflz0RusM0Ly1Z6A5KnckOwWGkkKqRSr/PYQsrrT27q3at26zg1+uun6OjL3QcjUYYvdcEzoUAhNjRaIMWk15W+pi9kthjFXnUh+bIQJM91rTVLi1dGLrwI2pkqYMq9a3d70NEo0ThRyOVCj/50LVYC+91gOyu3jI37ed9PrKhEd49yUrXGDUfnkP4jwCE2NKp1BoFua9+vdslpkWYcdwqr+kkjahoJ4wOWL209FF3eKz3+QgL9Yb5c/kSW9rynhutCuLA1LBS4DvQX+e2huu4C+9zE2c6GuPRpq3WPjqS8bxkQ19snmzebj8pmpdxLWAqCECIPZ0NdH3VC/Zs607b01fhtsvHYQ3K5BTA7mSFCxPaaaXpP+/jDyNNiVxW+rj7vQ+nGmK/O0yL8tWFWyMg8xs2229LH8t4TuJOB5ReVfGMlQy257wQXqFZi6q18SEujSMx8whAyAsaItc6gTvqVtvrnZ+5b+EafdCamcEzfMCGmRaSam2TdlSpE7ZOv47iVIp+358XzbdHGrfYrmSZC3Nx3L2nqT4dB7K9p8CdkJ7P27X1ZWRjx0HXGNP7PE2HFvmv6fiE8IOcEICQd7Q+6LrK513r/LKhTrcwMzk27vsOFT9ptEffmjVSouC2tfvI1zfT6O8e0rqgv1e9YOs7P7PGdMoFhjC/FlOlUUY1f1RQfa71fdeKIN+3amvk74aqFe4LSLZTn/r31NvqX7WvZvx8YDoIQMg7WpCpgxoVHv5UvsStI9A0UnOO30qDpGZv6nfyQmKXO2Dy4pKHXZCL2qjP2ejG+KuShXZrzctu+77Wa0V5gbTCT+1wrwvZmn7V1GS+hx859bd3vy1t2eGmwrzP21SUDXXYoqYtebF7DsEiACFvKTxoCP3XpY+6HSp3161139Tf7y11UxandillfgDPBC3WTowO2YH+elvXsd8eatzstvZfVva4a5gXl+BzOo0EqWfRVRVLbW7DBje9VziQcJ2SoxCG9Du2pgddx2vtcrutdqVbhM8W7Uzq26MQpDO8vM/j2Wjkp2SwzR5retv9HczkkS6IJwIQ8DXtTtIH6601r9iCxjdteesu29x52I0OFQy0Wu1I0m29zXbo/mz08zQNVzXc7RYE7+wtdqHn6ZYdrouzFo5q7UQ+jSAoCOmgW3WPfqntI3u3p9A+TzVa3XDSBVPvczgbNE2nKcmKoU77tL/G3uj63J5p3Wl31a21y8sXsz7lGyjAqznioqatrhN2/UjfWRdGa3q6ZrjHjQw+0viWW0CusOz9mcB0EYCAs1AgUmfpf9WsdN86X27bY290HXYf2Pv6alxYOTLQ7Hq6FA0m3JC+hud1Hpluil6lg+1WPNjm/tmjA82uW/WnfTX2QW+pC1rLE7tsvhvpWR7aPj4zbXLx+t+qnreHGja7KaXt3QX2SV+1HUzVu+dRz6eeWz3vZ3vuc6XXVaMPGpE6kmpya1h2J8vtra7PbVnr+3Zv/Tp36CvTMtOjYH9T9Qpb2b7XPkqW2RepJvc3oudb/6nQq78PNc/UP/ejovgdFovZQwACpklrGH5ZutD+WrnMHTXx79pVNqdundverP4uOtX7TNT194GGDXZP/Tq7ufpl+0vFM/arkkdd0PJeA2f3/cL77BfFD7tTxjVaN/ncqwGk9zn3y8LGt2xew0Y3Iqcb8RXli90o1XmF+TMqFzT1CdI079z6DfZI05s2t369Wz+lxeM8zwgCAQiYJq090BC8pjgUhrQYWety9O1fNGJxJvrf9M+J/j39+/o5cVzPEzRNB+r5O/259z7ffjr12v7/106jc7xu/lLzTj23k6/n5HOdT1O/mFkEIAAAkHcIQAAAIO8QgAAAQN4hAAEAgLxDAAIAAHmHAAQAAPIOAQgAAOQdAhAAAMg7BCAAAJB3CEAAACDvEIAAAEDeIQABAIC8QwACAAB5hwAEAADyDgEIAADkHQIQAADIOwQgAACQd/IiALWO9xKAAADAfygA7Yx7AGqbSNqvShdmPHgAAJCfrqpcah/0Fdh4nANQ9/EB+3XpoxkPHgAA5Kdrqp6xvalSG//qRHwDUPLEkP2+7HE7v+DejCcAAADkn+uqltnBwSqbiHMA6j8xbNdUPWsXFN2f8QQAAID8c0P1C1Y60hzf8KMaOJm2O+pW2oXF8zOeAAAAkH/+WfuytU/0xTsADZ0ctSdattilLIQGACDvnVdwr91dvzre639U6S8nbF3XXvtD+eKMJwEAAOSXnxfPt8da3op3+FFpgZMWOmnBk/dJAAAA+eXPFU+5gRFvXohldUz02+11r9r3C+dkPBEAACB/3Fb7itsC780Ksa3HW7bYL0oeyngiAABAflBLnEXNb1rDWFf+BKAtPQeZBgMAII/9rPhBW9v5sR3/vyfzJwBVpFttfuOGjCcDAADkh5trXsyv6S9V+stxt+iJg1EBAMg/2v7+cseH1jLek18BSHV4sNrurl+T8aQAAID40iaoK8oX26cD5fE+Af5s1XU8ZZu697seAJwNBgBAftDan6cT2605H0d/JktrgW6rfdUuKJqb8QQBAIB4+UHhffbHiidN9//xfBz9mazBk2n7JFVmvyx5xM0Hep8oAAAQH78vf9xe7thlOhrLmwnyrrqPD9gziXfsN2WLMp4oAAAQD+r/N79pQ35PfXlLQ2FzG1+nOSIAADH0w8L77I76lfm37X0q9WF/od1et9J+UjQv44kDAADRpI1O11Y9a2/3HrbhL5n6OmO931dg11c/zzlhAADEgO7nvyxZYFt6D1nPiUHCz9lq4GTaPuwrtD9UPEkIAgAgws4vvNc1PH6r56B1TvQTfs5VyRND9nGq1G6pXeF6BXifUAAAEG7a7q5pL438EH6mUSNfjtvHqRJb0LzZflf+uJ13hicXAACEjzY03VG30q35YdoryyoabnBb5K+sXGI/KppLryAAAEJIAxUa9fl92eNuq7t2e9HrJ8fqmOh3Q2gaStOxGXqCGRECACActGZXS1b+VPGkvdKxKz8POA2qdHp801i3vdqxy/5S8bT9sPD+jBcAAADMLM3M6GDTpYntVpluZdQnqGqf6LMjQ3W2rmuv3VW/yn5Z+ohbZe59QQAAQDDOL5xjFxbPt1tqVrgRn/0DFW7UZ/yrE4SfoEvTYocGq9xp8k+1vu3C0NWVS+2SkgXuhfG+WAAAIDtqZKiFzVdWLLHb6l6xx1recgMROsuzdbw3vw81nc3SqNBkGHo6sd3mNKx1L9CNNcvt+urn3NohhSMAAHBu11Q9a3+rWmY31Lxg/6x92e6pX2NPtGyxdV2fuNDTONZN4AlradtdVTphR4Zq7dOBctvVX2g6agMAAJyd7pf7UmV2eLDaytMt1nG8345/dZLAE7XSizbx1Qk3PAcAAM5N903x3lMpiqIoiqIoiqIoiqIoiqIoiqIoiqIoiqIoiqIoiqIoiqIoiqIoiqIoiqIoiqIoiqIoiqIoiqIoiqIoiqIoiqIoiqIoiqIoiqIoiqIoiqIoiqIoiqIoiqIoiqIoiqIoiqIoiqIoiqIoiqIoiqIoiqIoiqIoiqIoiqIoiqIoiqIoiqIoiqIoiqIoiqIoiqIoiqIoiqIoiqIoiqIoyuf6fxjCZmQfje5SAAAAAElFTkSuQmCC;" vertex="1" parent="1">
          <mxGeometry x="32.01" y="160" width="63.67" height="65" as="geometry" />
        </mxCell>
        <mxCell id="jrJ8sMQovFL2cEqCVLPm-27" value="" style="shape=image;verticalLabelPosition=bottom;labelBackgroundColor=default;verticalAlign=top;aspect=fixed;imageAspect=0;image=data:image/png,iVBORw0KGgoAAAANSUhEUgAAAgAAAAIACAYAAAD0eNT6AAAAAXNSR0IArs4c6QAAAARnQU1BAACxjwv8YQUAAAAJcEhZcwAADsMAAA7DAcdvqGQAAABmZVhJZklJKgAIAAAAAQBphwQAAQAAABoAAAAAAAAAAwAAkAcABAAAADAyMzABoAMAAQAAAAEAAAAFoAQAAQAAAEQAAAAAAAAAAgABAAIABAAAAFI5OAACAAcABAAAADAxMDAAAAAAIvvHMbnUA7gAAD95SURBVHhe7d3JcxxH3t7x92aHzw6ffHvvjrAdtt9/4T364vDBEe/VJ/vmlxrtM9qlmdGs4r6KFEEsJEGAJEDsIABiIXaA2HcSC0UtFCmJpMR0/EovRlQmiuyuzKrOyvo+EZ94450ZZjcajaqnq7My/+7vyC+yvb30H3Z2Vt7a3l7u2t5eWdzeXvlue3tFAcBz3NveXm3a2Vl5e2dn5T/qxxVCiMfZ2lr+h62tlcE9/rABoBw/bG4u/Gl+fujv9eMMIcSzbG+v7t/eXnm6xx8yAJTtzp1FNT9789Hy8vQ/6McbQogn2d5eqdP/eAHAhhSA2VsDUgIeUwII8TBbW8tV+h8uANjaLQCUAEI8zNbW8v/U/2gBwIVnCwAlgBCPcufOnX+7vb2yo//RAoALegGgBBDiSXZ2Vn6j/8ECgCt7FQBKACEeZHt7ZVP/gwUAV+IKACWAkApmZ2f1f+h/rADg0vMKACWAkAple3vltP7HCgAuvagAUAIIqUD+ZXlf4w8WAFwppQBQAgjJMFtbC/9O/0MFANdKLQCUAEIyys7Oyj/qf6gA4Fo5BYASQEgG2dlZ/if9DxUAXCu3AFACCEk5W1ur/1f/QwUA15IUAEoAISlme3v1Nf0PFQBcS1oAKAGEpJTt7ZXf6n+oAOCaTQGgBBCSQnZ2lj/W/1ABwDXbAkAJIMRxKAAAsuCiAAhKACGOQgEAkAVXBUBQAghxEAoAgCy4LACCEkCIZSgAALLgugAISgAhFqEAAMhCGgVAUAIISRgKAIAspFUABCWAkAShAADIQpoFQFACCCkzFAAAWUi7AAhKACFlhAIAIAtZFABBCSCkxFAAAGQhqwIgKAGElBAKAIAsZFkAhJSA9eWp/6Yf8wgh/xIKAIAsZF0ABCWAkOeEAgAgC5UoAIISQEhMKAAAslCpAiAoAYTsEQoAgCxUsgAISgAhWigAALJQ6QIgKAGEPBMKAIAs+FAABCWAkH8JBQBAFnwpAIISQAgFAEBGfCoAghJACh8KAIAs+FYABCWAFDoUAABZ8LEACEoAKWwoAACy4GsBEJQAUshQAABkwecCICgBpHChAADIgu8FQFACSKFCAQCQhTwUAEEJIIUJBQBAFvJSAAQlgBQiFAAAWchTARCUABJ8KAAAspC3AiAoASToUAAAZCGPBUBQAkiwoQAAyEJeC4CgBJAgQwEAkIU8FwBBCSDBhQIAIAt5LwCCEkCCCgUAQBZCKACCEkCCCQUAQBZCKQCCEkCCCAUAQBZCKgCCEkByHwoAgCyEVgAEJYDkOhQAAFkIsQAISgDJbSgAALIQagEQUQlYmvyv+vGVEK9DAQCQhZALgKAEkNyFAgAgC6EXAEEJILkKBQBAFopQAAQlgOQmFAAAWShKARCUAJKLUAAAZKFIBUBQAoj3oQAAyELRCoCgBBCvQwEAkIUiFgBBCSDehgIAIAtFLQCCEkC8DAUAQBaKXAAEJYB4FwoAgCwUvQAISgDxKhQAAFmgAPyEEkC8CQUAQBYoAD+jBBAvQgEAkAUKwC9RAkjFQwEAkAUKgIkSQCoaCgCALFAA9kYJIBULBQBAFigA8SgBpCKhAADIAgXg+SgBJPNQAABkgQLwYpQAkmkoAACyQAEoDSWAZBYKAIAsUABKRwkgmYQCACALFIDyUAJI6qEAAMgCBaB8lACSaigAALJAAUiGEkBSCwUAQBYoAMlRAkgqoQAAyAIFwA4lgDgPBQBAFigA9igBxGkoAACyQAFwgxJAnIUCACALFAB3pASsLU7+F/14TkhZoQAAyAIFwC1KALEOBQBAFigA7lECiFUoAACyQAFIByWAJA4FAEAWKADpoQSQRKEAAMgCBSBdlABSdigAALJAAUgfJYCUFQoAgCxQALJBCSAlhwIAIAsUgOxQAkhJoQAAyAIFIFuUAPLCUAAAZIECkD1KAHluKAAAskABqAxKAIkNBQBAFigAlUMJIHuGAgAgCxSAyqIEECMUAABZoABUHiWA/CIUAABZoAD4gRJA/hYKAIAsUAD8QQkgUSgAALJAAfALJYBQAABkggLgH0pAwUMBAJAFCoCfKAEFDgUAQBYoAP6iBBQ0FAAAWaAA+I0SUMBQAABkgQLgP0pAwUIBAJAFCkA+UAIKFAoAgCxQAPJDSsDq6vh/1s8XJLBQAIppbWVezU1Oq6nhCbWxumD89wjf2vK8mro5ruanptV6Bu+Bzc0ltbgwipxYXhrfvHNn6N/o5wwSUCgAYdu8s6zG+0fV1dPtqurjBnXirfPqwEtV6pN/PvsLJ985ry4duaamRyaMMRCO0d4RdeFgkzr+Vp3xHjj48rnofXDuj42qpbpTTQ9PqK0tcwwUyfL/1s8ZJKBQAMKzsb6ohjqGVP2Ra+rQq9XGgf559u87Gx3879xeMsZFfm2sLajGE63G7/tFjr5Rqy6fbI2Kw+Yd3hMFNKqfM0hAoQCEQw7Q1y/3qSOv1xgH8nKd/uAiXw0EYml2Zs9P/OU68fZ5NdgxZIyPsOnnDBJQKABhkE/8coDWD9o2Gk+0GI+DfJFL+HJJX//d2jjz0SU1MTBmPBbCdO/exr/XzxskkFAA8m3h1i312W8vGQdpV0b7RozHRH7IFSH9d+pK3SdXo4mE+mMiLHfvrvwn/bxBAgkFIL/Gboyqw2V+x1+uU+9eMB4X+XB7YzGa2Kf/Tl2SrxZmJ6aMx0Y4dnZW/lE/b5BAQgHIp+7G3mjCnn5ATgOf8vJJbvHUf5dpkJIx3H3TeHyEYWdn+Z/08wYJJBSAfNnaXI6+m9cPwmkavzFqPA/4ryfFy/976bhw3XgOCMHq/9PPGySQUADypelMu3HgTVtnfY/xPOC/huPZFkXRe/WG8TyQex/q5w0SSCgA+XHjWr9xwM0CB/V8qkRZ3L+vSk0McodASOQcoZ83SCChAOTD5ND4niv4ZYHVAfOpv3XA+F1m4fDrNWpxdsZ4PsgnCkDAoQD4b3l+1sniPknIJzpWBcwn2etB/31m5dP3L6rb64vGc0L+UAACDgXAfxcPNRsH2KzU/Pmy8XyQDzJhVPZ+0H+nWWmr7TKeE/KHAhBwKAB+k8vv+oE1K3J71+IMl3LzTL6P13+vWZH3z8rCnPGckC8UgIBDAfDbuT+4Xca1HLKKnP58kD9Nn2U/GXCXbCSkPx/kCwUg4FAA/DXSM2wcULMiM8jZCjYMtzeWVP3hynyNJItVzU9NG88J+UEBCDgUAH+d/rDeOKCmTZZ25TauMA11DlVkMqmUD/25ID8oAAGHAuAn2eRHP5CmQb6nPfv7hugT/0DboNpg5nbQVpfmo/UkrnzaFu3qtz+DW0vlPSZXIfTngnygAAQcCoCfui71GgdSF479ulZdPd2u+lsG1NzkVDRTXH9sFIfc4jkzNqn6mvuj7+vT2lxq+Pqw8djIBwpAwKEA+Knq4wbjIGqr4ViLWl9dMB4L2CWz9mv/csV479iSZYn1x0I+UAACDgXAP3KZVj+A2jj0yjk+gaEsckXA5W6Th1+rUZtcbcolCkDAoQD4x/USrn1N/cZjAC/Scq7TeC/ZkOWs9ceA/ygAAYcC4J+22m7j4JmUXM7VxwdKIfMDTr13wXhPJSXzTvTHgP8oAAGHAuCfyydajYNnEjLDe3lh1hgfKJV8atffV0l1XLxujA//UQACDgXAP7V/dTMJ68xH9cbYQDm2tpaj2/j091YScqupPj78RwEIOBQA/5z+4KJx8Eziyqk2Y2ygXK6Wo5ZNrfSx4T8KQMChAPhH9lPXD55JyExufWygXM1nO4z3VhJya6s+NvxHAQg4FAD/6AfOpMb7R42xgXL1XOkz3ltJfPr+RWNs+I8CEHAoAP7RD5xJUQDggrMC8B4FII8oAAGHAuAf/cCZFAUALlAAio0CEHAoAP7RD5xJUQDgAgWg2CgAAYcC4B/9wJkUBQAuUACKjQIQcCgA/tEPnElRAOACBaDYKAABhwLgH/3AmRQFAC5QAIqNAhBwKAD+0Q+cSVEA4AIFoNgoAAGHAuAf/cCZFAUALlAAio0CEHAoAP7RD5xJUQDgAgWg2CgAAYcC4B/9wJkUBQAuUACKjQIQcCgA/tEPnElRAOACBaDYKAABhwLgH/3AmRQFAC5QAIqNAhBwKAD+0Q+cSVEA4AIFoNgoAAGHAuAf/cCZFAUALlAAio0CEHAoAP7RD5xJUQDgAgWg2CgAAYcC4B/9wJkUBQAuUACKjQIQcCgA/tEPnElRAOACBaDYKAABhwLgH/3AmRQFwLS1taxujU6qwfZB1dXQo1prutT1xl411Dmk5ianjf89KABFRwEIOBQA/+gHzqQoAD+Tk/vlk63q6Bs1xuv0rOO/qVPNn3Wo5blZY4yiogAUGwUg4FAA/KMfOJOiAKyo1aU5dflki9q/r8p4fZ7nwK+qVMu5TnV7fckYs2goAMVGAQg4FAD/6AfOpIpeAORS/7Ff1xqvSzk+ff+iWpydMcYuEgpAsVEAAg4FwD/6gTOpIheAkZ5htf+l8j71xznyeo2aGZ80HqMoKADFRgEIOBQA/+gHzqSKWgBmJ6bVwZfPGa+HjWO/rlMri3PGYxUBBaDYKAABhwLgH/3AmVQRC8DtjUV14u3zxmvhwtnfX4ruItAfM3QUgGKjAAQcCoB/9ANnUkUsAB0Xrhuvg0uDHUPGY4aOAlBsFICAQwHwj37gTKpoBWBteV4dfKXaeB1cOvHOebV5p1hXASgAxUYBCDgUAP/oB86kilYAeq/eMF6DNIz3jxmPHTIKQLFRAAIOBcA/+oEzqaIVgNq/XDFegzRcPd1mPHbIKADFRgEIOBQA/+gHzqSKVADksrws3qO/BmmQSYb644eMAlBsFICAQwHwj37gTKpIBUBu0dN//rQceKlKbW+ZzyFUFIBiowAEHAqAf/QDZ1JFKgAzY5PGz58mmXCoP4dQUQCKjQIQcCgA/tEPnEkVqQBM3Zwwfv40rSwUZ1EgCkCxUQACDgXAP/qBM6kiFQBZr1//+VOz76za2izOrYAUgGKjAAQcCoB/9ANnUkUqAHduLxk/f1pkS2H98UNGASg2CkDAoQD4Rz9wJlWkAiDOfFRvvAZpuHioyXjskFEAio0CEHAoAP7RD5xJjQ8Ua8Ga9rpu4zVIw2D7oPHYIXO1wNKp9y4YY8N/FICAQwHwy/rKgnHgTGp2YsoYP2Rzk9PR9/P66+CSLDW8vrpgPHbIhjqHjNchCdlWWR8b/qMABBwKgF+ik9geB88k1laKc6varktHrxmvg0tylUF/zNBND7u7w2LzzpIxPvxGAQg4FAC/yPf2+kEziQO/OmeMXQRLczOprQgok/821heNxwzd8vys8VokJWPp48NvFICAQwHwS19Tv3HQTOLkO8VarvZZA22DxuthS1b/mxwq1pyKXXLL435HX61MDBbzNcwzCkDAoQD4pe6Tq8ZBM4nqP102xi6Sa1Wdxmti48a1AeMxiuT4b+qM1yQJ+b3oY8NvFICAQwHwx+31RWeXrxuOtRjjF01XfY/1pED5KkUmweljF03Vxw3Ga5NEka9M5RUFIOBQAPxxs+umccBMqrWmyxi/iEb7RtTxt5J9epV1BWbGi3UnRZz6I+4mV85N8prmCQUg4FAA/PHZby8ZB8uk+pr7jfGLSrYKvt7Yq479urQicPLdC6q/dVBtbRVnud8Xaa3uMl6npORODX18+IsCEHAoAH5wda/1LmZb72FrRU2PTKi22q7oE63Mkzj9YX30f+X/77x4PboN0/h3UJND48Z7zEbR1qjIMwpAwKEAVJ58QpXvRvWDZFJVHzcajwHY2NpaUcccTQQUtX+5YjwG/EQBCDgUgMq7errdOEDa6G26YTwGYMv1nRWyx4D+GPAPBSDgUAAqy9U667v276tSa8vFWwEQ6bs1Omm832zIe3X8RrE2rMojCkDAoQBUzmjvSHQQ1A+MNmr/yqVVpMflV1Xi8KvVzAfwHAUg4FAAKkM++bs++QtZBU9/LMAVmUCpv+dsHXrlnBq5Pmw8FvxAAQg4FIBsyYQ/19/575JFazbWirdWPbLjcrMqXWd9j/F4qDwKQMChAGRHbvVzfQn1WSyziizU7XezXPVeznx0SU0MsF+ATygAAYcCkC5Z3ldW+HO5yM9e5BYteSz98QHXluZm1cGXzxnvQZdkLsvYjVG2D/YABSDgUADcWV9ZiC6Rypa+squfbOzjam3/F5GSoT8fIC1yuV5/D6bh0CvVqv5ws+pvGYiuDMxP31IbqwvG80F6KAABhwKQzObmcnTSbTnXGa0kd+jVauPglRUWVUHWZC7LqfcuGO/FrBx5vSa6StBW2x3dTaM/P7hDAQg4FIDyyad82ShGPyhVglxhWJi5ZTxHIG0Tg2PG+7FSav58meWvU0IBCDgUgPJ0N/Zmdlm/FG113cZzBLIi207r78lKkatwgx1s3ewaBSDgUABKJ1vL6gedSvr0/Yvqzm0mSaFyVpfm1dE3a433ZqUceKmK7YYdowAEHApAadZXF9SxX/tzoJM97lcW5oznCWRNTriHX6vcHBidfD0nc3T054lkKAABhwJQmiun2owDTaUcfaOW7/3hFdlmOe1bA8vR3dBrPEckQwEIOBSA0vjy6V8+abF2Onwkt7/KJXj9PVsJMilQf35IhgIQcCgAL7a6OGccYCpBPmFNDU8Yzw/wxc3um2r/PvO9mzUpyvpzQzIUgIBDAXgxuc9YP8BkTT5Zycpo+nMDfCOL9ujv30pYnJkxnhvKRwEIOBSAF5Nbi/SDS9Zkqd+VRSb9wX/zU9PRCn76ezhrM+N8VeYCBSDgUABebOHWLePgUgly258sN6w/P8AXS7MzXsyXkStm7CPgBgUg4FAAXmxra8WLTzTis99dUhts+gMPyRWqE2+nt9tlOWTzLf35IRkKQMChAJRG1tvXDzKVInsPsAAQfCJXpuQKlf5erZTmzzqM54hkKAABhwJQGlnsxJdbnMT5/VdZ7ARekCtScmVKf49WimwUJCsU6s8TyVAAAg4FoHSdF7PZArVUl45eM54jkCXZFVCuSOnvzUoa6mQ/AJcoAAGHAlC6rc1lr74KEBzsUEld9X6V4ssnW43nCDsUgIBDAShfz5U+b5Y9lRnXTApEJcj2u778HRx+vUYNsRNgKigAAYcCkIysxX/5RKs6/cHFiq98dq2KCU/I3vkDV433YpZkTo7M9m860x6t1qk/P7hBAQg4FAB7tzeWos1QZMEg2YRETsjnDzRl9ulo/z7ZAnXaeF5AWkZ6ho33YVoOv1ajLh5uVi3nOtX1y33R114zY5Pc558RCkDAoQCkR27Vk2WE5UrBgV+lWwaqPm40Hh9IgxRe2Y5afw+6JCf95rMdamJwjLtdKowCEHAoANlYXphVjSdaU/26oL91wHhcwLXW6i7jveeKFGX5pL++yoqXvqAABBwKQLbkUv3pD+uNA58LR9+sje5U0B8TcEXur9+f0noYsoWvTCzUHxOVRQEIOBSA7N1eX0xtApXsya4/HuBK79UbxnvOhaun27nU7ykKQMChAFSG7C8g33HqB0JbMt9AfyzAFZlror/nbEmp0B8H/qAABBwKQGVdOnLNOCDaOPxqNfsEIBVyeV5/v9lqr+s2Hgd+oQAEHApAZcnJ+qzjddSHrw8bjwPYkltc9feajfojzcZjwD8UgIBDAag82UbV5XbD9Yc5sMK9Mx+5K6on373AlaqcoAAEHAqAHzouXDcOkknJAkQsDxxva2tZzU/fUgPtg6r9fHe0sMzizIzxv8PPZOVL/X1m42bXTeMx4CcKQMChAPjh9sZidBuffqBMik2CTHL3hcw2j1uh8fBr1VEhkB3u9H9bdC43/ZGtg/Xx4S8KQMChAPhDljnVD5ZJdZy/boxfZLKi3Im3zxuv017OfFSvZiemjDGKrPFEi/E6JTXWx62qeUIBCDgUAH/IaoH6wTKpK6fajPGLSpZj1l+fF5GNZigBP5NFevTXKAm5ysL9/vlCAQg4FAC/yO5m+kEzibq/XjHGLiJZUjbpVytyJYCvA34ik/b01yeJhmMtxtjwGwUg4FAA/NJx0c1kQNmmWB+7iGzXWZA5AfqYReRqM6ub3Uz+yxsKQMChAPglyeXqvciCQPrYRSPr1uuvS7nkkrU+btGsLdu/jrvkbgJ9fPiNAhBwKAB+kX3O9YNmUkW/FXC0z02ZKvotgrPjU8ZrkpTciaGPD79RAAIOBcAvsiiQftBMSu5118cvErkTQn9Nkij6LZUjPcPGa5KELHaljw3/UQACDgXAL7Kdr37gTEpufdPHL5KLh5qN1ySJttouY+wi6WvqN16TJGQioT42/EcBCDgUAP/oB86kir41cN0nbrZcvlbVYYxdJD1X3KxP8el7TEzNIwpAwKEA+Ec/cCZFAaAAuEABKDYKQMChAPhHP3AmRQGgALhAASg2CkDAoQD4Rz9wJkUBoAC4QAEoNgpAwKEA+Ec/cCZFAaAAuEABKDYKQMChAPhHP3AmRQGgALhAASg2CkDAoQD4Rz9wJkUBoAC4QAEoNgpAwKEA+Ec/cCZFAaAAuEABKDYKQMChAPhHP3AmRQGgALhAASg2CkDAoQD4Rz9wJkUBoAC4QAEoNgpAwKEA+Ec/cCZFAaAAuEABKDYKQMChAPhHP3AmRQGgALhAASg2CkDAoQD4Rz9wJkUBoAC4QAEoNgpAwKEA+Ec/cCZFAaAAuEABKDYKQMChAPhHP3AmRQGgALhAASg2CkDAoQD4Rz9wJkUBoAC4QAEoNgpAwKEA+Ec/cCZFAaAAuEABKDYKQMChAPhHP3AmRQGgALhAASg2CkDAoQD4Rz9wJkUBoAC4QAEoNgpAwKEA+Ec/cCZFAaAAuEABKDYKQMChAPhHP3AmRQGgALhAASg2CkDAoQD4Rz9wJkUBoAC4QAEoNgpAwKEA+Ec/cCZFAaAAuEABKDYKQMChAPhHP3AmRQGgALhAASg2CkDAoQD4Rz9wJkUBoAC4QAEoNgpAwKEA+Ec/cCZFAaAAuEABKDYKQMChAPhHP3AmRQGgALhAASg2CkDAoQD4Rz9wJlX0AnD5ZKvxmiTR3dBrjF0kFIBiowAEHAqAf/QDZ1JFLwB9zf3Ga5LE5OC4MXaRUACKjQIQcCgA/tEPnEkVvQDMjE0ar0kSG2sLxthFQgEoNgpAwKEA+Ec/cCZV9AJw5/aSOvxajfG6lOPMR5eMcYuGAlBsFICAQwHwj37gTKroBUAMtg8Zr0up9u87q6ZHJowxi4YCUGwUgIBDAfCPfuBMigLwk4uHmo3XphQt5zqNsYqIAlBsFICAQwHwj37gTIoC8JO15Xn12W8vGa/P89T+5Ur0FYI+VhFRAIqNAhBwKAD+0Q+cSVEAfra5uaw6zl9X+1+qMl6nZx18+Zzqa+o3/n2RUQCKjQIQcCgA/tEPnElRAEyzE1PRwj7n/tioDr1yLnqdZKJgzV8uq9aaLrU4O2P8m6KjABQbBSDgUAD8I59C9YNnEkOdQ8bY+NnW1opaXZwz/nP8Uvv5buO9lQR3VOQTBSDgUAD8c/LdC8bBM4lrTGKDA3X73SypLOPoY8N/FICAQwHwT/UfG42DZxIyjj42UK6jb9Ya760kZGlmfWz4jwIQcCgA/rl09Jpx8Ezi0CvVzGSHFZkTob+vkmqr6zbGh/8oAAGHAuAfuXSvHzyT4l522LhwoMl4TyXV23TDGB/+owAEHAqAf1zNuhbRanbDrGaH8tmsoriXkZ5h4zHgPwpAwKEA+Gd+ato4eNqQSYUrC8x2R+nmp2+pw6/b7aPwrAMvVRV+U6W8ogAEHAqAn06+c944iNqQe90H2weNxwGeJbdGXm/sc3Yr6i5ZWVF/LOQDBSDgUAD85HIewLMuHGxSo70jXBHALyzNzaqb3TfVuT+4uQNF19fM6op5RQEIOBQAP03dHDcOoq7J7V3nD1yNlsgd7RtRq0vzxvNAeJbnZ9Xw9WHVVtsVfTJ3eak/zgoLLuUWBSDgUAD8tLW1rI68kf6BWXfpyDW1vsp3tSGSE78seaz/ztNW9XGD8VyQHxSAgEMB8FfXpV7jYJoFuTIgXxPozwf51d8yoA69Wm38rrPA7P98owAEHAqAv2QRn+Nv1RkH1KxMDI4Zzwn5Iyd//XebFZlToD8f5AsFIOBQAPw20DZoHFSzcuLt8+r2+qLxnJAfctm/Up/8xfQIa1DkHQUg4FAA/Ca3ZZ3+sN44sGbl6ul24zkhPyrxnf+ui4eajeeD/KEABBwKgP/kUrys6KcfYLMg94PLhET9OcF/8ulf/31mRfahWJyZMZ4T8ocCEHAoAPnQ3VCZCYFCVoXTnw/8J7f66b/LrDDxLxwUgIBDAciPxuMtxoE2CwOsIJhLcp+//rvMQmd9j/FckF8UgIBDAcgPuSvg7O8bjANu2trPs41rHtUfcbOtdDlkK2v9eSDfKAABhwKQL7Ja36n3LhgH3jQNdQ4ZzwP+kxUe9d9lmqr/dDkqqfrzQL5RAAIOBSB/ZFe1ur9eMQ7AaWEyVz7J8s767zItV061qc07TBYNEQUg4FAA8klm5l+r6jAOxK4dfq3aeGzkg1wt0n+fru3fV6V6rtwwHhvhoAAEHApAvvW3DqgDv3K7deuz+P4/32RvB/136sqR12vUxACrRYaOAhBwKAD5J/d7p3GHwJmP6rmsm3OysZPs7aD/bm1I4Ww518mmUQVBAQg4FIBwzE1OqVpHcwMOvFSlZiemjMdA/sjGTvrvN6mG4y1R4dQfA+GiAAQcCkB4ZOVAuSKQdJ93+eTPyT8s8p6QvR3033Upjv+mTjWdaY8Kpj4uwkcBCDgUgHBtbS6ryaHxaLJgKQd/mfAn3/lz2T9MsrGT7O0gyzvrv3ud7D/RXtetZsYmjXFQLBSAgEMBKI6NtUW1cOtW9GlwsH0oWl64ra47us+fW/2KQ+4gkeWdZYXHttpudb2xL3oPTN0cj94Htze4lx8/owAEHAoAACAOBSDgUAAAAHEoAAGHAgAAiEMBCDgUAABAHApAwKEAAADiUAACDgUAABCHAhBwKAAAgDgUgIBDAQAAxKEABBwKAAAgDgUg4FAAAABxKAABhwIAAIhDAQg4FAAAQBwKQMChAAAA4lAAAg4FAAAQhwIQcCgAAIA4FICAQwEAAMShAAQcCgAAIA4FIOBQAAAAcSgAAYcCAACIQwEIOBQAAEAcCkDAoQAAAOJQAAIOBQAAEIcCEHAoAACAOBSAgEMBAADEoQAEHAoAACAOBSDgUAAAAHEoAAGHAgAAiEMBCDgUAABAHApAwKEAAADiUAACDgUAABCHAhBwKAAAgDgUgIBDAQAAxKEABBwKAAAgDgUg4FAAAABxKAABhwIAAIhDAQg4FAAAQBwKQMChAAAA4lAAAg4FAAAQhwIQcCgAAIA4FICAQwEAAMShAAQcCgAAIA4FIOBQAAAAcSgAAYcCAACIQwEIOBQAAEAcCkDAoQAAAOJQAAIOBQAAEIcCEHAoAACAOBSAgEMBAADEoQAEHAoAACAOBSDgUAAAAHEoAAGHAgAAiEMBCDgUAABAHApAwKEAAADiUAACDgUAABCHAhBwKAAAgDgUgIBDAQAAxKEABBwKAAAgDgUg4FAAAABxKAABhwIAAIhDAQg4FAAAQBwKQMChAAAA4lAAAg4FAAAQhwIQcCgAAIA4FICAM9g+WN1zpU8BAKCTc4R+3iCB5MLBppFP/vmsAgBAJ+cI/bxBAgkFAAAQhwIQcCgAAIA4FICAQwEAAMShAAQcCgAAIA4FIOBQAAAAcSgAAYcCAACIQwEIOBQAAEAcCkDAoQAAAOJQAAIOBQAAEIcCEHAoAACAOBSAgEMBAADEoQAEHAoAACAOBSDgUAAAAHEoAAGHAgAAiEMBCDgUAABAHApAwKEAAADiUAACDgUAABCHAhBwKAAAgDgUgIBDAQAAxKEABBwKAAAgDgUg4FAAAABxKAABhwIAAIhDAQg4FAAAQBwKQMChAAAA4lAAAg4FAAAQhwIQcCgAAIA4FICAQwEAAMShAAQcCgAAIA4FIOBQAAAAcSgAAYcCAACIQwEIOBQAAEAcCkDAoQAAAOJQAAIOBcBew+EO1XNpOBH5t/p4ebN/X5U69GqN+mSf+d8h3qFXqo3/DPANBSDgUADszQwtq6SRf6uP56Ojb9SqKye61Vj3jFqa3FCby3fVlzv31XcPH6mnT5/+9MM8Verxoyfq4f3v1Feff6Pu3v5Crc3eUZO986q3YURdPXldnfv4qjr8Wo0xfmgOvnxO1R9sV+3V/aq/aVxN9M6ppYl1tbX6ubr/xQP14w8/Ri+ZvF5f3b2vbi/uqPnR1ej17WscVS1n+1TNn5opVag4CkDAoQDYC7UA1B9qV6NdM+ruxhc/n+Qd5Yvtr9X49Vl1+XhXMIXgyOu16tqZXrUwvqYef/9E/5ET5cHX36rJvnl16XCHOvCrc8Zj5sXRN+ui33dSZ3972Rizkrov3jSeY6kajnQa4/mMAhBwKAD2QioAcpJpO9ev7m19pT/V1PLjj0/V5srd6KB68OV8XRY/+fZF1XV+SK3Nbf7tU31aefTdYzU3sqKaP+1Rh+Urlz2ej68+fe+S/uOUlfW5TWPMSpIrNkkzeG3SGM9nFICAQwGwF0IBkE/hNy6PRZ84K5lvv/lO9TaOen+CO/7r82qqf8H5lZFS8+j7x9HrlJerArYFQCJXi/RxK4UCQIIIBcBe3gvAhf2t0ffSPkXmFpz5sNF4rpV24KUqdb1+WH3/7WP9KVckMn+g8aj/l5RdFACZc+JL4aEAkCBCAbCX1wIgB9PhtumKfYp9XuQrCN8mwMn38DJ3wcesztzxsjDtclEAJFK+9LErgQJAgggFwF4eC8CZDxrUzsYX+tPxJjKZTn/OlSInr+WpDf0peheZgzDaecvL2wtdFYDvv30UTSjUx88aBYAEEQqAvbwVADkYP/jqof5UvIlc1t7/UpXxvCtBbluUeQl5itxqePSNyp8kn+WqAEgmeuaM8bNGASBBhAJgL08F4PhvLkQnWJ/TWnXDeN6VcP6TlmjmfR4jX6GceOui8TNVissCIHeNVPq2QAoACSIUAHt5KQCymM/nd77Un4JXke/YZWVB/blnTWacP3n8g/70cpX79x5EX/XoP1sluCwAEpnzoD9GligAJIhQAOzlogDsk4PWtv7w3qXp0x7zuWes9Wxf9CkzhMjXF/I1hv4zZs11AZA0HKncMtoUABJEKAD28lAA2msG9If2LrJ0cKVn/sssc1nSOKTI1xhyq6f+s2YpjQIgV4vktkz9sbJAASBBhAJgz/cCIBPCvnvwvf7QTvL1vW/U0uS6Whhbi1apm725rG4NLKqpGwvR+vfyf+8s7ZT0XXqll0iVvQ7SiiwNLKvZye97uH06KhrNp3tVR81AdEKYHliMLms/vJ/OQkzy+p96t974mbOSRgGQdF+4aTxWFigAJIhQAOz5XgBkLXlXkTUDZJb5jStjqup3V4zHep5P378UbQh0a3DJWDZXvp7Q//dZksmRrkuS3GkhGyHJjo+lLmAj8x/k07qUJ9lUyWXkpFWp+RVpFQBZMErmtuiPlzYKAAkiFAB7PheA6j80OVvoZ2N+S518x82nyFPv1Ee3c0VF4KlStX9uNv43WZJP367yzZcPVdOp68ZjlEtO1jKOy+WZ+y6PGo+ThbQKgER2UNQfL20UABJEKAD2fC4A0/2L+kOWHZkQ1391PJVPj6c/aIg209H/8yx1XRjSf+REkTJzs23K+UI8ssugfK3iIvIcq/+Q/aTANAuA/ExZr4JIASBBhAJgz9cCIIvp2F7Wlk+z5//aYowdis8+anRyu5/cd5/2SUi2Z3ZxNUAmz2W962KaBUAiKzXqj5kmCgAJIhQAe74WADlh2ESWXZXtbvVxQyHfy7tYDllO/rI7oD5+GmQBHNtSJ5F96fWx05R2AZDI+11/3LRQAEgQoQDY87UAyAx8mzSfrvw9+WkaaJ7Qf+SyI5+mZQKhPnaaqv/YFG0HbJWnSl08kN2tgVkUAFnkKqslpCkAJIhQAOz5WADkQPitxSfFueEVY8yQyPf03z98pP/YZeXLnexP/rvkTgHbry7WZjeNcdOSRQGQdNYOGo+dBgoACSIUAHs+FgC55ztp5Ht/mXimjxmSzrpB/ccuKzLxTOYP6ONmSXZMtMpTpT77KJs19bMqALLy4ZHX0n/vUgBIEKEA2POxANT++Zr+UCXnxtUxY7zQyKV7mwy1ThljVsLGwpb+1MqKrBGhj5mGrAqAZKTjlvH4rlEASBChANjzsQBcPZl8VTvZBU8fLySXDnfoP3JZ+frzbzKfRR9HFmOy2bfgyaMnmSykk2UB+OHJj+r0++lugkQBIEGEAmDPxwIg99YnyQ9PflAHXy5t1bq8Wrl1W/+xy0olN6HZi8zot0lvY/qLA2VZACRLE+vGc3CJAkCCCAXAno8FYKhlUn+okiLr9utjhUTu1bfZ7GdhfM0Ys9LkE7zNhM/7XzxIffZ81gVAkuZdDhQAEkQoAPZ8LABJbwGcH101xgqJLD9sk0ovWRxH5m3Y5KqDpYufpxIFQHaXTGP1SkEBIEGEAmDPxwIw3DGtP1RJubvxhTFWKA69WqMeP3qi/8glR27708f0RXTXh8WVjY2FdDdjqkQBkLRX9xvPxQUKAAkiFAB7PhaA7os39YcqKTIp7JN95nghsF0Z0fe7I2xOSnJbo+s9DJ5VqQIgOyoefrXGeD62bF5rCgDxJhQAez4WAJu7ACq5b3yabFb+kx0VZQdDfUyfdNQM6E+7rKT5nXmlCoBENmjSn48tCgAJIhQAez4WgJo/NukPVXIuH+syxguBrHyXNLIVsj6eb2QyoNwClzT9TePGmK5UsgDInS3y+PpzskEBIEGEAmDPxwIgS9Qmzfba58F9DSCTwWzWz2+tumGM6aPFiXX9qZec1Zk7xniu2BaA24vb+n9UVhbG3E5upQCQIEIBsOdjAZATuM2nwazWVM/KuY+v6j9iWfH98v+utnM39Kdech599zi1WfO2BUC2pJb5KTZxua01BYAEEQqAPS8LgHwaHF/TH67kyEY5xzLa4jYLSRdGksj2u/p4vrItOvLv9TFdsC0A8u9t5nBIttfvObuyRQEgQYQCYM/XAiA7xtlEvjNPc2Z4lmaHV/Qfr+SszWW3a56tA786F83oTxopSvqYLrgoAPJe/Oarh/p/VVZcfZVDASBBhAJgz9cCIGSPdJtsrX6ujr1ZZ4ybN/fvPdB/tJIjayro4/lM1nJImrmRdLaBdlEAZBzbHRAffP2tk1JLASBBhAJgz+cCYHtrmEQWwMnzrYEn3rqo/0hlpfl0jzGmz24NLuk/QsmRZYH18VxwVQCElFKbuDgBUwBIEKEA2PO5AMinHfk+3zayz3ray8WmxXb3vzMfpLuznGtJF4HazeHX3C+c47IARFtdW6x6+OTxD+qk5aROCgAJIhQAez4XAGF72fTZLE1uqJNvXzQew2fNp5P//HLroKuJY1mR2e42SeNqj8sCIOYs5nRI5N/rz7EcFAASRCgA9nwvAMJ2y9hnI7eLdV0Yiiac6Y/jI5s7AHZk5vgeY/rs6Bt1+o9RVtK4E8B1AZDbMuWTfOI8tdvYiQJAgggFwF4eCoCcrDdX7uoPbxWZkS2Xmw++bD+pKk39V8f1p15y1nN0B8Df7Durnv6Y/Br5xQNt5piWXBcAkXTL693IXAJ9zFJRAEgQoQDYy0MBEHLpXr7Ldx3ZcKW3cTSVTVdcGO2a0Z9yyVkYXzPGywObeR9XT7qf65FGAZDdHWVWv03k6zF93FJQAEgQoQDYy0sBELJHwLcPvtefhpN89/BRtFiLrEmvP24l2cyKn+5fNMbLg68//0b/UUpOGlvoplEAhNzXb5NvvnyY6LZACgAJIhQAe3kqAOLMh41W98W/KDJxbrhtWh33ZCVBmbiYNCOdt4zx8mDHYi2A3oYRYzxbaRUA+bpD5mnYZCDBJkgUABJEKAD28lYAxIm3LlgvEvSiyCSt0c5bFS8Cd5aSH6xvXB0zxsuD9fkt/UcpOUOt7rfPTa0AOLjrQfYYkLUi9HGfhwJAgggFwF4eC4A48lpttM1t2pED7EjHrYrtLXBv8yv9KZWctJbGTZvMXUiaid45YzxbaRYAsTCW/OeVzAwtGWM+DwWABBEKgL28FgAhu7/JBD6bnQNLjRQB+WpAJm/pzyNNNhPFkk4SqzSZu5A0aSwHnHYBkP/+hyd2twXK/Bh93DgUABJEKAD28lwAdp397WWr743LiSw3K6vz6c8hLTb3izce7TTGywO54pI0qzN3jPFspV0AhJRLm8hXRfqYcSgAJIhQAOyFUADEgZeqooOTzW5y5UR+9qMZbDRkc3WjIcOi4pLNyVB2gdTHs5VFAZDbUOWWVJs0fVravg8UABJEKAD2QikAu05/0GD1HXI5kXUJ0j7JPryf/CuAvG0EtGuyb17/UUrO/OiqMZ6tLAqAkFsYbSJ3xxx8+cUrXFIASBChANgLrQDskk1XNpfdrh64V+SKg6t92vfyxfbX+kOWnM7aQWO8PJCTeNJIedDHs5VVAZA5LXdv232VdePyi+/8oACQIEIBsBdqAdh15US31Um01MiSvfpju2BTYvoaR43x8mBt9o7+o5Qc+fpAH89WVgVAXDzQqv/zsvL4+yfq+G8uGOM+iwJAgggFwF7oBUDIJyv5lJ7mAkIS+fQpj6U/vo2V6dv6w5Scm23u74nPgqxznzRplJ4sC4BYmljXhygrL1oBkgJAgggFwF4RCsAu2VRI7o23+V79RXH9CdTm9zPZ6/5yeBa+3El+xaajZsAYz1bWBUDmsdhMZn369Olzd0WkAJAgQgGwZ3OCyVsB2CXrp/ddHrXadCY2T5VqOOLu9rux7uSbAdnuG18pNrPhm07lYzOgF5FlnG2ysbBtjLmLAkCCCAXAXhELwC5ZTVC2ZX386In+o1nluwffR7sX6o+XhGxQlDQrt24b4+WBza2P9QfbjfFsVaIAyHvTduMrmf+ijysoACSIUADsFbkA7JL1/qf6F6JP764ik/dkbQL9scrVfeGmPnTJ2Vy5a4znu4MvV+s/RlmpLmNFvFJVogCIzrpBfaiy8tXn30Rfe+njUgBIEKEA2KMA/ExmYH91977+YybO9fph4zHK1fJZnz5syZEtjvXxfCerOtrk0/eTnWyfp1IFYP9LVVZ7QUj22h2RAkCCCAXAHgXgl+QT6HDHtHr6o/3lACkT+vjlkvkENjn1br0xps9aziYvPJKjb9QaY9qqVAEQlw6168OVlUffPTY2sqIAkCBCAbBHAdibrKMvGwDZxvY76dPvN+hDlpW474F9NdaVfNKjrMyoj+dCJQuAsLkVVKIvjkQBIEGEAmCPAhCv9k/N1hOxZFlifdxy2cyKz9sBW2avJ83S5LoxnguVLgBnPmy0uy3wx6eq6ndX/jYeBYAEEQqAPQrA8535oCHaATBp5MB94q3nr8z2IjYLwyxPbRjj+ez7bx/rP0LJ2ev7bhcqXQDEWPesPmxZWZv7eZMkCgAJIhQAexSAF6v7y7VocZWksV2dTk5sSfPgq4fGeL6SCXw2kd+TPqYLPhQAmdsgkzptcvlYVzQWBYAEEQqAPQpAaWwW5LF9neTEZhN9EpivZBGfpHny+Ic9b3lzwYcCIGxuCZV8uXM/ujWVAkCCCAXAHgWgNLJ64Nf3vtFfgpKyPr9ljFcOObH98OQHfdiSc+1MrzGmj0YtJgDeWdoxxnPFlwIgJ2/bja3k1lQKAAkiFAB7FIDSycEzSWRte32sctnsCiizyPXxfCP3vD/4OvkeDWlufORLARC2t4XK8tc2awtQAIg3oQDYowCULulWrbJFqz5WuWRtgqSRiYi+fw3QcKRDf9plRW7b1Md0xacCIFZnkm+XbBsKAPEmFAB7FIDSHX2jTn8JSo6s7a6PVw65n98mXReGjDF9Mj+6qj/l0vM0nQWAdvlWAGS1xB8dLFSVJBQA4k0oAPYoAOX55quH+stQUuSgrY9VjmNv1lkd9LdWPzfG9MWR12ut5jjcvf2FMaZLvhUAMdEzpz9MJqEAEG9CAbBHASjP53e+1F+GkuLiFrWFMYtPyUpFqwrqY/qgs9Zu0xvZNEcf0yUfC4AUwu+/tbstMEkoAMSbUADsUQDKk3SimotNas7/tUUftqzoS8J6Yd9ZdXfjC/2plhxZOOjQqzXmuA75WABEz6Vkk1JtQgEg3oQCYE+WT02aIhaApJeqD77s5h71HYuTpSxmVP0H99vl2rDd8lZuHdTHdM3XAiC3h7rcvbKUUACIN6EA2Et6SVsy3b9ojBey478+r78EJUVuvdLHSqq16oY+fFnZXLkbferWx60EeT1tLmNLoUnr5PosXwuAuHy8S3+4VEMBIN6EAmBPblFLmqGWfB0MbDWf7tFfgpJyb+srY6yk5FOf7HpnEykR+riVMHsz+ddPkqXJbPY58LkACFloKqtQAIg3oQDYqfljk/73XVbSnnzlm6n+Bf0lKCkLY/Y7Aj5LipdNpEDIzHt93CwlXVPh2dQfbDPGTYPvBaDq91eiHf+yCAWAeBMKgJ2Rjlv633dZydte8zZkKeCkn7zlyoE+ng3ZXdBme1iJbLt78OVqY+wsnHynXt2/l3yHRYmsZqePmxbfC4CYupGsnJYbCgDxJnktAHIAlKVP9f88S4dfq0k8o303tX9qNsYN1Y0rY/qPX1Jkk5o0ZqnbXj6XyBLBsr68Pnaa5L3/1efJ9lR4Nu3V/cbYaclDAZD5FI++S76VcqmhABBvkscCIJ+6ZOauaDnbp/bvy/YAvCvp5exnIwdzfVyXsjhwluL4by4knqwmd1no47kgB/ykVySezdzISmbvQVcn/42FrUwnMuahAIjexlH9oZ2HAkC8SR4LwM3WqV/8QcnuXh21A9Eys/r/Ni22C69I5P7rtD89ymVeuUtBPu1V6nK1fHrfWb+n//glp+WzPmNMV1zNAJfbOeUrDn18l2QdBBcnf3nfpV08dXkpADJB9GsHr/HzQgEg3iRvBaDqd1div7uV/1wuycoJ43AKl4yFHOSH25NvKvNs0r4F8OibddEa77v59sH3aqh1Sn32kd2SuuWQr0nWZjef/bHLyv0vHji7/z+Oiys5EvlOvv5QuzG+Lfn5+5vGo69CXKQSWxvnpQCIqyev6w/vNBQA4k1yVQD2nY3uwS4lcrBcntqIVvqq/sNV60u0Zz5sVGNdM4kvY++VC/tbjcdx6Xmb38j2usNt0z/NQUjpUvD5T1qsJ6q5nvy3F7lC4eKT9W5uDSw6u0NAduhz+dxkwyD9MbKQpwIgbi9u60/BWSgAxJvkqQDYrHgmJ+7dQiC3PskJPe6SrVyWP/VOfbT2vNzvvT63+YtP0i4in2zTOvHuGuue0R92zzz46mE0A7r1bJ+Tte7ldZsbXokWmbFJtODOHuOnofbP15zeBvbo+8dqZmhJXTrcUfZk1dMfNETfRcvmQy4jv+c0d/x7nrwVAPnQYPv+jQsFgHiTvBQAuW0rjRm63z18FH1HvjZ7R22vfR7N6k/rD//Z3GybMn5G15Iuefvw/ndqaWJd9TSMqIbDHercx1ejSXx7XkXZ99PBvenTnuiWyLu3k6+K+Is8zf4OCdu1AeIir+dk77y6Xj8cvU5SkKRgyvfw8jPKlRopt/LVks2qks/NU7nn3/3XE6XKWwEQciUnjVAAiDfJSwFYGF/T/45yG1k58NS76U7COvJardNPtBIZT05msiqfXMGQyWRplSU5Yeo/U9rkyo/MIQkxNy6PGT9vlvJYAORDh80qn3GhABBvkocCcPmYm5naviSL+6/lu+O8Rr5ySfvuiDjyuDa7O/oWKWg+rDaZxwIgblxNtnbF80IBIN7E9wIgE7Tk02YoyWrt9eEON3cqZB25uiBXL/SfJ1P7zqrRTrsVHn3ID09+jL5yMH6+CshrAZBbZ10ffygAxJv4XgDS+l62EpFFZ2TxGf1nTIPrCWRZRL5eSPurkXL0XU5/UZi0Ipeu07glMam8FgCRdAOruFAAiDfxvQDIFQD5g3nyyP13cVlG7kKQ2+L0ny8NcndD3FoJvkYWX5E1HvSfpdLk6xrXcynSjqz3IJtU6T9LJeW5AIjN5dJuPy4lFADiTXwvALtkQo4snJO3g7FELiFmufjOybcvWt9/n2Xk9kxX982nQeag2O75kFW21+5Ft7jqP0Ol5b0A1Pyp2dmtwBQA4k3yUgB2nf3tZbVyKz8ztbfX70W30Ok/R9rkKsBI5y31o8eFSZ5bX+Oo8dx9JK+nfB3lajU+15GCIus4pL22RFJ5LwDCxeZREgoA8SZ5KwC7ZOGWyb756D5+HyOX4Cd65mIXG8qK3MMvnwp9y92NL1JfCTENcv++rKbnS6SQSDGp9PvsRUIoAHJlzcVXkRQA4k3yWgB2yeYdsqGLHJR9+HQmt13JJwUfDli7ZAGf7os3o90TKx2ZnCi3KOrPMW9kMZ9KFyt5z0sh0Z+bj0IoAGKgeUJ/amWHAkC8Sd4LwLNkAyBZulc2n8l6EtzjR0+iA7KPE9meJUucyiqEWZeB24s76pJHs9Kd2HdWNRzpiJZRzmqOgNwmKbthypUd4/l4LJQCIFdavvnqof70ygoFgHiTkArAs2QHtfN/bYlu5ZJJZt89+F7/O7SOTO6b6J2LTgJyJUJ/Dr7bLQOy5r6s6ucyMhNdClHbuf7o0qn+2MHZJ19LNUevp5ykXUUmvUp56rk04mSfhkoJpQAI2W3UJhQA4k1CLQB7kdnRcluXfGKTiYSyR/03Xz5UPzyJ/+pAriTIyUxOkrcGl6JCIWu3+zjT2taJty5G947LmvXyGm0sbEff1cvVArlH/9nvP+XEJOsayMlOTlCL42vRv5FJfdV/aPJ2MlpWZEOfrgtD0f4I8pXQ2txmtM6/vJf02eTyHpMrCPJ+lKWIpwcWo+/1ZVLfsTfrjLHzSLamHr8+m5j8e33Mitn30/ok+nMsVcORfH0FRgEIOEUqAM8jq8+d+aAhustAFqORA04eP9WnTeYTyFctRT/B25DlhuWqiLzXjsnCULyW8BgFIOBQAAAAcSgAAYcCAACIQwEIOBQAAEAcCkDAoQAAAOJQAAIOBQAAEIcCEHAoAACAOBSAgEMBAADEoQAEHAoAACAOBSDgUAAAAHEoAAGHAgAAiEMBCDgUAABAHApAwKEAAADiUAACzoUDV4f1XzgAAELOEfp5gwSSyydbe/VfOAAAQs4R+nmDBJK22q5r+i8cAAAh5wj9vEECyWDHULX+CwcAQMg5Qj9vkEBy587ix0derzF+6QCAYpNzg5wj9PMGCSTb2yv/vfFEi/GLBwAUm5wb5ByhnzdIQJmbnPpy/z7zlw8AKCY5J8i5QT9fkMCyvb38/pVTbcYbAABQTHJOkHODfr4gAWZlce7SibfPG28CAECxyLlAzgn6eYIEnOnhya5Dr5wz3gwAgGKQc4CcC/TzAwk8y8vL/3q4Z7jryBvcFQAARSPHfjkHyLlAPz+QguRm183/dfqD+m/1NwcAIExyzJdjv34+IAVN05m2gyfePv+D/kYBAIRBjvFyrNeP/4T83fz8/L9qq+v+P/VHW4bO/O7S/RNvn39y8FfMEwCAvJFjtxzD5Vgux3Q5tssxXj/uFzn/H77bnUvI6hTDAAAAAElFTkSuQmCC;" vertex="1" parent="1">
          <mxGeometry x="33.83" y="270" width="60" height="60" as="geometry" />
        </mxCell>
        <mxCell id="jrJ8sMQovFL2cEqCVLPm-28" value="&lt;b&gt;Dados de IPTU&lt;/b&gt;" style="text;html=1;align=center;verticalAlign=middle;whiteSpace=wrap;rounded=0;" vertex="1" parent="1">
          <mxGeometry x="33.92" y="100" width="60" height="30" as="geometry" />
        </mxCell>
        <mxCell id="jrJ8sMQovFL2cEqCVLPm-30" value="" style="endArrow=classic;html=1;rounded=0;exitX=0.993;exitY=0.488;exitDx=0;exitDy=0;exitPerimeter=0;entryX=0;entryY=0.557;entryDx=0;entryDy=0;entryPerimeter=0;strokeWidth=2;" edge="1" parent="1" source="jrJ8sMQovFL2cEqCVLPm-29" target="jrJ8sMQovFL2cEqCVLPm-21">
          <mxGeometry width="50" height="50" relative="1" as="geometry">
            <mxPoint x="200" y="330" as="sourcePoint" />
            <mxPoint x="250" y="280" as="targetPoint" />
          </mxGeometry>
        </mxCell>
        <mxCell id="jrJ8sMQovFL2cEqCVLPm-31" value="" style="rounded=0;whiteSpace=wrap;html=1;fillColor=none;dashed=1;" vertex="1" parent="1">
          <mxGeometry x="720" y="100" width="72.16" height="260" as="geometry" />
        </mxCell>
        <mxCell id="jrJ8sMQovFL2cEqCVLPm-32" value="&lt;b&gt;Ferramentas de AnÃ¡lise/BI&lt;/b&gt;" style="text;html=1;align=center;verticalAlign=middle;whiteSpace=wrap;rounded=0;" vertex="1" parent="1">
          <mxGeometry x="713.04" y="61" width="86.08" height="30" as="geometry" />
        </mxCell>
        <mxCell id="jrJ8sMQovFL2cEqCVLPm-33" value="" style="shape=image;verticalLabelPosition=bottom;labelBackgroundColor=default;verticalAlign=top;aspect=fixed;imageAspect=0;image=data:image/png,iVBORw0KGgoAAAANSUhEUgAAAOEAAADhCAYAAAA+s9J6AAAAAXNSR0IArs4c6QAAAARnQU1BAACxjwv8YQUAAAAJcEhZcwAADsMAAA7DAcdvqGQAAABmZVhJZklJKgAIAAAAAQBphwQAAQAAABoAAAAAAAAAAwAAkAcABAAAADAyMzABoAMAAQAAAAEAAAAFoAQAAQAAAEQAAAAAAAAAAgABAAIABAAAAFI5OAACAAcABAAAADAxMDAAAAAAIvvHMbnUA7gAAG6xSURBVHhe7b1ndBTXtu+7v74x3ngf3r3j3XvHO+fu887ZezuTc5JEztnY2MYBg8lB5JxzcgBMMjlnMDnYxgFnG1AOIAllhECp1d0V/2/MVd2ielZ1dQtEsnru8d+iqxthterXc60109/+FrGIRSxiEYtYxCIWsYhFLGIRi1jEIhaxiEUsYhGLWMQiFrGIRSxiEQswqF5AkwBdqVLA8+KaCk3TIOuAVwMqdcClA+UAvAAkv3RA0iBep2oQ36dcASpkoFI1/q4C43rg9w+ugNcqOiDTN9GrrgMyHijw9XZG/z69Uvy36oDiLq/6d8TPqGjiz/Q6/t+qqipI5msRi9gjm8crQwcCpKg6JFkVNyTdiKpP9JxhmgGJJgO61yR67BPBrXgAzcXkDpDmA9Yv+rf98gPBTdMUyLIXkuSBBl1I1TUBiKaoUBUJmuQV4n+XTNcUQPFClz22z9OHhRCDkCCNQBixGjfyYASaRwU8ii48md3zAlBNgS5VAt4ywFsCSPcBtQyQfZLKAc3zwJNBE0AoimJARY7M5z1JHgBuzRB5Sr9cygPdr7yPUk8pXIoLHt0DGTIU3//oz5VAlej7+b+33zu7vIqQV1LEfwdU8voPPjwqJRVllV5UeOSQcBGEfvHnIhaxGjcBkbhhHwBlyDC/1/QvMenGJxBKAKTf1/BjejHOX7uNHVezselKJladS8Xsw9cwZtuPGPTZZfRddhrdFp3Ea5OPV+nVSceq9MrEo0J1pxwSqjf1MBpMP4oms0+ixfwziFpyETHLLmPMx19i8ufnMH/Xt1h36hr2Xr2Jc0lFuJpdjt/vSCgGcA9AKYAKgp5g9S1F6UOB/9xkD5bDVjD9EEaWphGrMYPiWyKSZ1AqDU8n02PfslLxeTffDVykAuku4Pdi4IcCYPO3WVh5OgETt13B28uPotusPWg/fTfazTqITvOOotWMw2g18xhaEjxzz6L5/EtotugKmiy5iiZLf0b3JafRbfGpKnVd9GWVuiw8iXZzTyFm9klEzTyONjOOofX0o+Jr9KwT4nrMDNJxxEw/hOjp+xAzbSdipm5F9JTNiJ6yETHj1qL7tC14f+VRzNz1LTZeSsap+GL8kqcgocTwnuQx6b0gb62p/iU1vR8uW8giEEasRk3s09QKqJUlUDwuARvt/+jG9HuNOxUqfs+8j0M/3sSCw7/hvbWX0HHeMTSfegAdFp1Dh6WX0HnF1+i06nt0WPUDopd9hxaLv0HThd+g68ITQgRU58Wn0XHxefH69ksvC8UsulCl6IXnqxS14JxQmwXfI2rhD4hZ/GOV6HHr+d+h5dwraLPoG6HWCy6h5bxzaDnnFFrMOobmMw+jxYxDaDvvJNrOPYa2sw4hZsZ+RE/ZhahJ29BmwmZEjd+Ij+Z/jmU7z+D0L2lIKnSjRDV+dnoPaAkry7JYxtotQe2uRSxi1baqvZtvT1UGIK0COJtQjC2XEoR3e33xYfSYfxCd5xxCu3nHBUhdVn2L7p/+jLaLL1ap3RIfXMuvoOPK7wSU/VecRb/lZ9Bn6Sn0WHJKLEG7LDiOzvOPCU/Zd87OAPWZvaNKvWdtR+dpO9Bl+k50n7UHPefsQ+95B9Br7n4hetxi9km0nPOlUOu5pxA99zRi5p1Bu/mnhZpOOSjUbOohoebTDqPF9CNVipq2F20m7UCbcRvQfvxavLdkLz4/ew1x94Ei+iByu+H1egWI/L2LWMRqxPz7ubsK8H1aMVYd+wUfrDqG3vP2oeeCQ2i69Ec0X/4zolf9jPYf/4KOq6+i4/Kv0W7xBbSdfxpdl55Ft2Xn0HPZWfRafg69lp1B7yVfoueiE+i58CjaLv1agCkAXXLR8JykhaeFWi+4UKVW889XSXi1eefQZtkFtF56Hi0WnUHzhafRbMEp8ZUet1x8Fu3mH0DbeQfRbs4BtJ19EDHTD6DttP2ImXIA0ZP3I3r2kSpFzT6G1rOOi6WxXy/PuIBXZ5xH49nn0HzWSTSdtBstx29Gr7l7MeSzs6ioqBAgkkfk713EIhaWlUCHSyPMaJ9XYYQJZA+F/sRNlQtg/+938P66y4iecxzRiy8LL9d1+WWxfOy28hK6rrhYpS7LLwSo09JzVeq45GyVOiw+I9Rp8dkqdVx0pkp+CP1qv+BUldrN/zJAYknpU8zcEwGKnnM0QFECtiNoM+uwUACEsw5Xqc3MQ0KtZxwUajX9QJVaTttfpddGbsKUfb/jj7vGwRO9Z2LPLPbNCiq8qjiYIlXKD+KX4nU2BzsRq4WmiCiaAk31oLAgWyw9ac+TVwF8m5CHUZ8cxRsL96HjrAOIWXhOLCPFUnPFJeHZzAByCDsvOx82hE4AmiF0ApBDKD40bAAMBaEfwHAgpIOjxiM+Ra8p67HrqzgUeY09I+0X6WDGH1cVCQqUCKBokCQ6VVZFHJX/PiJWC83IiKHonLHsvA/ghxwPlp78FW8s3if2er0Wn0TP1VfEHo+Wm7S/IyDEaaUNgASfX+FA6ASg2QOaIeTwmQE04PMrOIBmCO0ADAfCxuO2in1jszEb0GjICoz+9Bh+ynKBjrDo/SQQaanqT2KQvG7jhJWe99onC0SslhllhkilZeLTm+Jl6y4n4c01J9B99Rm0mH8Y/T/7Hr0+vYoua66i/crvEbPsiti7dV12AX1WXnAEMBwIgwEYDL7qAXg8AD4zgK0JsJmHbJegZvhCQdhy8m4jzDLnSzSYdACvDF2LblM3Y8fXSSL2SFk+fgADY6oAZSPx30fEaqGBskQ04K4KbPwqDZ0XHEDzecfQZcNP6PrF7+Ikk9R2+bcCwHbLvkHXVVfQa/XX6LPmK8vy0w6+cCAMBz4zgHzvxwGkQxZDVu/nB9AMoROAThDSafDLI77AKxMOoe2KH9B42lH87zcWoUPsOqw6/ptIABDZP14Z7vISX4xREQc6/HcRsVpqklsToYf9P2aj96Ij6PHpd+i24Re0WHYBndZfRacV36DHJ1fR89Mf0WXlN+LUU4Qgll1Ct+VWD8jBCwVhMO/H4QsXwAfwGTLDxwFsNeNgyOUnf8whrDNmB5pOP4pmM0+g/qSDwhuK18RuRZ3BK/DJ4SvIrvSl4HkkXz6tAkWOLEUj5jM60bsYfwfvLDssguvd1v2Ctmu+Q7O5R9H700tGmGHZBQEcgUIQUAih24qvhEcMtvz0wxYuhE4A2i07OXwcwjazjvoUHEAOoR1wdtfMEDacchhNJhvXKNjfZuoeNJuwA40m7EajKYfQ+P0F+PTUnyiknHBKcvD6s40iccWI+ey2G5i4/gQ6z96Lfpv+QMyqqyLvsv/ar9Fn6VF0WnSqKsYnvq66hH6ffofua74TBzR2AD4KhE4AcgiDAWgHoR2AZgiDLT3trpkhrD/thAj2R03eiQ6Tt6Dj1O3ioKbx1MMi3zVq4hZ0HPcxdlz4QyxLReKDpyICYW0yOgqnr5SQLB77ckErXG5xgjf36zK8ueFXRM05KZaYr6/7SZyEdlpyQcQCe3/2A2Lmn0TPVZfQ/7NvBTjN5nyJTmv/QKtVv6DF8m/RavFltFt0Ed2WfI1Oiy6h1fyLaL7se7Re+6cI3LeZf7YqGE+HGJTSRgH7DjP22B7M8H0hhzMQzOOImXusSjwkYReCqE4c0O5ai6n7AtR8yt4qNZu8p0oU2H9l/H40nnUaLw7+BOcTigwvWFkIWfKI7CP++4rYX9goTiXq5DylIvmYoMx2AQPW/yygI+B6rfkWfT75Ht1Xfi2Wmz1WfYOoucfR+5Mr6LvuB7SZ9yXe2PQben36LdotPCXUZ/kxvLH8GN5ddgyDlx3F+0uP4c3Fx9BtwWFEzz0kUr/oe9LSlfaUtLztsvS8yNWkFDUOoB2EwQA0PGJwAINBGGoJyiEMBqAZPjsARXbN9EN4YeR2ce2DJbtR5qVfhLEfpNxb/nuK2F/cRIBYQKiIg4IjV1NFBUPnpRcFKH4YCUISecbOS85gwMafEbP0Erp8/D3qT9yNfitOoeOk9Vh67Df8kHEP6WVGFT3tL+8rwB9ZZdh46keMXbMbPRYcQduZB9B5yTlxjN/zkx9EOhjFB7sscY4LOi1NHyxLrRCaQxJOAIYDYbgAmiH0A0iiZHDaHzacsBeNP1qDdcd/qKrKiFgtMQoUe30paCJG5Ss7oqXQ5PXH0H7hWQEceT1aghKQBCN5wph5p9Dv0ytoOHk/+m78HW3mn0GnBccwYetXuJxUgHuKv2WFLrJAvK4KyF5JZInQjUZQbriShQGLDog9E4FEeaK0PKXvT6DZAcjhCw6gAaGdB/SHJeyWoHwPGA6ETgDaeUBSk4m70GLkJyIRvf743Wg2ZT/ajl+H+GLARdXRPo8Ysb+4iYwNXxsII1jsFelTmV6g98ytYglKAIpc0KUXBRx+j9huwRlx4BKz8Aw6LD2HPqvOY9SmS8iQjSP3B0W8vkC0r48L/ZsEPj3K14DTCfdE6hslb9OBRZ91v6D5zOPCGzp5v/AOZawAmk9EwwHQCcJg8JnB4wASfH61HrMWrSduR+uZR9Bo6hE0HL8d4zaeFx9QkCKxwlplBIa/aRO1i/j+toTOs/aIJScBRyASkCI9zbcnFGGIT35A5xUXMfCTCxi07ACuFwP36VtRJXrpXcjUGsLrhSpSsRTR0cWjqKLnkr//DC1Vd3x3S9TnUbiDPC4d0PRYccEWQA5fcAANCLn3C1CI5Sd/HAxCJwC59wuAcOJ2NByxXqS3NZtxDA0mHxK5ptm0VPAdmkWslhiBIhor6TJcGrDr6m1Rv0cxP4KQ4CMRjGYIo1f9iB6rv0K/+btwMSFPeEACS1HoLtIMZ6jT/xmekJLBaTlK6VoaXfZSnQaQ5QGGfHwSAz6+jMYT96DnyovovvhLC4B2EAYD0JwRwwH0hyOcAAwXwmAAmuHjADaesFOIgveNx25BnQ9Xi+Lhf43ahQajN2PThbjI3rC2mYDQ1/GMlkKrTsWJmJ//FJS+UiYMLUn9j2k5SmGI6HknMOKToygWeccaFC8lY2ko91B7C6MaAGolJKkEmk5nfrTs9dNaBKhu3NeB74uANhO3osPcowJGqsxwAjBw72cHoD2E5pggB5ADZ3fNDGG4AJoh9ANIoj44jcZ+gbYTt6DlpJ14ddwe1B+3A+8u3FFV+hSxv7gRD6IphaxB1TyiC5lHA97ccl4U1IaqB4xa8xN6Lj6CY7/cFP1BXZXGwUtVJ6cQRknMwiQJxOyI1bvRYeEhtFpwFu0XGIczTiA+7jhgqOed9oUkOwjNIL428nNETd+JhqM3oFHsDjSlDJuxW9F00HwkFUcgrBVmB2GlAryx+ZyAMFQ9YKulV9B9wQHcuOsrTqWEbzICUKw3nU0cQNCaVVGEY1xx9Ht0WHgA7ZecR9u5BGJwAP2nn8EADAZhqCWoE4ROAHIIuUe0g7DemE1oPXU7mo7dIB43mngAjcdtR9P3FuKb1PIIhLXBzBBquldAWO4FXt94xgIhT8YmRS37Cp1nbBd1hqLBLwX8BYC0DPUB6WAiVYtOTmWjifD+XzMQPWuHOBltP/NkCADtITQvQZ0ADAdC83Xzcxw+M4DBlqV2EDaI3YrmE7ai+fhNaD5xJ+qN24Um43egyeCl2HIhMQJhbTAzhDokAWFJJdBn3ckACO0AJHVY9R2iYteJZaXoxi3T4Y7h2VBJe0Nno8p9sRf1uCCpwIHfbqNp7OdoO/cIus19AKE9gI8/Dmh3jcMXDMBwIGxC18dtRsvxG9Fi4g7UGb0djcbvQuOhqzFl04UIhLXBzBDS6SVBeLcM6PnpMQEhX37yZOx2q75F9IQNyPYCFR462FF9hy4KdLfRAtHJvGKOBUHoEaGRtZcS0GTSFrSesR+9FxlVGXbwPak4IBeHji8/7eBzhHDKPjQcu1FA2GrCNtQZvRUNY/eg0bB1eHPhvgiEtcHsICy4p6HbmsMBEHL4/Gq2+Ct0mrUHV9LuiiP1gPOYMA5mPP5hMipwXwam7f0BUfMOofXso+iz+FwIAB9/HLC6AHLwQkHYYNIeNBizAS3HfY4W4zah4bidqD9+LxqM3ISuM3ZFIKwNZgdhbpGMLqsOCgj58pOXHTVceAU9ln2J5Qe+EocsoibO17QoHAgJXGMPCdzI8WDgymOIWXYWUQvOouuCM44ABgtB1GQc0AyfHYDBlp9+2EJBWHeiAWHzMevQbMx68T0IwoZjtqPj9IgnrBVmB2HOHQmdVx6wQGhX+9d4+U/oufI83prxKXLLFXHQQpFAfxfqUCYGsNBeUge+/DkTbSZtFn1Co5dcRPvZX4YA0B7CmowDBtv7OQFYHQhfi92FhmM3o/moT9B01FrxbwpPOHYXOs86HIGwNhgtBSltjFrZk1G8veC+SwTm/QczTvtCEdBfdk7Mjphz5DpyfABqJbmAlPugq5j47nQI4zs4pVFmlLqmGBUbP+VIIpE7esYB0Qmb2mRQMsCjxgFDQcjB49Dxa9wThoKseeyOKjUbv71KTcdtE2o8YTsajt+KprHb0XDMlqrnGo3chI4RCGuHhYLQCUBSi2kH0XvNN2g/h04z92PnjzmiAkOYUu5rkE9hC0lkxlD3NqKQIPRKugAwuUjClE1nEB27SQBD8FG7eUpqdgIwGIQcwEeBkIt7wnAhtAMwFIQdZh6KQFgb7GEgNC9LqdSJag3p9dTe772Pz4hk7PRSIxAvu33zBil1TfMYU5sotc3nIa/e9mDxgR9ECU/72YfEspMgbDJpL9rPf/Q4YE1CaLcMDQfCYABGIIyYsHAgtPOA/n0hJXO3XXReSOSSTtkjqi9mH/gVXya7qoZtVkpAidvwfPTvJd6TcPy3ZAxaeRxdZ+4Whb3UJpFqFKm6nloFdl7w6HFA/vhhIbQDMBwIgwFIqWmkRrHb0GDcF2gyfpuA0P98wxEbIxDWFgsFoR2A5oZM9Dpqf0+jzag9BUEUM+eomJzUdd4RvDv7C6w5/AvOJpTidFwx1p+Lw8QvzmPA4t1oO2k92s0+LG5mamFBXpX+PgXnqYoiavp+WwCrEwe0u8YBdIKQLz/t4AsHQg6fHYRUPeF/DUHYfsbBCIS1wcKBkHs/s6gtBdX/kUekUieqPxQzBBeeFt3Mei76Et3nH0X7qbvQavxGRE/eLnrHdFtO3vMsOi67LEaOEYDRc78UMNLysvvy8+KQxs77VScOyK8/LIRO8DlBaOf9SI3HfCFES9H6Y7eIekKC0P98BMJaZKEgDAagvyUhJViT56PlI82e6LjwS3EzUxiBWh+2mndSNHzqtPi0WF52mk+paKfRZu4ZtJh1Fm3mnRZ9bAha6ilD+0CCRswxXPhlUAB5CMIOwJqAMNjy0w9buBDaAcghrD9qU9XzDYZvQLvpByIQ1gZ7GAireoIuPiOWggQXDe3ssfA4+q26gN7LzwqYSFFLaVruSbSZQwcoh9B+zjG0n0d7vnNoN/+yWH6SNyWQxfTeiTvFElWAON8ewurEAUM9Xx0I7YCzu+YEoRnACIQRE0YQipCCWiFGOtOpZVGZR0BIswYJEL/sZgXaXeMtCp36xDgnZ4eeHxjqYMYOPD9wduBVNw7YwqRgMUGnfSH1lKlP4PkhHPeFqLRvMHwd2k3fG4GwNtjDQGiGze4aB9CpU5oZQA5hsARtOwidADRD6AQghzCY9wsFIYcv2MloBMKICQsXQjvY/BA6AWj2gOE2a+IJ2sEA9EPoBGC4y04zgKGWoHYQBgPQDB8HUCw7x21DPVqa+iAkACMQ1jILBWGo5abdNSf4qgdg6PmBwQAMBl91AAwHwmBLUA5fsH2hH0LqM1Nv5EYBYKMxm1F/2Fq0nbYnAmFtsHAhDAYbv+YEnxlAvvfjAPIEbbuTUbuDGSf4zADyvR8H0AxfOBA6Aci9n1+NRm8RS9G6o7dUQUgARiCsZRYKQjN8drAF834cvnABNE9OMqYnBcYFzQDS1KRg3o/DFy6AHLxQEAZbfprB4wASfH75IaRsmbojNggAG47ehHoffRaBsLZYdSC0g83uWjD47AC0Lj/tR5fZAWiG0AlAu2Unh49D6IetOhCGA2B1IIyZujsCYW2wcCEM5vH4NScAOYTBALSD0A5AOwidAOQQBgPwYSAMtvx0ArDhqM1iP1hn1OYqCAnACITPmGliaINe9csQFQkipE79XCoFNHaiVxiN551VSiVF/j+7PCLB+vfb5fhwyS70nL4FreYfdlTrec5qNnPfI6nB5B2OenXWcTSIXYc207egwfTdqD9hI1qMXoqYRcfw32ZdsYDo5AntgLMLQfA9IAeRQ+gEInlBEuWO0ukoecIGozaKPWGHmfvF711XNdHRXFLc8KheSNBEUjz93gJulocwX1m1STQlmCpeaHS39Mjf/y9pDxAjXDyA5DIkVwKKG1A9gEY1ez6plY4i72eUGrlFS/qqgTD3vCimKnndWdQhzUle5fGKurx5PRXwuEpQKhnvDnQ3UrLvosfsnY/sCe0g5PA9iifkEJIX5BCSaZoCRVMhkeh991WnBN4d1TfRl8sn/hy9mfxarTTzG1T1bukydE2CTpCJ+eYPrwcV717olfcBLy1ONXhoVCGtUqlfjIOoLcXjFH1GOKmUfgDqzKEZbTVcviVAdhkQNckeQA5fOBAGAzDck1A7AEm0FCUI/XFCDiF9rPB7gobpiK/0q1MqHkn8e0fMxmhaEr/mN11XLYsJv3x+MqQIOZqiRH+HPmFp9SuWprKxVIVE3vYpigbLOIg+kyCXABV3HrR6U7245wGaDfs0bACDQRhsCcrhMwPI4QsGoB9CEkFIIQqCsP7IDQLC9jP2VW0q+O++psy/tdGF3FCFXEIKXI/t332ujJaLXKqqCymK0TzCSf69YTCJIltJbDuhCe/zoEWa8SfyL8+uRN9urQSaK69qn0vXizWgyZh1QZefftjsrtlB6ARgMO9nBo/DRy0NSa+N3CQg9McJhRccuUEczBCENJqAlqL8viCjn5Y+hh9F5tMDTZegaF7RC9ateoX4v1krTVZpQ+6FpMiQZBWK+uCQhgxymejlIqogNJeNaI8YQrLLt0esADz3DUml4ivVVjjJikWguOetrvj34yoQ7RUVeDUPcr1AoW9fmCkBjafssABoBi0cCIMtP/m+zwwghy8YgH4ISQQhnY6aIaS0NVlzQ9HkwN+5gIbe/WLaODyS/J9c5u9PRqPraGQlvx4xk9EbJPluOCfxm5qrwqtWnbRxGc18ydcEl9E75jFKTA8OLvrvFIdKaoWYeSg2h2oZ8grvoevEtUGXnFWQ2TwXDMJwALSDMBiA9UdsrILQH6IQAI74HHWHfiog1MAApFZ16j1o0k0oUrz1l1ZdKXmASuPpSsX7aP63IuYzSRyeGOOsydyyhtyCYsQl3sSPv8ThkzNxWHPqOlae+ANLDv+M+fu+x+xd32D6tkuY+sUFzNz3s6PotfMP/ISJ265g4vbvMH3/b5i48ypit3+P2K1XMHn7VUdN2+asiZuuPJLGf/6Vo4Zs+B0TPruAOV9cwdgNVxG77mvM/OQoxm/4Di9P+io0ZKGet1mChgugGT47AEmv+kAMBmHg3fC3v+mKG7I3B57Ka6is+A5S6dpHkrfkCLylJyGVX4Ls/gmqnABNzYKGImgosfz7z6VJleUBY4/JO5mfL6ETPfI6tCETy8MysceBdA/QKnBTA34oBDb/UISxu35Fr+Xn0Hr+l2hObQGXXLTtAcOr4HkxbvtFp6sUKhjPg/BOwXf79DNr8rVdAnaw9DMehHcKOdgtO/lrOHR2IQi+B+QgcgidQOQwchDrDN+IuiM2idfVG74BDSlgP+xz1Bv6KdpP3yv2a3Sf0LpGFmcAsjHLsWQ8kDcZeuH4RxIKJzlKqfgdUDIAvazqvpUlul9VsQ2QKSwm+uo98KIqhY/EaXXlsw2xONZTvFBF8N0YJ+31unHf5RI/UoEGHP8lDcM/u4gP15zHG8tOoueiE+i06BQ6LL2ADquuoPOnP0QgDAGh3XMBkNpAyOF7nJ7w2YdwDeSyPdDKfjLOCuh2FXEtDZJaRnN/qv77+D1O/6382lMx/4mmEd/z72VMsTrh+VyQZS/uyUCaG1j3bTZ6Lj+D6IXn0G3+CXRfdAq9ll9An9XfoNfH36Db6m/QacXXaLvsUgTCh4DQvOwMBWC4J6GhADRD6AfwWYBQL5joKKXoI1Tmj4MrfzHUksOAGg+AVmmaGKbF7/dn0tweCRKdoKg0fYjAo0wW3yQiXYEkeVDqlVEoA8ev5aP/ogNiXFb0xz+jxcfX0HX1d+ix5gf0+uRH9P7sR/T69KqAkLqaUZezCIShIbTzgKQnEQcM5gFJBN2zDqF2MxZK9hDIhW/Ce38gvOXToFUeBTx3xMEOv9+rzq1pQKzNqetTMYq/0VcDOj+AtJ42Th9vAziXXomhn5xA69iN6LPmEvp9/ivarryCruv/RPTyK4hZdkU0Xeqw7Ct0Wv4Vui6/jG7LL6L7iognDAWhHYD+Q5cnEQe0A5Bg8+tZhxBpM4Gc0UBRfyj3OsJ1pw9chdOg3j8JVCSLEw3z/U4BfxE+UWVbSJ+qCS+oUFDASL6lTJVsD7DomzvouvQ02i08iXe2XUf3NVfQbJrRb7Pr0lPo/PH3htZ8hy6rrqDbim/QbflldF92Gd2WRjxhOBBy72dWsOUn3/eZAeTwhQKQe79nCUItf4KjkDMKyB0B5I0A8odDLRgJuWAcpMIpkO7MANTfAK2wCjaa6qWg1JjY/KxASPtB+koA0n8YeUBqMfhzroxNX6eLYZh91/0oIGs65zQ6rrqC1zf8Ijxir+Un0WH5eXSiVvQrLqLbykvovuIr9FhuqBfNi49A6AhhMAB5KVK4ANpBGAxAM3wcwLrDPhd65iG8MwTIHwE9ZwKQPQPImwEUxELLHwI5703opRsA9y9VsJGDcetlULVnLNum6jBGk4UXzKoE1p5PRKfJm9D/4wvosfIiuq35Dp0/vmosP5deQvdVl9F79UX0WHUOPVadR7cVZ9F12Tl0WXwOnRedR6eF59BxwQMAIxCGD6EfwJqoBwwXQDOEfgCfCwgLxgP546DnjYWeO0oIuWOBfLoeC3fBBKD0tDEe3ZeD7NIrQXc65+CpmWisSy66LE/kYqZrwFsbvhfercO8I6J9PKnbiq+EaL9nFnk/mhHol3lKEikYeH7gQkFmd80PnB14HLpQ8wPt+oKagbMDzw8cye6aE4h8D9hy4p4AtZhAJ6K70TyW9oPhH8wEgzIUmHz5yfXaMGNJaoaw0fANqP/RZ+jgS+Cm+ygohDb7uICDlYJxjkL+mEdT5iRo97tAL//CyKQjf4M7kNUykfDEeXgq5hJZ0BRckVEsA+O3Xkbfz75D20Wn0Xf1uZAQmgHkEDp5v4eF0AlADiF5PEcAawjCYAAG84JmT2gHoB2ETgCaIXQCkENIHpFDx/XcQ5g9EXLhACj3VgCVxQaEuguq8gylwInhmFDEmdEnp35BzIy9YhR078++Q89lJ6oFIZ8TWBMQcgWDzwygf8kZDELzEvRRIQwXwGBLUWcADQidAAy2NOXwmQE0L0s5dFzPPIR5o0NoPOTbo+ApjIVeuc8I6D8rBzJ+g2a0oNh9JQ4dZ+1Cz3U/o83SrzFg48/ovjh8CO0ArEkInbxfMAD9ENp6QN8esKYgdALQzgP694Bm+MwANhtP+0H7gxkn+KoD4F8DwpEhNAxqxhx48wZDKh0KlF4VYULOwVM1evPiC8rx9vLD6Lj8K3T45Bf0WPerAGjA2ishIeTLTzv4HgVCM3xmAPnejwPoP3ixA9B8APOoEAaDzwweB9B8CsrhCwTQejDjBJ8ZQL734wDyw5hgetYh1POGOUrOfgvIXAwt7z24C9pCLtgIuMufLQjpYGba1vPoueoSOq/9HVHLvkL/z38U0PT4+NuwIXSCr6YgDAfAB6eeDyDk3u9xQOgEIPd+ZgUuPQMBbDpuR1Dvx+ELF8BgJ6LB9LxD6L7dF8iZDuQMh5zZEXJOLOD6UfT54Sw8NTudVIKYaTvRY+MNRK28KuJ9fVeeRb9Pr6DFwoshIQy2/PTDVhMQ2i07OXwcQn9LwmAA+kMQNQFhMADN8HEAH3TIdgLwAYROANotOzl8HEIOWzA96xBquUMd5cnpDeR8CGRMAm4NBvLfBErXAnL+swPhm0sOiCyYlqt+Q49N8YiZcwh9lxxFr9WX0Xr599WC0A44u2vVgTDY3s8JwFAQ+gGsCQjDBdAMoTkO6AygFUInADmEwQCsTRBKeb2h5fQFUmcBt2YChV3gKR4PyZUszkI4D4/F/AXK9GeoLsBbCirxprS03T/drYIrqELEAUN6QpuBLWbg/NfM1/mhTLBlqSH7E9BnJQ5oB2GgJ3y6ccBQajicvscmMSr75WHrUGfEejQY/jkafrQW3WcerIJQdNcTj6iNpYrKexQwn2KBist6msmUG0I5HznKWzgI7owhUG4OB3LeB3Jfh/v2SGhFXwKSlz464NE0uH3J3EZDqRrOpiEA/f0fdU8ZoLpFq748CZi77w8rdEyh4oB2AD4MhME8oROAhkd0ALCGIAwGoBm+UACGgtAJwEfxhByq6uqpQ0i5oY6ygmeWXPg+PJlDofkhzOsPT/ZQqHf2AJ4cUOGvpBk9aMXPQQ2l4KlZCIlyv9uVK8tEpQQ9Phd3D68vOmaBjssOQA5fMADDgZArGHz2ANpDaF6CPiqE4QJohpDDFwpCJwDNHtAMIYfPDKB5Ccqhqq6edwi1Ox9BuT0cyCQI3wXy+sJ7exDk/NVA+Te2sFGXN9686pHM3P1M9VVJUGX8vL3fof2swxbouEIBaIbPDKB/z1cdCIPBFxxAA0JbD/iMxAH5Yw5hMACDwVcdAP8SEFKFhJNswAtQIcE3HMgaCuQOAnL6wZv1JuTcqcDdz0WT6gBgRPNiD6iLIDXm4s89tCmm1nCuSg8KZKDf/L3osupbC3RcwZafweAzAxguhMG8X3iHMlYAH0cIgsNnBo8DaIYtXAjDgc8MIN/7cQCrewATTE8dQg4Vk5491FHIGw5kfwRkfwjkvgvkvAE5i0TPTYLqLQZ1iAvgRfOCGpjRMtV8/ZFMMSWqFldIuJxchKgpW9F1U5wFOi4OoBN8HECqgggFoR2AHL7gABoQcu/3OCB0AjAYaOFAGMz7cfjCBbC6ccBQeu4hJABvDwGy3wdy3hNf9ax3oWW+DT3rLXhciYByLwA2auOoGA0zaw5CMskHYpkKLN57ER0WHUfU+tAQBlt+cvjsAKwOhNX3gP6QhD2ANRWCcALQDFhQyEI9HwaAdstODh+HkMP0sHraEOrZQxyl3XYWxQYJOtweBNweDIj94RAgYyC0Wz3hKv3W163NGryvsRAGvMaat9KtiFkOtB8cNO9z9Fn3Leqt+MUCHZcdgHYQ2gEYLoTBAAzc+9kBaA/hsxQHtHveCUInADmEwQCMQGhS+ntAhuH1hEfMGgNkjQZuDQTSO6H83ilAThC9JAQvDu0/H9rKvDTAgZrauOCVFPyU7UG/pcdFP5jolVdDxgGDgRfuns9/zXzdvAQN7Qmd44DRJjkBFwyyUM877QtJoSB73HHAYOD5i3I5VNXVSx+tR6ORn6PJqPV4ZcineHXUNvzzw3WoP3gFZu761hhXR22JUAQvrd+oNUNFCpT7HwC5MyzBdYtoz+YkynZxkH7bWbTsdJKU1xcoz6VPDxEz9HOjyoFL1EcyanJqQFgpGp4e+zULvRcfR8flX6P9qh9DxgFrCkLu/cIB0H/6GQzAYBD6AXwYCJ0A5BByj+gEoROAj+IJHzeE1IGbum23GLcJdYZ/jheHGaPSXnhjNrZeuWnMnaRumXBBJgCpXq/iR8jFw4D8aVbouHKHOcsGvEAIP3AUh45Lzu0HlCWJn4G6z/i50ZTH0N2bWhpSgGLx/u/QbdFJdF55BR1XX7UFMJwlaLgQcgWDzx5AewjNS1AnAMOB0Hzd/ByHzwxgsGVpMAidADR7QDOEHD4zgOEsQWsKQppJ+PL7q9B6gjGV6YWPNokxaf/qMxG/UQdoOsfXNeML1YfT/JGyg5AKRgHUDc1miRkgDh2XDXg1CaFyewBw/xvR8tM8zkFXHtPYNWppP3jlYXRefBodV36HDiu+dQSwpiEMBl9wAB8uDmi377MDzQyhk/cLBmA4EAYDMBh81QHwSUBIe8FXB69B83FbhCd8bdQX4nGbD2ZTi13RnF3TS0WrCFGo59bhLVkBKTcWKBxrhY6LQ8dlA55ZGp10OskGvEANBO7ugi7lBEBnFz98aNNUY51Lm8zUcqDrzN3ouOwy2i+/gg5LL1mWn3bwPSqEwbxf4N4v2CmoFUC7EIQTgE4QcnHo+PLTDr5wIAwHPjOAfO/HATTD9zghJE/YYPg6oReHrkOD8TvxX/1nYdzKnWJlRe5PQaEBIfWtrciB594ko2SIuqD5mi8FEw85WJQ92FEW6Lgs0AUKN9+BUrgAquePmoOOmyYZR6+UQ3om8T5iZuwXHpCa9VKHbA4gB+9RIbQDkMMXHMDQccBQy0/+2AnCcADk4IWCMJj34/CFCyAH77FDOHIDmozeKA5lXhj6ORqM24bX3p6LI9/GGUOHxYnoHeMPCk0w+xqeopHQc439HoeOywIdlw14ZqlZbzuKQ8eF1PfgzRsKqfJsFYR0hhIA0aMaZANCCk2s/vKauMnpQCZmyVeWDtlmCP2w1RSE1feA4cUBnQAMF0K7ZSeHj0Pohy1cCJ0AtFt2cvg4hFWQPAEIG4/agJc//ASvjtwiTku7T9uCLJpVrlNQm6p07hkbQjdNBt8KT+EIoOAjIPNDaDkjHcWD6xbZ7PPM4tBxcei4kDIYrpxe8LgejHnzh11ozrCZpYc2qpqgr9TtbcKWS2i/8CxiVv0oPGGfNaHjgHbXqgthMAAD9352ANpDaI4DcgA5cHbXggHIIQwG4KNA6AQghzAYgE8aQppP/8rQtag/bgf+/s5KjFx/TozLo6GdVKEjicI4WbQU9NxfbBzK3PlABMo5dFwW6LhswAuEcKCjOHRcSB6MsuwYeCq+sIGwhpK4KT5IXwsAtJ24RRTwtltxBR2WXRZghYQwBGT+a+br5iVoaE/4aHHAR4WQg8g9YSjI7EaXmU9EOYQcRLtrZihDQfi4FTNiNf75wXr8Y/wx/GvENsR8tBCZxS7hAWl1VY77UH1eEKW/AXemQ87tCzVnCJCz0Lq85LJZYgbo9nuO4lBx4dabzsp4E2pyX1Te+kAM4lRRJPa6xlRlaxbNQxkV8tLXm26g/eRt6L7mOxOEZ2oMQu79wgHQf/oZDMBgEHIAqwOhE4AcwmDeLxSEdieidrD5IQwGIPeGTwPCl99egqhZX+LfPtiMFwatxIp9l4T3oy0g3ayVuC86WwsI7++DUjgMGlUt5EyGmjvSCh0Xh47LBryahfANAaH71rviZ9BxXxTB1zCERv3gL3kaOkzfiW6rvzUgXH6xRiDkCgafPYD2EJqXoOEA6AQhVzD4zACGWoLaQWgHIMnsAc3A+UFzAvBZgLDO6O14beQO1PloPaKGzDemNksesQUsE1kmFBikLJlMKMXTIeW+DuTMBrLnwZvT3wodF4eOywa8moVwILTUPvDSn10UdDGW2AaENVRhTyOgiOzjfxSgy5wD6Lr6W7Rd/o2AsMuy0zUKYTD4ggP46HFA/jgYhE7eLxiA4UBotwQN5QHNsNldC7YvfBoQNppyAv/+xlK0+nARzvyUaATkaZKD5DFCFOQFqRyo7ACkwiFGi8Gs6dCzJ0PKfcMKHRPf41mU9a6jOHRcFui4Mt6CntYX3ls9gbI/RNxThmossWtsT6gqYu3+2enr6LHwuBjqSRB2Wn6pxiAM5v0C937BTkGtAFYnDmh3LRh8ZgD53o8DaIYvHAjtACSZ4TPD5ocsHPieJoT/e9Ba1P9gOT7ee9GYQq0SejLcnnLodMd6Ab3yNLz3xkHLGwbcHgMtazDk7Heh5I2xHrRwcei4bMCrWQgpkbsPpIwOwL1DvhxSSUCo1+TkJjq7mv7FRfRadkaMODMgvGDMF3xECO0A5PAFB/DR44D8uhOE4QDIwQsFIV9+huMBzbDZXePwPVUIe83ArM1nxRLNU1EqUmQ8Eq2tKEnUBZQXQC5ZAs+dvkDuOCBrGtTbfSHl9IWeN8cKHZOW9b6zMgeFkBW8akF4iwL2fSFntAburBQbXRUu8YFTY+PTqKr+vg4MXX4QfVdcQKdV3yNm2dc1DmH1PWDNxAH5c/x5vvwMBh+H0A9bdSDkAPohDObt/BAGA5Bg44+fNIRjPzmCHGJPN+KCpZVesb2htC5o96DfOwDpbqyYBUheEFljoWf3g5r3toDQUlrExaHjskDHZQWvWhBmDAJu9YOS2cQYteaij5lyI/egpvrMUBcpgvDtudvRb/WlKggpS6amIAwGYODezw5AewirEwcM9XywvZ8TgA8DoXkJaobQDKAdcPwxB87u2pOEkKY1C69QdldASItRmt4lPKErC+47U8VkXHEimkX1etRCYpCYmqtRPSGHjotDx2WBjssKXvUh7AMtsyHkvKFiQq6uGxBSnxnO00NbchnQdtYRtF/5PTosOodey06h85IzouV9KMjsnuevCbYsDQfMmDlHAxTsNDQYZHbXzEvQV6cdRIMZR9Bi+jG0nHoUTSccQqOJB9FwymE0nHEM9aYdQv2pB4QaTt2HRlP3CDWZskuowaQDqD9xf5XqTdhXpbqxewNUZ/yeKr02brfQq2N3Cb0yZmeVXh69o0r8efNzNaGmwz5G048+QaNhn6HeR+vwytD1eHn4Frw2eifqxe5H27Hr8dqHH+NfIzfhhYl78O/vr0add+Zg5c7zqDRy0sSMdx2FoAZI5ACNSXrfQ3Uvshy0WJRNrSWCi0NTXek3+zuKlppOkjLbQ016A0h9H0ruAMBzGxql3+n04VNDnpAs/t6jQ+gEoBlCJwA5hOQR7QB8FAj5QUzzGXvQdMpONIvdhlbjd6D1hD1oMWkfGsbSzb8D0eP2InrMHkSN2YmY0TvRdswOdBi3E11i96DbxH1oP35tgNqN+6xKbcd+GqCYMZ9UKXr0x0JRo9ZUqc3I1UKtR6yqkt21VsNX1pioCr7xqE3CKzccsxWvDt+MF4dsxL+GbMC/hm7GK0M2ocW0w2g4cTf+8/3l6Dx9E/Z8k4ByivsRhDotz6jMh1yED8rKIujlOyCVDbZCx8VDDkwcquqKQ8fFoeMSECa/LiAUtYXuDEDWjYOZmoTw93wN7WYfRbsV36Hj4vMCwi5Lz4YNoROAZg8Y7uGMeVnqBGA4EHLxQ5gOs3eJkW8dZ+xC+6m70G7KXkRP2Yuo6QfFcvfFyTvx8tTdeG3GHtSbuRf1pu/Ca1O34eUJm/Hi+I2oN/lYgOpOOipUZ+IRIfOfSa9NOFylV2MPCb0y/mCVXh53IEAvjd0v9OKYfVV6YfTeGlOj2P14deRW/GPwevzj/c/w0lCqjNiCBqO/QIORW9Bk0nH8z/7L8M83F2La1otILKKMSQJQBsqLIUGme9IIyBOAci704j1Q8qlU6S0rdFw24FUHQpUyWhzEoePi0HHJt9pBTx4ApA6CN7sn4EoFFFU0yK5RCL+7WYH2c46h7fJvBYQ9l34pIIxe/nVICIMBGAy+6gAoFGZWTCgI7U5BSTEzd6PNtB1oOWm78IZivkPsbjSO3YvGE/eh4bi9aBy7H80nH0abqUcQNfUQWk8+YHjMcTvRYvwXQlRPR2o2dnNQNR2zqUpUeWAWJUH7Re0i/PKXCZEoR9Oveh/R8vHR9c8hm/HKyO1oHLsbLSbtQcvY7Wg26nM0GfYJGg9djWZD1mLatqv4KVNCuTiWB3SJMrGpVwzFmCuoZYyRHuNxQSvZAHduf6iZ/YDsWCt0TPrt9xzFoePi0HFx6Lg4dFwEIVLIEw6E93ZHoCIOULwCwhqLE+qqhvNxd9Bh7nHELLsiypd6LDmJrsvOVQvCcOAzA2jZ+wU5mOHw2QHoBCFffvIDmAaT9oll50tjtqHuhH1oPvM4oueeRpuZJ9Fs8mG0mnYMLaYcQbPYfWg0ZhcajtqGRiO2oPHIL9B01APoggFmd90MnB18DUesr9LjBJD00nurxfCWRkPX4JU35+KFXhPR4t15+GDRLizc+y1+SSrAfVp6irokHVCoYQwNdgHuuiTfqQwF5DMhF21F5e0hkLN6ALffBjLDiQNawasWhJlvOIpDx8Wh41JutgNSCcIBcGdEA2W/iFYwFALVUUMHM6qs4PgvWVUQdl56UUzgDRfCYN6PwxcugObJSUIhsmKqAyEHkETLwvrTjqHxrBNoOP0I6ozfgTqjNgvAosZtx38MXoR/DluO18Z8gkYT16HplPVoPmU9mk76FE1iP0bdERsCRNXlosJ82Hohft38nJ1e/WidEFUlkPyPzddeHvJZjan7mFV4b/5WzN5yBl+cvYbzf+YhsUDBfZF8TWE/ik5LgJt6xVDsT0O5qwLlviQP8X+e3yCXTkZ5di9INF7s9kwgZwz0rJ5W6Hgc8PY7zrIBzywlY4CjOHRcHDouTUA4AEjrD9et5kDJD9SfQ0BIo+Q5Tw9liiRj/7cp6DjvBKKXfvPQEDoBaLfs5PBxCKtGlzkAGC6EwUIQpCZTj6LFrBNoPusgGsRuRt1hxsHHgOmbMHbZQZz9OhHf/pKFxPQKFNwD6MOfGhZ5FcDtS4u0k9ge2Vx3et5/jVpP+sX/nvl1NSFiyKVDeLty388jYmAqUOHyGlO6dFl4QnKG/rQ0agGoaXnAvW+Bu8ugFPSGkt0VyBwNZC0AcsZCyu1hDTlYZANetSDs7ygOHReHjktNaycARFpvVKQ3BO59DSilNQ/h7q8SLBB2W37+oSB0ApBDGAxAOwjtAAwHwlBxwKjph0WLhleGrkbbqRsweedlfHkjH9lU++abWOU/dTduUA00mceYziNX3Zh+aXRa6JO/uVGo5/k1v2hOCP/7NS1Bm9joUTMY+qpAnMGTB9To5zMGBhGoJPozAQh3Etw550UQXsv+AMgeDeRPFENYlIz34b79AZQ7I2yg43rLWTbgPXkIXwfSeqE8rR5w7xKg3K9ZCMk2nPoFnRadQutFlwWEneccQhcKUSy6ZAuhHYgP6wkfdxyw5YyjaDVlD1qO34yoiVvQfvpuAWDdSYdRb9Z5/GPQHvSffRIHL92AVFkOaCWA5oLHqxoJyPShX+UebOS/gZ+SNF1ylOHFHOT/+cRNZQTZqT2hhlIoKIYXbgM8+j+q/L6fCb1oN5Q7H8Jb2NJymsnF93hcHCoukTbmIA4VF4fKovSejpJT+gJJrYDknpDS2kK+s1q8F/RWeU2NgB/ZNp/9PSSETgA+iie0A/BRIOQHMV3nHhQdwRpN3Ic288+i1cxjiJ6+D52nbUPM6DU4mvYj4isKDeDI5dEhhK8gzkv5Vz7a6DiabmrKF5QVNyS5Uoh7lict/pnAxV/PJSNf9IBRUSaGX4rr/lNQP5jaPWjS75DL98NbvAye/Enw3B4Bb1boEAOHjotDx8Wh4+LQcVmg40rr4agnBuGOy3HosOAk2iz+ymjuNPewgDB68eWQAJo9oBlCDp8ZQPMS1AnAcCDk4ocwMRM2i79TZ/JRvDTpmMhkoT3fkk0HUFbpRYVOn/i+d5W8HUEo0+1LDSDzqg7/DNGpIMXJqJjFC5W8BDWFfYwyL0/txKHj4tBxGcnIbt94E/qmvg8h+lQShbjXod//EvK9RfAUvwtPUXdIBa9DyxkNZM+xQMfFoePi0HFZ0siYOHRcVAHhKBvwngqEB6+mo9284wJCihN2nXdEQEjNnoIBGAy+6gAo9JjjgA0n7BVpX02nHETUtL14d/lhXI434KIeKP6bTaMbXgBGrRlKoUjF1BrswT6Jlm6itJrODOns8K4hftJR0+JUVVf8+3GJ+B79aOVAZSL0ilPQKtZBKZ8NuWw8lKzJUHPGQcv9CHr+u9AL3gbyBwF5gwG6xkuLmCwtBrlswKuVEJ78I0d4I4KQ0ta6zT9qgTAc+MwAWvZ+TykO+PK0s2g6/Sg6TliPZTvPiGpvscLSNFRUVFSlXhGAXppP7juIoOsa1Xi5fgQqvgfKvgFKLwqvoBQfhlS0H947e+AtnvVUVVk01VHeQmd57o+B994YSMWjodwZBbWA2hGOALJpbh+1oegF5L4J5A4HcscDOSQ6cHkHcmZ/C3RcFui4bMALhPANR3HoLErr7azU7o56YhBeSLxr3PyLvxLd1rovOCYgpI5rwbwfhy9cAJ90HJAOYNpM2Iwvzvwi3jg6dPGWFIrhN7Tlk2UvvF6qBPcv0STI3kx4Kn6Et/w8UDRDNCdC0VRohROhFoyHUjAacv4IIdyd+XhF/76TqJW8k3InOErOmAg5IxZaJpUZ+ft80sDM94A8Ghf2LiBOP6kxEz1HYNIEXGMctaWqgUnNHOQoDh2XfpNifU6yAe95hPCb9DLjZneA0AlAu2Unh49DyEMQdgCGC2GwEASp/UfzceyXDNH7RHg4cQwoGoSg3G2MPFZE9TcdO2cAngtw5S5GSeZH8N79AGreB9DyB0Mv+BAoHAIUfQTcHQYUDwfujbCM8qppqfljHcVbBHLpt0c4CrmzgZxZD5RN/V9mA7dnCWlZBNpwI5yQ/QH0HGMZinyaJTHOAh0Xh46LQ8dlgaqa0lJ7OSulm6OeGITfZ1YaN/zir9BuwRnR5oIgbLfsGwuETgByCIMBaAehHYDhQBgqDvj7H9dQXFbpa78HFHkBl6CR4mJuY2+IQkC9CCV3FuRbg4CCIUDxJGNqUKFJBdOBgplAwWzo+bOElLuxj1Vy0XhH6UXjHKUVjAmhd6HmvwO54B1I+QPhyX8Tlfmvw5XXH+X5/YE71Kh3FPS8cVCzY6FkjYKU9QG8t9+A53YvC3RcHDouDh0Xh6q6skDHZQPeE4eQMuDTyoAec/Yhas5JAWGHuUeFeq68aIEwFIhWT/igR4xdn5hQntAOvIAl6PwLaD5hOzpN3oQWYz8XuZ80S+OVgbNx+IcU44gR96npgvgjxaFFnoieDygl0HNWQM9dbEBVGAv9zmjod0b6vo6GXjDxqYp7Ri7LABWu3BCySaoO0O2hIWTtcGaWnvWOo3DrdWfxkIJFvZ1lE/szS0/u5ig5OQp6XDcgIRrum/8ESr8Wp+cUvpG1GprMRMuxLA/Qc84eA6oFZ9Bx3jF0mn8c3Zads0DoBCCH0PCAVgDtIHQC0AnC+pMOovWU3eg8fSc6zz8mCmb/OfhTLDv8E3Jo9jcqxRtG2SgUBxMfYXQEX5kNeI4ZAObNg54/zYCwcKwBH30tHG+B4kmLQ8dlgY7Lt3cLLhvw/koQ2px4msWh45KToqHHdzEgvPUKUPqDCcIa6juqa5QXAfSdt0ecgradf1oA2HXRl+i48MsAD2iGkMNnBjBwGRocQD+EoQB0grDVjMNoPnEn2s46hJbTD6HxxD3iA6VQbPuMbH8ReBanMrQzLANcRcD985Du+ZeV06AXTPZBON4E32QLFE9aHDouC3RcFui4bMAzy6baPUA24D1RCNN7OcsGvAAIU7o4Sk1qBz2hPfTEKFRmNAHKrwGKIu6nGmv0RMMP6SR+0HIjNkiAdV5wAt2XnBZgcfiqByDtAx/AZ9cnJhiAfuD4Yw4hZb+0n38CdcfuRIvpR9Bqwjb8XAR4RCS6oqobtDBairpvAhVboBXPgJI7xwcekwCAAJxqgeJJi0PHZYGOi8INTuLQMfHx0hbZtBmsXstBG/CeIIRacucQ6ggtPgp6UjQqszoArgwjp5ZyfbUams4EzSP8w8QvLqPLwpNVEIo44dwTQZeffO/HAXxwCGP1fk6NmsywhQMhFdTStZh5p/DC+6ux8ZsMcQCjiKJTgpBSznwAVlRAvb8fUvF7UO9Qw6HFgUvPAAD9soLxJMWh47JAx2UDVgBkNuVFgfV+1thfgGzAe5IQ6mk9nWUTdjBLQOYgJHWFltACanIbVGa/AbhLROKGCGepqCkIXSJhYs2ZBLSffUikr5FoKUo3dnUB5HFAM3wcwFZhLDmdniM1Hb8VjWJ3IHrGAXSdvEF4dRGEpywXUfGQb7hCsRI9DenuWHjyBkHLGwUUTn5wCBMA4MQHS1MbMJ6kOHRcFui4bMCrDoSW4DqXpbtZoNSMtxxlgY7LBryahJCWm05CUneoCY2gpEXBnTsE8NI9RRDWkBckI29RqQOHrhUjesouAR8dzLSde0zEDPnyMxh8HEJ/CMIJQDOEwSAL9XyzCTvEv1fnw9X4LoNIo/zHCnjcLqPolDaEnlJo5Zeh3J8JtWgI1LyJ0HOnQC8a9sATipve5/2qTklHWKB40uLQcVmgY9KzhzjKWlrExKHjsgHvSUKopfZwlk3YwSwOHReSekFNrAcpvTXcebHiUM+AsIb2g2RQy0Qx54UMBS1jtxqHMfNPiBub8kiD7f2cALSD0A5AOwjNgIUDYYtpB/HKiM0YufmK8IIEILx3xBZQzEx30ZTmn+GtiIV09yMR40PhXOHlvDQpVkBIHs+/ByQIxxsAFg21QPGkxaHj4tBxcei4LNBxcei4bMD7S0GY2AdqYl0Dwvypoq0/JfDrlEes1NRyVKFqACD9vobOkzYgasE5tFz6PRpNNw5nQnnCUPMD7eKA5iVoKMg4oDwo33jmOTR492PcyJSgKfSTlIkkbEpJE5VIag700r1w3/kIcuEAoJDGcc2Enj8DKLbe9DUtDg0X8kNpjLPyhjuLUtAcxKsauPgejouXFnHx4DmXJaHaIpvDFpP48pILqR0DpKd0ENKS2wshqa2jpBvdgNRXoKX9X0DhHchuj1hhiXCzu6wGIdSAfC/QZ9Y2xCw8h6YLLqP1vDPioCaUJ3QE8DFBaM6IaTT5MAYuPGy0YhfpaFQFUSkq4+hkFN5foN7/HJWFQ6EUUjbMeIDar+dNhX53lAWamhaHjssKHZcNeGblDnOWDXjPFYRpPR3FoeOyA7A6EGrxBOGrkNP/Ayi+C9UriTMUAaGnhoL1FKLweGVxojj842MCtIYzz6Dj8q9F1owdgOYlqB2EAWGJR4SQX/ND6G9N32TcZqy/mGzs/+ggRiP8aJCxZKzdy3fAWzwPlQVDINOc9IJpQP5cMVdAuzPEAk1Ni0PHZYWOyWaJGSAOHZcNeDULobW8qGZLjazgPQyEdgCGAyESu0JNrgeFpjKVlgr6/H2PoXhqDkKv1ytu4lXHfxNxtyYzv0SXld+g3ezDjgD6IbT1gA7zAzmA4ULIvSCpXexn+LXAYyw9qe8LNWYVfVtKoSqZUO7OgOcOnYgOhUI3Ne0JCcKCcVAKqT7OCk5NikPHZYGOi0PHxaHjsgHPLMsej8sGvOcJQjN8ZgAf7PliQqgTpJTGkLMnAW6PyLiinFEqM6UTeM7TQxlBqPkGhZ6Jv4uoSdsQNf+MqLAnCPnykx/C2AFoPhF9VAjNHtDsBf1DWAYv2ooi31wAVfGI4lxhag7kiq8g+zygVDAKcv5kaPmzgMIZQOFYX3WEFZyaFIeOywIdk547ylE85GCRTbW7WRbouGzAC4TQWuNXnXo/C3RMemoPR/GDFi4OnxnA8CBsB09qa2h3jhgdF+heU2Wj9UdNhSmMqnFVtNdLvA90mrpV5IoSdO3nHLEAyOOAdt7vcUFo9oB+CD/b97VYo8tqCSSvmFtl5IfK1+Ep3gw9/31xGEO1gHL+FCgFU4CiycAd8jIjLdDUtDh0XBw6Lg4dlwU6LhvwzOJVDVwcOi5rfR+XFbwnCaEZPg6gktgWekK0oxAfhcqb7YGyDGiKr++j6ERntDvhPD2UCQhVScwTyFeANxYaaWAUXqA9IV9+8hBEMAD94YiagDCYF6QRZN/9mW90clDvC4/ur5SH5wo8d+cCBSMM6IpmCE/oKRgDvWgMUDQRyHv8GTEcOi4OHRevD+TiwXWLeIYLE4eOi0PHxaGqrjh0XFpKd0epybRnCy4nAMOC8EZzuDK6io2gx39vCcclNj81B6Eue8T3pkTuD9ecEMnQlBjNIbSLA9pBaI4JPiqEPCTBIcy5Y7wvgDElVrSlkLzQXWfhLaI94ESgeA5wdy68BRPhLvgIWvFI4O5kIG+mBZqaFoeOi0PHxaHjskDHZQNebYTQDsCwILzWBJVZvUS8q4JatJo8IbX74jw9lNFeUHLRqY8x+HDT1+nGzT/tIDrM3B8yDmjXpMkOuGCQ2V0zF+m2nLQTLSbtEtepQoJAFNfGbULPufuNaKAvOZSW7GJL6AU896cDOXMsUNS0OFRcloOU6oovL7lslpgBsqlsMItDxcUPWiwSbQWdZFNeVI16P6R2dhRfbnJZ93hMydHA9e5i2Yn0f0JNrgPvHz2gXe8D3GqG4qQXgbuXjGZYwsrECakqgvb5NQMhxdJ0ieYMVIgb+HKGhJipu0X3tXazDjoCGAxCP4DhQhgMwCrgfBA2mWR4Qz+EvecftIFQ80E49bmA0L+3CyYLdFwcOi4b8J4pCG0qGwJkA16NQpgSBcR1BeLbQk95BVpSfch/doJ+nUIbr6L8Zleg9DffbUYHDsUCQjENHPdrCEL/GleuEPvCPAB95u9H14UnRA6pHYTmJagTgOFA6ASgHziqF/RDSMtRqqSnjtr9Fx81IPSdVMkK1Q9qgKTBc38ykDvDAk1Ni0PHxaHj4tBxWaDj4tBx2YD3RCG0yXKpTqkRh46LQ8dlgY5JT24BPbEL9PjO0BKbAomNhVfUbzSBEvcfUPLmAZW5VTmjwB2x3KIOmDU6qZeMvKHbY9QWTtlyXrSL77zkXFAP6N8D2i1B7fZ9oSC0A9APISVp02uaTt5nnI7GbhMQvrn8pNE8MwBCBZAUeEomAJQVYwNOTYpDx8Wh46L2gk6yQMfE93gW2ZQXVa/UyAa8ZwhC817PTnyPxyWlNoec1B5qXGfoN+g0tBmQ2ARafF1IN/4B3DtvhCborEFE0wuMekK5hvJGzaaqalUbwAPfp6DVmPWiB6kdgHYhCCcAnSAMBp8/FOGHkJ5vNmW/L0vmC7SK3YJBa84aCUQBENJ8BQ88pWOfjdNPG/DMoqa6TrIctHBx6LhswHuSEFpKi7h4cJ0rpZOjOHRcHDoud0ozSEltoMV1Am50MiBMrgstuQmkxHZGGxTfjHpZ5MrcMyCsqeRtMn/U32gHaPRiSSmsFMncLeecsvV+AQqx/OSPg0FoByCp1eRdaBq7PQDCxmO3oPWELzB47aVACFXqoO0FZDc8pTQlyF8j+PjEoePi0HFx6Lgs0DHx7mYW2VQ2BMoK3vMEofmk005UFe8kKaU1vAlNoMe1AeI7A4nNICe9CDmtE5A5E5CMLBkxnUsnF+U2RoXLlBxZQyDSMQ99FTEQcS97RH3hyLWn0HTWqaAA8sp4OwDDhTAYgBSGIAibjN9mvG7qAXG90ZjNAsKhn39tAyGNcnbBUzoKyPfXCT4+cei4OHRcas4QR1lKi7g4dFwW6Lis4NUkhJbSIi4eXOeyqXY3i0PHxaHjorYValw94EYTkaKGpMaoTPoX5Mx3gbunoSg0qYQWoiodNRj3mmqE9WiHyHl6KKPFLX0t84oACOAtE4SvOHkdzeedt4XQHAfkAHLg7K6ZIXQC0A5CutZw9Ca0mbgVwzZe8fUPZRAq5fCUjYhAGIHQAh0XkttBu/4qcKMekNIeSG6I0sR/wJM1FqhIgVuW4IYX5fT/dJ8RHKoGnSZz1VTamksyov4iAKkroqyJ6tNTKoA+kz4RgEUvOIt6Ew+Ithd9Fh9F69hNAqYms8+EhCzU8077QlLTKTvRatJuNBu9DS0m7UPDKbvRYPJ2NBnzOYav/UpUTBipaor41BJtDb1uKPcpuTmM9hT+7mpBxKHi4lBZxPt8ctkctgSeftp0ODOJQ1Nd8eA5Fy+itcom7GCSZXnJxA9a/MtMP2SWqgYumxNPs6g/jJOQ9hLcv/SHnvVvQFof4KcGqLxWD96yDeIYhvPyWIzopq+UumZMHtLE4UyuB1iy8ywajt+OdosviMqK5tMOi2ExnWbuRuupe9F4xsmQkPHnnQDkEAqP+LxDaGkxyGUDXgCENmEHkzhU1RWHjssKHZcVvIeF0LzXe2IQJjaHN64utJS2QGojaL80g5zWAlrJryI+z3l5LEYbTvqqSTT2y5jeSmOaXRrwe1oeGo/bKqoqopZ8jYZTDiNqujF4s+Xk3WLWO4eMg2a+bn6Ow2cGMGBZGoHQURwqLjXjTUdx6Lis0DHxkAMTh47LCcCwIEyKdhSHjgtxMdDS/g3ajQGQE16BFPcakDsFqCwXhzGcl8di/n9IFqdABKHXyKChxrka8P6nFwQMLRdcRLO550TAvO3MA2gzdY+oMwwXQifvFwzAvwSEvM8nF4eOiRfZcnHouDh0XBw6Lgt0XDbgVQdCftrph09N6iDEPRsXNeV1EoeOC3FNgZQGIk5Y8WdTuLNeAe78Aegl4v7nvDwW8x+zqookTnyMVADK0TH2iEevFyM6dhPqxu5F9NJvxKy/mJkHjZS2mfaHMXzJaQcg3/txAP0HM889hDZgBUBmE3YIjANawasWhJlvOIpDx2WBjskScmCyHLQwcfjMAIYHYWtHceisehVI7Ag1ri3KE5qIulOUExWFIi7BeXnsRiCKO5oikb6DGjqkGfvJYXEi2XrBBXFIQ3ml1KOUcjqrA2E4AFbBF4HQiAPefsdZNuCZpWQMcBSHjotDx8Wh4+LQWcROO80AKontLcF1Li2hVQhx6AJF7QyRFAXtz+5wZ7SCVvSrkRgq4s1PAUIyyh8V6aQ+kUe8/OdNvLnkEJpNPYS2i86Lqb60N2w1ZU9YENotOzl8HEIqUyI97xDyFoNclpCDRTbgVQvC/o7i0HFx6LgsIQcmXlrE5QRgeBBawaqWkloDifWBG62hZU0DXBR4cEMW/qiGGjmFMhGWUCTxj4lRDUYRggiHiCwaV77YoM47+Is4KW0z77QRNJ+wQzQIDgVhsL2fE4ARCM16y1k24D2PENoB+CQg1BNpyVsHSP53IO1HUapEyWkuWgIi98lAGMqkknyRSHNXAd6evVFMPKJZFXVGb0XLGUcFPAQUeUbaJ1LogtrSU7J19NwvLSByT2gHHqnxhJ1CTSbvQIsJO9F01FY0n7gXDSbvQv1J29B49HoM++xySAg5NFyWFoIWUeaNg3ifTy6bE02z+B6Pi0PFhYyBjuJQcXGoLOL1fVw2SdWBYYfARktc1tPOQHHouDhUXFJ8I1TeaAjXjabwJjaHmtYCelorKAkt4fmjJZD8n8YHQvZekZFGRbsy8qH5SpY4D0/FoNLngoYil4Z0F9B2xDK0nbpTVNVTAJ9AFJX2Mw8JyMgr0p6x9cwjqD/OSLwOBmEw7+cEYf1JO58tCHl3My4b8J4rCHlVA5cNeM8UhDfaQIlrDy2hPbSk5lBTXoWa9Br0uNbAtZ6ojH8JyJgKlF43ErNh5B9T2RJn4alaRXmp0bYFwFdJRWgzYqWAqNHMU2gw6YA4MaUpvyRaqjYYv1MARstVOwBDLUHDhfCjTy89fgjzRjqLQ8dlA16NQsjTyJg4dFy8nYRFHDouG/BqFEKbsEN1QhDqjU7QE9oCya3FAQwV7+K60TsGcfVxP60fUHwK1ASbXCEdRYo0auqUIhU+OyDSIFE6oFG9lQLEXd+lo8GwT9Fk+jHh8SiTptGUQ2g89bAYV01eUuwVp+51BDAcCBtP2i4gbDLyCzSbsEdAWG/iVjQate65gNBSWsRkaTHIZQPe8wQhL7Ll4iEHLg4dF4fOongqZ6oHJL4AxLcEbrwNXBsEkJdM/u/w3N8NyDRz0GiNQj1F/RBCrqHK+ZoyCuJDc+N+SZloqbTqVBzaTd2ORiPWir0gzawgr0jjqlvNNKY60Rhrvvy0gy8UhM1jd1RBWG/ijioIh35y8bFDyItsuXjIgYtDx2WBjssGvJqEUE/r7SweXOeyKS8KDL5bwasehNbYX3XigHJ8M+gJDYDEV4D4l6HFNYaS2BFa2pvQMj8EdLqb74n7SFJpBDZFBcgrVjydOKGd+bMGqoL40FAmi3Y32HbuN/Se+jlixnyCZmM2iKUoeUSamksgUXsMDiAHLxSEjSZus0BYd8IXaDhy7XMBoaWqgYl3N+Pi0HHpNyng7iQb8J4ghLzIlovv8SyyAa86EHoTGgPiBLQ9lKT/QlnK/4HSzPpQ8tcD94y29joq4NVLQW1F6X43ShhKnx0IKysrxX9ISUmJr+CQjm/F+a2wy/F5mLz+GFoOWyHaTlA1fuu5p9AwdpcIaQRbfvphCwfCZuO3o/GILWgauxt1J2x/ohBqOcMdxYPrXBw6Lg4dF4eOywodlw14JmmpvZzFg+tcLNjOxaHjskDHldjSURw6LiWVpuzGiLImObUN3Fk94b27EGplqlGpSxCKpahb3Ev8/n8mjKor/H+mwt8Kj5FJA28JoNwT5R65CrDtai56LjyKl4ZtRMPJB9F61nEBkR2AEQgjED4pCHErBt7Ul+BKeAlqykdA/vegm5YOGstwx1jl+UIRGnKhohg6wUkFRXA/m1Byo2UpgUgHNjSebNvp39B/2kY0GvEpWs7YhzpjdqDRxH1oNuOYqLqgw5x6k4+g7qTD4muLiTscRctcColQi8Omoz8XszIaj1wnGj198PkVqPSOEYRUiiUWyx5AkeC+MwzIsgbPLeL1fVw2S8wA3R4aQtYOZ2bpWe2h3hoOJfd9SFl9gYxxQOYIlCe3QUlGV+i33nGUmj7AWTf7OUpL6+4oPXmAo1SaZOsgKb67o7T4Lo6ik00n4U9SFHC9FRDXDIhvDD2xLpSk16Akv4KSpEYovzUInrvboXmzRa8YhTzfk0rOfhImMms0FV6vLJpS0a4xxwvs/SkLI9afEA2jWoxaiyYjPxMikJqP2yKmAreasA31xu1yVN3RW4RnpK91Rm0W3vHVERvF454rLz46hJbSIi4b8GoQQmR2h5IxHGr+IMjU6fnmSCDzI7jTe8KdMxLIIDAddLNHCHVzVlp7Z6W3DKHGzkpt6KxESqB20ouOkq43g/dGM3jim6IysTFcyY1RltIYZWmNUJreACg5BlR8D0i5Yt1JJ590z8p6KSTtGcmIeVQzuqJS8xs34C43muD4puRmVyhIrgB+zpVx6loetl6Kx6ojVzF3+3mM/+wohi3fg0HLjzjq3eWHMXj1cby95ADeWXoQQz4+Kf48cNE+jNt8+elDaFPtHiAOHfeEGVTNMAJ6wUDIt7sA6YOBzMGQMocAxTsg3Z7qKE/mxBCa7ChvxnhH0QeEk+SMDx5J3vRBjpLSnOUt6gK5+A2o98YD9z8DSs8B5WlAeYU44BQ5aHQz0i5K86dj0raFzjgK/kIQEoByhWiwRJ3O4CsQFse+1KXKt1yl94NE702pBtyTIfp2OEm09KC/r+ii0Q79mb7S3pT+/MgQ8vo+Lg4dk36bBm06yKbNYIBu0r5wBPTCAVCyOgFpbwNZb0MVhaWJvoDVI8icjW8n/nou8SY7yOavVEv8+3H5k5iDifZCJtDE3xEdInx3mu8GonmCdPWJFeo+aav0uMVytOoXq8hQCEaalEsFwr7aRBL/uxR7dBTFJ0WMkmodfX8mEfC699EhtAErADKbw5YA2cT+AsSh430/b30ENWsoUNAHWiYtD98GbveDVjgXkLzw4L6j3CgJIWpRFFwulDqKmhw5icazOskLKYSo121wSdAcRbebmVf/h75bByrFhzgF38n30exmWbym6t57WqVKNW3+H1p8MOmAy6PD62seRQYvLVEftM4QreIkT1XlBrXhdxR5Qf1BdYf5MelpQ2gJrnNZuptxDYOc8T60vF7Q0vsBKe8B2V3guTPL+GHp49tJ/l/Aw4p/Py7ueZ4xuVCCSpTCA5cPa4KN4PUBLEaYkYzG0EZeqN9tWp3Cc2lOP0iFK3Taj837GiB6u5z0qBDy0iIua2kRE4eOywJdoNSswXBnvAnlNlUkvAukDYGW2xYVd8YH1pQ9LvHlH5dGq5BHkOoJIXqNgxSXo/j9REbTmlVFLMjENkah5ahYevuX3wSiSwTp+d99Lg1KmVgWmq/R3Hjjk8aIs1ChsFd9sMcjXOj+oibDNA3KWZXGfpOWpvTGu0sePNbczz2EWvZ7cN3qBymzJ5DyIZA2Alpea5QWjhD7Hb54s8r/qR9M/PWB4stHLv6hV135zwGCic4KnMS/H1fVfaj7yBP00XbFI6ThHjSUQ+Q/+xpGiAbadJKv1tCQz9putDMwNvlGSwCN4Je9qLzzAZA1xFrfx5XzoaN4VQMXD55zIeOdB7pFuZ5vAzffqpKSMMjIY7zVHe70tihP6QR36gdA3jKgZK/xczlJpp83uHSZegcFlzHw0kH8rueqWrLSuk81vpqWyvz3FbG/oIWE0KayIUA24D0WCP0AMgi15LfEbHdk0cFMD3jTe0FKfw/ImiJAVHIGOev2QEd5br/pKDnrDWdl9nWU91ZveG/1hDejG7wZXYyv9Phmf3hvvh6BsDbYsw8hK7QNqHAw0sqQQRC+CWQPhJ71FtSMdyDdfBfetPeBlF7OSu4RQl2dFd8hhCgLxUE0wyGuEUDzHKrUCLjeHLjeMgJhbbDHDaFlj8dlA15QCAPgM0QeEBn9jOezBgHZFMR/C3J6D1QmdwBuvuOs9IGO0lNfd5SW3DuErOVHAaVIqR2BtHZAWgyQHmV8pUwbqidM6R6BsDZYSAhtwg4Bsql2N8sCHZcNeIEQEnhvVImWnn5p6a8LCNVbfaCkvW5AlfUukP0G9Mwu8Ka1QWVaN0d5Ujs5yp3S3lGelLaO8iZFOUpOjRbVCdQ6vkr0OKUd5OQOEQhrgz1uCHlVAxeHjssOQILPL2T1h5LeF1JqX6gEolia9gcyewDpHYAUih06KLm3s5K6OyuRZvI5KL67s250MYZrxrV7IHp8vTtwvWcEwtpgoSDkwXWLeIYLE4eOi0PHhVuvCwWUD6X3q5Jya6CodiAQtZu9gIzeRmJ2el8gpbcBopNSaZCJk1o5K6mZs+KbOyuuMRDXEIiv90D0+AbtF1tEIKwN9jxAGAxANa0v5PR3od0cCD2zn+H9hAckD9YfiB8Az82Bzkrv7ygpraejKhM6OcodH+Mob2I7eJNi4E1uA29yK+MrPU7sBG9C5wiEtcFECpKAkAJTlORBgdoKuArfBTI/sCwvLbKpbDCLQ8XFe7pYxIZmWmUdJxYg3ueTy6a5UoAoFELL3rRuUNJi4EltLfZxakp7aCldgOR3gKTXfUvXrgDNf0joAD2+I/T4zqbiWn9zJX9rCX9RbZuqdvN6UnPf9SiA5r0ndIpAWBvsLw8h727GxaFjUhO7QE3qBDmpPaTEdkL0WBPAdQcyG0C/VQ96Wh3oyfWhJzcCklsANK8vjdoFRiCMWAh77iG0GScWIA4dlw14ZnkSWsET3xpyQjtoCXTY0g1I6gakUAihI7xx7SAndICW3BlI7gQkt4ca1wbyn83h/b1pBMKIhbZQEPI9nkU25UUBpUY24D1PEMopMWLpaQBGAfqOQCrF85oD6Y2Mue3UjSylO5DS0wjwU5D+Wivg9yYRCCMW2p53CPkoMYt4i0EumzaDAS0Had9IsJLnSzY6UaupTeG92QCuW3WBm/+AlvoSPEn14Y5vKlpF6CILpj6Q8GoEwoiFtlAQ8u5mFvGqBous4D1PEGqpfcT+j0AiWJSkaLjTuqE8YyBKbw8Gbn4KZK4Hsj+HlrMK6u0pUG++DiWxAeQb/x6BMGKh7XmHkI8Ss4i3GOSyaTMY0HJQjCCL8UFC89nfgpazBFrRCaglv0O0WqGaIqoEo2oIFAHur4Ci1VBzxkUgjFhoi0BoBS9AaW2BlJZASgsgrTuQMw0ovmgUeFJrIGTAg2LRc7rcV8NHDZFEX0CpPAJhxEKbTLcNxek1yWhvo3tALTXc+YOAWwSZFZxADXSUOdBuJ9zq5ywecuDy79l8Mi81CTK+vOTiU4wsSngL0vX/gJLZGCjZCVd5JTy+/k/+znjOlg8UHIfyexPgz/8TSOsMJbkdPPEvAMl9fcNWWooeoHSqKolZDw2gpbYEbkZyR2uFPfcQOgBYIxDG9RCDMpH7HlD5LSSv0WFFdC5XxPrT0RQalll2HUh9H7jxv4Ck1iKc4Y2rC8SRl7SDsBG01NZAeiRjplbYo0KoZrzpKA4dl2WoJhcPOXDZQGhebnLouCzQManxdBr6BnBvJ6CUiEm01PaClu1iLnsIq6Q1K8FatBNaciMo8dSwt5fxfa+94pt45IMwvrUAXkCYEgWkR0qZaoX9FSC084Ak80z3YOKjxLi8ifWB3NmAK0O0nCAIVVRAQSU8oR2h2CeKA5vKNGi334InoQ70uB5AXGcoCX83QRgNNb6lD8Im0ETGTZ8IhLXBnjqEfKgmkyXkwGUDoHGiaYhDx8Wh45JS6gPF2wSA1APJ2AzeFw2xaFkayqhRs1i1UsflosWQ0hpBu06HLj2g3/wv6AmNDAgTo6DGN4cU3wBKQlMjAyd1QATC2mCPCqFy6w1Hcei4OHRcFui4bLxfgJI6OKrq9DKI5KSmQNkJ0b5QeD7RipA65GlhQUivod5NIoRx/xCU9BbQrjUEErpBzagDPb4JkECnpVFQE5o+gJBS45LfjUBYG+xZh9AScuAKAqCS1EWIQ8fFoeOSbrQCys+JFWWFCOXQ8Evq52kAFtJUel+plSANtP0RSgrNe/8vIKk9ylKaQI9v6oOwtQ/CelASmkNLpP43H0QgrA32tCG0TLZlskDHZQOhH8CagNDze5SAkBxZuV4O6MWA2yCQunKGNDHOoNiIxRbFwZsQDST8LyA5BnduNGcQNgmEMOnDCIS1wWQKKosZGAo0mg4lAs00AfIEpKyOUG59KAaueNOHwpX6pmjHh/wBQM4HQPoIK1Tc0/GDFi5e38dlk1Rtlp7SwVH8tJOLQ8clZ7YAio6IxsnkzFw06lymt6hMLDE9ejF0OgH1D3Wg0CFF7H0ZNDQ0U7ynlRJQdAKerL5wpfwdUuJLou4QvzcS5VHlmS1RnvB/A3+8A/zeE3eS/gegxEcgrA0m02mDD0Jdd4vTP3EjlV2GnP0WtFsDgMx3od56H960NyEROLdfBzIHQU973wIdlwU6Ll7VwGUD3pOEsPjG/wYKtonsGGpSXaYXC8aMM5py6Ea60QNpKnTaN4pXuSFRLo2gtwR6/iK4U419H2XK6EkUwG8EObEjym82gzvpv4A/OwF/NEPZzRhATotAWBtMElOajPuHbh4BId1h5Teg5M+GfrMTkNkHyHwDSBsgmin5p9h606zQcfE9nkUcOi4b8GoUwqp0Mnvd/+NFIHcsUFrgS1MrgBclYj/owV3RMZ4GZtEbSGF8ms+gosynCjF5TLyfpb9By+gFKe7fgT/bAfG9Iae+CtyoK05paTCnktwcuPESlLj/AAoWA1J+BMLaYHJV7qjvEMEPYUU+lKJd0NM6Are6ABkUl3sdSH0LaurbkKhDdAYds1vBe5IQ8j6eXDzkwMWh46LAupTRGChcZiRq+5aitD+kh0qFDtmrQdWNAD4NJDOGiOmgGSIil9RbBCV/JZSkesCf/58xojq+K7xUhZ9QV3xYVCY2EjWJUvz/I5arqPgVUMojENYGU+g2IQBpCapLxjAheuzxQiu/CuXmIGg3+xggUppY6ttA2ntQMgZAzu5ugc4im8OWAPHSIi6bLBezOHRcHDquBwnV9kJKH1QmvgzP7dZAxVdG9F2ht8slBvSIxHdayhstsoSHpJAgZdMovnWr+/5elKV3gnKjPnC9CXCjoQhNeOOpTUY9ICUKUlxTILkPXMn/LyputwMkol2OQFgbjD65BXl0kKB5oIrhkWJrA03Kgp63EkrWKCg0v12AOBBI+0AE4pWc0J7QAh0Xh47LBjyz1CTq+RJcfI9nkQ14Zqnxr8F7rR08KfWg570B3E0yptuKPTStNcsEeuT1CD7fytT4JFPcQMkfcOcMxr3k/4Qc1wqIpxYZL0CNfwnajf6QUhpDS6S2h+R1u6LiZjNId1dEhsHUJhMQ+k/0dNrPuIwAs7iXSoCKq1AK1sCd+Tq0jA7ALVpivg81/U14s0J7Qi21l7N4aRGXTZaLWRw6Lgt0XL6SomCS4/4L2rWOkK9Hw5tSF2rme8DdU4D7FqDepM0eNNUDSYUAUXCJO4D3J8B1AkgfKQL0nrQXRKsMJakTpIRXoCXUAeJ6wZ3SAnLCK0YaW1wLuDMHARUJEQBrk9EY5AcQlov9jn+unUq7Hq0Y6v29qLj9NqTMtkAG7eXehZz6JirTu1qg47JAx8Wh47IB70lCiLTW0OPqQ/m1E9RrbVCZ/t9Rcqs13Hk7APkPOvYU5Kk+kZuUK75B6e0FKEwYCPWPvwNJLwMZzSHfikFZcitUxDcUKWpI7IjKlDbwxv1TdOP23qgDD02TolyAv8oo6og9utHKS0E8vPfmw5PW02jzd+t9IGsoJOrJmdMfenZfKNldId/uBCmjE5T07lCT+0Kjfpw87sekJ3dzFN/jcfE9HhcVyz5NUV8aLbEZPAkN4ElqCCW1BdTUKChJUfDQ8vS3BnD/+neUpTaFWr4W0CrFZHRaiSgojIAYsb/9zUjNqgA8V4GCFfAmD4DrRhS0tM5A3kCoqQOhpAwQsyC8qT3gTaUmudQFu5el3s9OHDouDh0Xh46LQ/GkhbiBRigk5TXISS/CG9cQ0o020OJjgOQoKNf/Di+VMeUsATxxgKYZ5VK6DAWlEQgj9re/ieRj/+mpOwHu3DkoTmgDT3ITIJva/L0JJA+EljgQauIAKEl9RXMkPaMHcLubBTouPaWLozh0XEiKdhSH4kkLN2iGYRSQ3BBIotkTMdCvtYMW1wRa4otwZdSDmjcXKMk09gAigYlKpUqhaUoEwoj97W+UJULBaPoqmqdIVyEXLhCeT4lvA2R0A25RDLGfKL0RooD+rV6QM7pboOOikh0n8T0eF4/rcXEonrSU+H+Der0ucK0jcKOPr3FwS8jxr8F17V/wls0F3N8Zp9OSUa8I3BPZNvx3EbFaanTUToFoyRcHE8d/3jQgfz0q4t+CktEK+q1o0Q8F6V18hbZ9IKf1gzutnzXkwMQPWrg4dFw8pMDFoXjSkhP/G9TrDYHfuwN/xkBL/Bfkm/+CnNEL6s3pgJLtqzrUaCUKVaS8GR6QNob89xGxWmhGdUUFJJTArejQ6MSAaKxMgnxnJ0rSB8CV1gcSZa+kxIgZDFpqJ0ipveFOfcMCHReHiktJbOsoo1OZk6xgPElReZJI1I5vC2/cSyiJ/x8ozYiGfvcLiuIbqwzx2VYCnZK9fQCK9z4SK4wYmZEPKYvMSKoQFxCKJZMHOu5Cyj8MOWct1IyxUFO6Q0tqCSW5JaTUjvBSPSAPOTBx6Lg4dFz8pn/mFN9NHBDpyS3Eh5OcMR4qVWXIhWLpKZP3E28pNU0MXIJqWkUEwoj97W8UvFcpe8ZfOiDyI0vhhWYkJ8uyCC6jYIMYV01JyFJSA0jprSFldLFAx8Wh4+LQcVlu+mdMckIMpIQ64oMJWYuBkjsitEgxxRIUQIJb5JpShpIvLmEsRcUpzb0IhBELbWI7IyL7MuBKQGXBNrhujQLSOwEZNCasM5BEc/yM006VvEF6O0g3o+Gh/WRSb+gJXSHfiIH3ektIcc2hJbUGbrYDMijFq41PrYDEFkA8Tb9tAlAbQlJiM2fR4VGVWgF0YlmlZsCfrYEbrYH41sb3T24qxpupiXUhJ9aBer0+lOsNIcc1gjehCbzJLcSMwsp0CtxHi8GeUlIrqAltgLg2AFXi/9kc+KMh8Ed9FCW+j8r8lYD0swjsVwX1feVj/P2MWMSqbeJEjz7FxUaR9jRJgHQKOsUUU8dButESCt3gqdHGeOqbHcXcPiTREM2OqEx4DXJKM+M6Tdul+fSp/aAkdIH7Wjvj71HnseT20BM7QY3rDPV6NyjXukP5s4dokuQoAs+sAAhbGDMjEhrCG1cfnhsN4L3RCJ74xpASm0NOagE9rZVoxKunNIea0AhqXD0o11+F9OdLkH5/0ffB0ADS9ZdR8ecLKI9/De7UKKi3+wKF7wOVFwH1mnhv/AUqlOKmiyz5yAloxGrAKLXNC4/IOPWATlHJLZZA92ZAuvsnkDMPuD0B+s13oaZ2g0blQQnkeWKA+PZABmXOdIGSHANvfAt44ppDjqelXCsjzJDWyqc20NLaQE2PFpLT2wpZIONi0HHR96IJvFJyW0gJHSDHd4YS3wtI6Askvi4qHaS4TtDiOgFx7YHrbYHrMcB16hUTBfz2KnDtn/Ak/CfKb9ZDed5AVN5fB9l9A7rsMTZ9RiKuf7XpW27SiYw3AmHEHt2MHpxuuKGJeoIyBXDRAY6/RpGWq+V5QMleKEXD4c3tAOlmWygJfaBf/wCeG9FQaamZ1hTIaAjcqg+kNjaWitdbGsHuG52hxXUQHlVKbApvcgN4kl+FO+Vltty0kTidJDXziXnC1LpCSKN/tyGQQn1A60OPrwvt+muGpyPR6+Ppv6cl9OutoF1rBfVPOoCqJ6YwIfsT4M6fQAV15jbCfrRnVt1GXyi3bKTn+iGMWMRqzLyuMuimzA7KsHFLRjkcxfZFjxWjAM8A8v5d6HdOwFsQC1dhZ1Qk/U9UJrwA7/XWkP/oCf33PsAfHQCKrcX9AyCvFN8TiOsmYMT1jtD+bAv5jzZCFs/HlUgdrxsbqoKRgPK/huZN+NPcaF9IWS0NgBuvQb/2EvDzP4DfXgSu14Ga1BjSrVZw57aHq6ALKop6QMnPAe5R1USF0Q7RKLMXh1kuSsSmwl5ql6h7IKNSJMXT+0QvUysiQEasBkzAxYLKdIFaZaiqC2WiV7XhGcTWUYQ33ICaDyjpQP41IPsY5FvTUZ7cFffj6qPsBu3P2kK90QdKyr9BSf479OR/QE98RXgp43CGDlSiRbcyJ4nXC/lgDICQDlLa+DxbSyjXmkG63gxyfDOoiS3ESa+S9H9CSf1PaHRIlDsTuPslUJZnuDWP4dlEIbT/RxPmga7dhabliWp7Ak8R/WjKRFMo//ukeiMQRqyGTbSoFp7ggRQ6ERQ3oQxJ04Vn8J8QilNCrQKiUQvtnbyVgCtRLF2lu7GoKOyLe6ntUZIWg/LUKFSmtoA3pTHU5PrQkusASTQJt5GjkESvo6ErBKLfGz6A0JX4n6hM+hcqkuugPKU5ym92huv2AHjzBkMuHA7cywRKcoGyIqCyHJB9PUR9y20j24yCDHchIQcKCnwlYP6Qjv+9oE8r4xOLv28Ri9gjmdHdTyPfBw2quMHo4I+YItHhg5A4sDEC/1QfQK0hKknCb1A3a/p/Wq/63Avd3fTN72cD9xKBom+AvO1AzlwgYzD0dAp3tBZTjZxEoAoQ/d6QQain0/dbBeTuBO5eBkqTgYqSKk/nr600PDn9h9EjCqyLHbCQ/70QJUiq8Z9PR1WVyPNzV/XV/1pZc8OtRnrIROwvYGpFEVTXHSiubCiVtyBXJouTSdnzO2TPr5DlDChKDhQ5H4pUDFUqh+qVoHo0qB49AkHEIvaoJnq5kETDJep/Rt6JqhDoQKgIqn4Hml4MTafSoAqj07iqidgm/14Ri1jEHoOZ92KR/VjEIvYYTThE1RAlmvvFXxexiEWsho0mHpH49YhFLGJPyCjuZpRbGSevhgwwSeK0kjykb+uo6poAlk5y/ae5EYtYxB7BquJwFB/wSczU8Em0pzcpAl7EIvaEzChZp2QBSis3Usspzmf4P8MbRixiEYtYxMKw/x98vNesy2aIFgAAAABJRU5ErkJggg==;" vertex="1" parent="1">
          <mxGeometry x="731.5799999999999" y="120.5" width="49" height="49" as="geometry" />
        </mxCell>
        <mxCell id="jrJ8sMQovFL2cEqCVLPm-34" value="" style="shape=image;verticalLabelPosition=bottom;labelBackgroundColor=default;verticalAlign=top;aspect=fixed;imageAspect=0;image=data:image/png,iVBORw0KGgoAAAANSUhEUgAAAOEAAADhCAYAAAA+s9J6AAAAAXNSR0IArs4c6QAAAARnQU1BAACxjwv8YQUAAAAJcEhZcwAADsMAAA7DAcdvqGQAAABmZVhJZklJKgAIAAAAAQBphwQAAQAAABoAAAAAAAAAAwAAkAcABAAAADAyMzABoAMAAQAAAAEAAAAFoAQAAQAAAEQAAAAAAAAAAgABAAIABAAAAFI5OAACAAcABAAAADAxMDAAAAAAIvvHMbnUA7gAACxeSURBVHhe7Z3Pi23LVcfvnyDoyIkjZxevNDTNFTHwQATJ4OFEBDMwfdP9GgnBEAkRFIlBTSIJmMFTgtEESdDBAwOBJyKPgAZFwR8ExCg4iMgbRHgIDgxCy2fds9r91l6rdlXt2mf/6PrC4t5z+uzaVbXWt2rVql9P7js6OlbFE/tFR0fHedFJ2NGxMjoJOzpWRhUJ/+e7/3v/N//4r/ef/cJX71+9+9T997/yofsnFzf3T569uH/y/O7+Pe/7+P0vf/Yr919762/v3/mv/7aPd3TsBtgvdow9P/+ZXxX7Fju/uBG7x/7hAXyAFzUoIiEv+dIbb73MDKR7ficZQX7gx3/hQfj8fe/54P2Ty1v5lwL8+9v/aZPr6NgssFfsdmjHnp1LBwQxL26EF/CjlIzZJITpP/Tqx+6fXL0k3jAzU0ImKcTvfuVPbbIdHZsDdirke343suWUCCGv7oQn8CUXWSSku9Xu1764RMgg3XdpS9HRcQ5gl9gndmptt0R0eAZvcjBJQrpkErQvqpXv/dGXY8Y+VuzYErBH7BL7tDZbK7ix8GcKSRJKD3h5O0pc5cEfvrx9OVg9DVjV/bS/V6GgP/Xzv2Vf19GxGrDHFAHVPX0IQCLY/SkuYn+vktMjhiT8+l9/M+wBhXyXt+L7MhD95re+LS0J8s//9h8STaJQKReWLv83f+cN+9qOjrMDO4zGf+paYs/YNfatto7dM36UWMnlbWzrFzfJMaJLQnxjEvYS1SgRGZoCGf6J618PC/jk6bUUpKNjLWB/2KG1TbHP53div9jxFOCDzgrYdPgePkWxEJeE9G7e4JQXEIYtnW547Vc+7xKR9BgId3SsBezPIw72it2WAF7ADze9qzvhlYcRCWErCdlekM9IKQEVdOdu5i5vs1qajo7WwO68mAd2WhuzgB/KFcsfeOX1hiMS4rt6Y0Eym+OCRnj7O++4JGQw3MeGHWsAu/OCMdhpbWcD4IlH7mhsOCIhkRybMfVp58IrNGkTGqaF2It0xLB1tWXB7myPhRvaolPwYiqk7UVKRyTUtaD24cifLYEMgp2xIUJX7QkVtTWhjhgvoCxatsc650m5KT/1QH1QL7autiDWplSsDaqttxgeETW1tg6vPDd3RELPn6VrbRHFpPXxWgjN4J7kYd7o8vb+B3/yFx/V+liGFpSXcutcmUbN9ySeDaaimCWQDse4pPpOixEJ3fHgsxfNWntaJq8C9iyURwj57IX0Ci2UuEVQLplTO+2WOaIesc8WgC/Uk30H/LIYk9B7sJMwWzBOWtMWnsOWQHlkUjoYThxBzkLCZy/sTx0SOpUMe1v4ySByR48k0jNe3cmqoyNAVk8dsOezou5oC8j0h+NV4rZbjEjo9VQoYM70hIIxkzdN8eDOXe1IJtbHKhG9kPSeIFNWEwR8GB/bOtqyBGWaOz2hkGkKJzDj9bQjEupGRpsxL6pTClmJ42SMSBUtx5TgEm1BMEzKIutjE2SkbEgLpa4BbTQ9Y1W7oPzUA/VBvdi6Wkus7XjiLUqhPC1mArzFKXz2dlWMSJiaaCTjtWBQ7xWajH3o137P/nw3oE7e/7HXpXW1dabla9GArQHPkB7s4epOyj3HJtYGdmfLp53CnOAajYDnikYLXkYkZEBpiaKZYzFrLaKV6mTsCGMn6eWdipcyXty4lb9lSGOcKM8ff+0v7CO7g4x1ncYTO50zYQ9PIg55Ac4RCYFs5PUIU7GoFUQGSqaYazoKIsPdYznJr2dIe2xQUkiVs8YtjTYr8J3nigKXhNE6T02MlRH8ZgoP80qOYWpBj6RQcIQeX3oIb0gSLLvaM6KGU+0zd96X8bMcjeHoHkkFfFwSAll243TVmiBCBvF/bSZ52cOpbIlM7XWslMIRxr605rYRbjFW2iqSY9/nd1Ju7NmSiLrA/uGBcsI+L2lc3SUPOQtJCGC2XXA9FP5GJplb0XV6/J/M8L01RBX9Pqc33SOiKHCrJVFLIlpa2CpquEVgh5TXlnmoO8qPXVtb5/spjkztmU2SUFeap16imRyK/bv9LYWhBTkqdE+ZLTsK23o0kfzZBkT1ZnuCIwF7xC49vdl6yLV1PdRsquFNkhAQzZH5sMA1LREt5JEJqHAXPVzebn7yXibnnYXHuGRHB3apnYS13VKBL/DGi4ZaTJJQIQGHp9dVGaRgDHLJ1FFdUIv3feRzo7pCMVsPREmgwjS4lIPyPAZgn1OHlKVEhmJPr4umOLJJCHBVJIMZR71pi4JCCQNv3fhawwtuUGdbn18jf9YdpRw1U1N7BvYqW7Wu/n+blrXxoa1TZ/ACfpQOOYpIqOAlMB2XS4yLtXicxwg5T+f2474QDdxLWL41OgmPAewXO8aepVM52bjY+8ljgAfwoZR8iioSDkH3zcvxpxlP8H8G8FOD0aOjk/BYwJ6xa+xb18jy/xbDq9kk7PDRSdiRi07ChdBJ2JGLTsKF0EnYkYtOwoXQSdiRi07ChdBJ2JGLTsKF0EnYkYtOwoXQSdiRi07ChRCRcOsrh7wDijoJl8VhSciEKnu4OAeF4wbsEehLC0uehoaMsLyJ7S/2t1sSbxsTQnnsb5cW9Ib+0OPWF77PwaFIyIoG3WApy4pWPJ7dGvGQiFsXm+c18y66PF1Tzf+PeN3AIUjIkiKOXdDzJK3xdDmOyEby01XrR1kauXsS0iqygLaT73EJ+kbvR+gVd01C3Q1tAyBdHoeoq7r3TeK7JSEtIApg3GCVo6JjClyY7/mR2y47E/SmY3qr26GOsYM994i7JKGefRP1gCgGJf7Yi8/cf+Azb97/0pf//v4Tf/IvXXYm6A39oUf0GZERO8g5y2Wr2CUJJQgTjAFpPVHaZ//87fsv/9P9/R99617+7bJPUf2hT/QaHTqGPez1TNTdkVDc0ODQKRREy6mK+8NvdjmKKCHRb0jEq326pbsjIfNEnhKGBLQK7HIcSRGR3jA6an7L2B0JvXEgYwVclU7AxyHoGX17Y0TsY2/YFQnlTEzn3gAG7ToGtArrcjzRMSJ6t7aAfextiduuSCj3YzjHy9Mqbo2ANrDw+3/33XcJvxkGjezz55BhHvls8zjM/1p5jIT8eL0h9pG692GL2BUJvZ0JfN7SWFAN9/VvvHP/kS/81f2rH/2iGMsP//THZRE0wiJpvnvvhz9//8HXvy6t+jmDSZpH3sv7yQf5IV+aR/LLd+SfclCec+ZxSnRs6NnD3nZ87IqE3uWLDNCZT1rbONSwyYu20ORtuBh52Hur6IQ0Ro+xL9nraNq8h/fpQoacPKrHQfm2QEbeT15sgIZ8zrnMdg3sioRsb7EkZFzAxO6aRsG7P/3mt6UnSU0qp4RndIyzRKOiRqt1NiePlJPyts5jifBu9G7HheQRO9kTOglniL7zZz/xRrVhW1FDxw3UcZl9b4nwPOmQXus8Um59h33v0tJJuBK2REI1bl1SZQ11ruBm4TIyFqstG8/xPOlYt62FUG7K36KxKJVOwpWwFRIqAXVcZY1zaBC60n8kmReNIDVEVAJqGjbtUR5PezGtTOVRx7PnJmIn4UrYCgkReoAUATFgooxcJsK5LWy3YUmV3mfwZ3/5D7K6Q297teUaGhXplBBRCchzqXR5L+8nH1x8oveIIOSXfJN/uZ0oWKuLUA/Uh83HktJJuBK2QEIigzoGtMaoBokwV5VzQSQr/znhTJ+16en3r7z2uVFeUvLKa7+dTI9/eW/OzgPKQXm0bDY9RMeI55oq6iRcCWuTMFK8Cr0F4fGaRcQYOocaRYvTeSdzelNGzt/5XZjHqzt5T04DYUG5KF/UK25BF52EC2NtEmLg0WlkGGaL22zlRuSAiARXUm6puqFREEbPZpkLyukRkXqhfqYaihbSSXhquRlHsIfrI7/xB6IYhNUKKJrxRE2PkMKaJCR95tms0hFctFfvPmWzWw3q0zNyec9HvxgaOd/zd89lJD3SbQXK672H+llintPKOUmIHWPP2DX2rbZOfWL/8KDGs1AUk5ABO4N1Gdifrs3WsYKKRNZO0TauD2514O2aJMTAvbWKfEbO0eBoeXXtqRW+t0a5pGFq2e27zrGj5RwkxG7lenhs+WTPrq1fvpx/hRc1591kk/BhzHLKiFV0JJLRq5cnY9VkcAjPMM9BQtJmnaVXbupjiQXD0Y4RXE1d3mbzyPeeK7rUzoIvvfFW2GMvvatlSRJSV3KC32kayZYvEiVl6Zg7i4R0t6UZsiI959PrWWOStUhIq46BW4VruYgyEt7PiTSWAGXaOo96mqin5nnSaQnKSXkpt32f6oT6snlsKUuRUI5OeXrtlitXtOOBNzmYJKFcEHIVz2OVCq1y7djk3CTEiHDxGOMwIW3f/VCmwQnRjBXoIVq4p8wlekEa5u2sS8pn7+h9nieduaA8lIvyiZGdTji370OoJ+qLeiNfS5BxCRLKWNzxPmpEOp3L26wLgJIkFCO4HLf+Q3nwi43fbH83FH5XcwzBuUhIWhgPW2UwbN5h3xuJ1gf/otQ5ZHz7O++M0td3DN29lLuMkE4tyD/lGJbLpu8J9UW9UX/UY+sVNa1JiD16Dd5Qqmz98nayEQxJKAcqnQacNmFJ/LSsSVt+XoTA/KHSwucvbrJaiSHOQUJabd1toFt4bN5zRetgzilgjE1sHmyZUwbJ87XQU+2mDC0l5EHHqboNytZ5jaTKXEpC8faCHlB6tEGjym/V1tUzUC7YZx+enziAKiRhFILWTNFypFpYxg1kkme8dBAyl0rDYkkS6vOE+KMKrRUNTJWUVaHu3zA9u4eSf729dTxXM3dJPjUwYctSK2o31O+wvmulFQkpa1ROrXfsOAXSkJ406HRIJzWF5ZIwGovwAhKc6l6HoAWgUqwhIWS6ZHy4FAnV/WSplzVkT7QeVGyePOF3uGYENErgBWdshJR/vcgoz5UGZcgf+bTv9KSmHsgj9TzXPW1FQqYVvLLyHemkejALeBHVQ2ps7pIw6gUhTW7EZwjCtdFi4pLecCkSIkQWrREPRVvyJ89eyKoQehgUiJFLr0Gg4vLWrTcVJWJJ+PqcJFQ92ffZNGV++OJGyk361AP1IYvRn70Ie4Rh/ucu+G5BQukFnZgHaZTqSSEzCY4nRb1FveGIhLSEnn88d2zDHKHXu5Ju7jzbEiRkjMIZK9aAVZR8rJlk8jalGOaXpuZScyNminOSUMZGjlFqWpSL9FJzjtQP9aRrTK2+hmWg3mvHiC1I6B0chvDdnDnt6IR4eOV5QiMSRhlDCXPhdf1UWtRCWOQEKUokNf+nZaZ1j9yICFS0rrSwaVK3U2OMIc5JwmjynXJQHs+AUqDeqD+bfxXqvXY+MUXC3GAUdmftibxip3PhlTnqcEYkjAIBcybZFbIKxFEywpo8Ch8JY0dvHmwOCVnsbNNTIZ8oKdXzTUEWYw+8CulVL26KxhnnJKFExC9u3mWYfJ6je+qPeoz0jqAHq5spiUiIYCfYi7WhoWBv9jkp7/O7ZE+fC+rM04cXKBuR0Bu74aK0yFhqbEgGp8Q+g9SSkNaX/W+2ojQvtPwtVsBI73IaQ6Hg0nW05yQhkKDcafEBUtJrR6AeqU9bDi1LzT7EFAm17FNin5kzFrSQDse49pq+xYiE9kGEwXZu8GQKnks5R2pJSOsbKQIXqgUBFbrMqwbnJqGi9TI80oq2gZHP0t5wioQ1UuLKTkGCPs9ejN4BvyzGJPQefPaimUK8s0PnSA0J+S0bX63RIrT+LXr9VliLhEsgtSgdfZTqcAkStjqzFL5EXLIYk9ALJhSOY1LwIpxzpIaEuD7eWlCMFrdpSzgSCYHnlqIH9FHiki5FwtzI6hR0fG3fgatvMSKhZ5ypicYSRGshNXNTYvOF1JCQiWIvULC1XhAcjYTeWEnq/vndaFF6SlIkxE6s7Xhin1NpMfTyFrxEJB+R0JtG4HOLsC1BCZsxhLECc1Qp4VlvTFFKwkh5Omhu5Xa3wtFICLS+l9IjdoK9WBuywu+GzyLYZ2nwzEMJj0YkJHNeK0EvMTdq5LkifPbCth68oE6N8iKD3eJFIkckYU6ZpiRFwtzgijcdx+e5QxJ4EvX28MtiRELxZZ3eKmJxLqJesKTl8caTpSRk3PFzn/zqqPKpoDnzYUshx2D3RkKZPzUNPXlFL7njwhQJPZfPg3Q4M23Sg9cLarpebGVEQuBdQaaJeDP+U5Ala84gFeE9uS5gKxIyL2XLh1HUlG1pHJGE3qos8loyX9iChNidrVsV7LVm6ZqUzSE274k8LZeE0TpPydzlbVGPoZO/ljySViGplyQhBjxnbexSOCIJvbWVa5AQRKTR4E5JQFJ6eMcNRXhHRGqXhCA6dk8SPC1oJoNRL8YLYX6Uhg6go+c9tCIhO709g63Z7b80jkhC6tkrE3rJ1WMrEqYWESDYL3YcEYjn4UHqUGS+T23ZC0lI4tESMy0sifMbBrhUrJ7LqPcr2Ip+V8auytfotSAhv/PODyXdVhO1LXFEEnoLNtBHyXmlrUgIommTYT1iz9i1nquLvWP32H/k6Wl+pqLuIQkBg0gyEL1AX8JvNKNTv0dKt/MoWpGQ3d02Hc3X3AhwaxyNhFHkEH2glxI9tiIhkCCNky+b9tDOp2xdf+8FY4ZIkhCU7LSeEjLFsp0aAoIWJNTLMm3eECq3xYLlljgaCaPtUlouPf5iSlqTEAgRn70Y2ViNUPfwJmfN8CQJASsIxOdNHPw0Jdp61OzMV8whoQZkrNKGomlvCUcj4bCePUE/OQGaJUgIsE/t7WzeckQ6mstb4UvuypssEipoxeQlE+O9d2XotEQIH3quq1dLwqnNu0Mhr1uKkh6JhF5U1BP0RHlSRFyKhAA71cBkarw3FCUuvy31popICBhg0m3rOTSyV86uyzudy8jKBQaxUz5xLmpIyPdsk8lRvgp5n9Njt8RRSKinuNu6jgS9Tt1AtRQJFdgt9qsnz4lYWz+dKwQf4EUqABOhmIRD0N0SWYL5tHII8y6EbClATYZSqCEhrSmne9nnVGGp70ujt0vgCCSkHqfq2vsevUW94TlIqMCOsWfsGvtWW8fuKVuu2xlhFgnPjVISqqKscQ6V5a1H1b/T8pVM1i6BvZMwtViD76h/T69azindnoOES+PwJIx6QQyDCVjZAZ0wkpanCtRgzyTU3eVh3T6/k/GXrNByhgvaG0a67SRcASUk5HN0PwPGOlwdI611sLZ17mLeudgzCaNF+1KvFzfv8jLQh82/lsG7Zq2TcCWUkDBaniYGcPWyBR5C5q8cIjLwXjNIs2cSSjDGmQD3DpCSSXyHsJTJO/qik3AllJCQz9F9fdE6Pl01wW/UXWKp0prYMwmBLmGkPslParWUXiRkSYUePf12Eq6AEhIiVkHI1BEWjE/Y1EnAAKOwPea5sXcS6pwb9clay2ghNIgOgoLEVredhCshl4T8n3GEVZAqtPXUyZLYOwlLICeUOQEa9GjHhZ2EK6GEhHvaKZHCYyIhyN1h0Um4EkpIGBnlnCM61sBjI6F3NIQtbyfhiighoXe4L8rd4sbdFB4bCaMNvzZC2km4EkpIGBllFBndKh4bCb0IqS1vJ+GKKCGhNyZEubnHK24Fj42E3jGE6LGTcCMoIWGkIO9WnBwQuSPcjpwzuronEraoI+9IlVIddxIuiFwSIhypbhWE5N6rwW+YVMY9ImInz7Jt6+m1GPe59hzuhYTUB++T67JPq2SoN+qPesyt82ie0B6R30m4EkpIyGfvFC0UapdMDcF6R73UEsGwbBqSzoxjOkqwBxLqsRC2jqg3IeapHqnX1Dpc7+gL0kCPnn47CVdACQmj80VVqRZ61wXrF+07PCHdc8w57oGE1IPNoyfUK/Wrd0VYeI0m6XrHXXQSroQSEkZKQoY7I9huI/fLm2uipwTjOEeQZw8k9O4YSYmQ8eJG6k+3iUU7Lkr120m4MEpIqOJd9aaKYitNzUlyYkRPr8+yu2IPJJTdEk+vR/U8JeSP+oeAnm75jP6sTjsJV4SnqBQJcWG8SXtVVrSZd/gbGdNwtgh3uD+9FlHDOQf2QEJAfchBuKc6kvq6isfUwzqO9EB50J91RTsJV0QpCVW8sUZK1DAwKqJ7S52Zk4O9kNBCz2Sh/qZOqfaE36I3q8tOwpVRQ0K+9ybuI8FYeE/tyVmtsVcSDqEn9FGvNvoZCb+zi7atXjsJV0ANCRHcmfd+2L/u7V2Kv7iRtYtbIJ/iCCRUUK9yc5EzF2jzjb48N7STcGXUkhBhshe3yCpcFbeFk9U8HImECo2EWl2qoCc7OW+lk3Al1JKQv336zW+PFKaC63OOSGcNjkhCILvoA9cUPaGvKZ12Eq6AWhLi1njnzSC4RudY+VKLo5IQyEobxzVFT+iru6MbRA0J+Z6jEbxWFyONrjDeCo5MQhBezc6dIM5Rh52EK6OGhLSmXLflKZrv1jzYNwdHJyH1b8uneUdvUW/YSbgSakioARn7HC0tkbqt4+gkBBIxdRZupwI0nYQroZSEfMcA3xongtJzLnBcG4+BhOjBklDLGQVoOglXQg0JvWVrpME5mHvAYyAh8C7moTz2bJlOwpVRSsJoPMjnvRz49FhI6B3wlBoXdhKe4N1PyP+XWmtZQ0JWXthncH22PC0xxGMhoUxXOOPCaOXMOUm4ufsJdR3g5E29z9e/qZfvvPlB8rfVyXmLx0JC7yZf9ObdQ3EuEr7rpt6BXb9Lzn1T75w761vc61BKQiQiYeo+ii3hsZBQVtAEJLQ6XZqEm7yznu6WIwxgfU6GPFHizumBSknId94lob0n3B6invDcl4SSDyXUMN1ckY7n8lb4kusBTpKQ8HHN7nNPJIMzDkgqJWEfE+6HhFsYE+qBVdZeaoS6hzc502BJEsJkEktlir/xG209pn6PpO6oS6GGhN5hT3zu0dFtIYqOeoc8LUFCIaBzoalNe2jnU7auv5/qEUMSMsDUhGzi+j2Zge0c2EMlMohlLaBeDGkrdSg147JSEqpxeorq84TbgjdPiN6G5bS6bUVCGY8mCKjEw66xb+wce8fu5dSAxLYsvuc3qYBNSEIdmNpEEb7H58V/jhLnMkgyHKVB5ihU9LyHGhJG99aTr9SFlVvBYyAhevDshPxHi7hbkRD7i44/0Y6Gm6IiW+F5pi4kZuKUAeH71B0oLgmjSpEEL2+LTp8mg6TlFZIWhHmXXJSSUMWrZPK0B5f0MZDQc0W1kba6bE1C7M+zdSVgyUZveBH1qNh6RGSXhOH2kkLSKITUQeZ4T25vWEPCaFwo5Xl+N+mvr42jk1COvndIQN6j8WArEmJ3tm5V2OcYkSYFIbVzfirvibbNjUjIdESUyJwLNqPDXfku9/jAGhLy/evfeCdUNAfXbhlHJ2F0cDD6Qm8pvc4loQRjZtqkh1Qn5jX6IxJ6oWJJ4PJ29mS7V+F8zj3JOhq8p0iI0Jp684VarprePRdUek6YOsKaJCTfntG0gvQajoeEntBX1AtOkTA36OZdw9aiYYYn3okB8MqbFRiR0LuueG4vqIh6Q3x/MpcSvSvCEimHhPyNAb5V2EPlXN7Oavk84OpAACqe9DGMGoNeg4TkU5ZqnZZpkUbukCEXYgsOAVWnUUAmh4R614W1ISv8zr6bMpeMAyOU8GhEQu/Y+FYZw9W1hX54h12T54jNF5JDQkTHhtZQh2UsXW4UgZZQ1xtq+iggt4UeYg0Sks/hOykH3831hBRy+5LTGGvZUmPBKRIiGlSZEvucytwF2UACks4KIM9VHpHQPojk3umXA29cN0dySYiwS9trZFQoJ0Y7x9hogUnfEkfSr9hIfG4SRhtsSYtyzfEYqFfxDhxXDSF99BPtph9KioS1EpGkBhJwcspJ3VqMSejcM8d3rdwR5lMiEtRICQnVLbVGPRT9G+HmkoaHCV/GGKn1taRdkiY4Nwl1lZTNOyI9zOWtlLNkoQVpUp9R4zTM75QbOtTlEiRsdd0dfIm4ZDEmoeOn82CLLhqs2RMiuDn83iuniroz/IvB6b4xjIl64F/C17gczHFRJjyIlIHxd288MIVzkxCQT88jGqbL3yk35aceqA+tH3pT3WdK/Q3r06alwt/Ry5QbqrIUCWuGDB5klsEj4VVGT+geinR5W9TyRcAd8dJHUOyU2GeQUhIiSkTy4eXF5kvGEAQp2DupwueMW4cQfldDBrAGCYG4jQkiItqzaV2M6mdi6aKmgZQQUMucIqG1HU/sM+QD+5wzHFF4S+E0fYsRCb2wLcptcTJZ6tRl5lZogSPR233sczUkRFA4rg8RMmu8rUR6gMvbWXW3FgmBnIKWcK/nCvllDIgeSgioZY5IqLdpWRsaCvZmn0OwzxYdDnXn6cObjhuRMFrGQwJzQeGtQaFgdiXnoHaeMBKeIQjAOSZT7lKpaB3O3be4JgkB+R+Wp4VQz+iNeqf+a3XnkZC0c11K7M7qnDrDTufC6gyhDr056REJJToWRHVK1oxaeDunUxnz4I0n55BQRd1TWmXSs+/IFen5cF1PvV+LYNbaJASUQ3vFOY2Vko96LnU/raRImBvhjDoc7HRObyhrSL10L27c6PiIhEDPjxklUnlxSmosSIFzgz5LkVCVqmRkI6mmTT3Ydw6FvwvxTvcaotgWYwrFFkiooFyUTwJRpzLbvA2FeuPvShTqVcnXQl9zSRgt0SSN2rGhnBDgEJB6iDw+l4TeROOwUksm7omYUSmesshsaouHxZIkVFEysm6RdJk4jpa8qetCFNBr4VpgSyQcgvJSbm+IgVBf1Bv1Rz1Sny3Ip9KChCDKP9+RTsmUEryIGm34FPHGJSGIekN1uQhNp3owXBg9GMpLRzOWSsPiHCQcihKScYvNu+T/8raJy5lCFCgb3mLLv3z2SOgFAlpC5sOC6R7qrSXxhtKKhFFvqPXHv9hxSs+kAR8iVz3VC4KQhDLjn9gxrO4Ii131rFGENXn0brw4ypQ8X3El2blJqBLeZ3FVvgKmFN7iBlvmlEHmBilqITEEZ3lW6h6JFpIqcwkJAXboxUE0PXW7sWt+q7aO3WP/ygX77MPzl7fJHjUkIRC3NGjlVJRsD3NFE+MEhN/VbKhdi4RIdHRi5GK0AC2sNy1D/Q5XlvBvtBKI50u8jVJ4i/Kpp+iowlbSkoRAerKgR1SpsvXL20kbSZIQSCvRcK6IFqdkHDjEWiTEpSKcbt+NAlqEsyN4xwAiEIsx1jCPfPYIy/M1wbRceGMq6ik6vr6VtCYhkCNdgh6xVLQHzPH2JkkINOJjK7tEJFNPr2dNc6xFQtL2Ah/qdtVE0XLgbQ7VXsYaOJ+93prnox3dcxFFvW3gaAlZgoRApheeXo/KVCLSYxY0flkkBA8r4AvJqBlibFJzXMAQa5KQnsa+G6E+cuc5SxDN12Lg3k1FfPZuoJI8Xt4uMnaN5tmop9Su+BayFAkBdqr7KYtt/bT/sqRhziahggzigmh3q6QcyoPffArczNn+MsRaJESinkYrPzXwrgEBGc8AqFPriqrwvTVKzV+r3QGKaLcF9TO1K76FLElCBXb7EHgZjAFHtn4arsGLmo6mmIQKmE53S/eNL00oHNFzGSlAa8Nck4SkzzSAVfoSRi6rU5yxIGWPTqRG+N47cRwhvTlrWC3sxt+hPobTJ0vJOUiowI6xZz1XV20du8f+4UFJz2dRTcI1sCYJEYw82hRMi9hiTi46rUvLmtpvx/fJYzwqT8uzkH2TgRtK/USNREs5JwmXRidhgfAOrm+2in8w8tMxEDUeAJPBuDPRlBBjvZxjH/h78hiPy1tpwVOTzxEolz22YyjUS3S9dWvpJFwJa5MQwch/7pNfHSlfRccKuCk5Lgpk0EOsIuPWHiZ38nvyGI/Tke68N4eMlIPyaNlsegj1Qb1MNRKtpJNwJWyBhCqvvPa5sLdBlFCMITB23XmOEKlkHMEEsZAvsTKJ74XUCTfUirqlPJdKl/fyfvJBfvSIQz05gHzrvruogUCoB4IxNh9LSifhStgSCRGipSkiKoGG0bUHydiVz99qXbyh6zz1Dsmjkz/+jXo+Fcq/9OoYTzoJV8KWSKjvowewhtBCMH4mwiFSrYvHczxPOlNkqhHKrT3gGvXfSbgCtkTCoXzgM29O9jglQlr0Li0mvHmedHCfrcHWivbQlNu+71zSSbgStkpCHYPN2ZnPM7h29Fi65KtVmTQtXXqH1OaR8lHOOT10C+kkXAneth67t24t4f0YJYZBr6MGq+O+Yb71sxIPwbBZdkZaSxm31hHv4X1DQkZ5JP/asFAuykf+tlDf3h5K8tly4cQ5sCsSegua+YxbtJThloqSERcQI2E3Aa4lRs/YDCEiyWdWt0AIDbycqwzaM/Je3k8+yA/50jzymXyTf8rRemf8XCEv6N2zh6UWrC+FXZHQWzBMy4exbMU4VNTQ1XCZuxsKv9G/rZX3YR75bPM4zP9aeYyE/HhrebGPFquCzoldkVBObHN2FuAulcyjddm3oOdoeR72MeektDWwKxIC634Me8NzuXNd1hX07PWCCPaxN+yOhHqgjq18BuhbGht2WUZ0LGgDMtILPm+7U+Rc2B0J9QAqqwBLxO6aHkt0fBoRUEgYXEe9deyOhCA64ViJiKuiY8RhYKHL/kT1hz5TywSxhzlHp6yJXZKQlf/RplKEsYKuOqHlJMTO/FaXfQl6Q3/oMbUIAjvAHnJ2hGwRuyQhELc0ca6pkhEF0XqixC77El1BNKVj7GCPbqhityQEbL1BSVGP2OXYgt4hYM25LlvCrkkIpnZ7dzmmoO/aUwy2ht2TEDAWkGDNaQ+cVViX44judWx19dwWcAgSKmgVUY64KRc3D5tSdTHyOcUaj4r93RbF5nnNvKvLiT75P/PER+j9hjgUCYdg6RJrCFnMy6p6trecU7wj6TEqFknb325JyB/5tHmnPPa3Swt6Q3/ocW9L0UpwWBKuDW/HBy16q4OQl4Jc8GJc+j3uTNgTOgkXQkTCnAtC1oRcANRJeFZ0Ei6ETsKOXHQSLoROwo5cdBIuhE7Cjlx0Ei6ETsKOXHQSLoROwo5cdBIuhE7CjlzMJuHb33lHFlKziJYJVb3P4ChLimrRSXgsYM96jwh2jr3zf+x/LqpIyMtZHsYCWjEu1myyTIybey9fnrXJigeu+sq9t/to6CQ8BrBf7Bh7ph7UxsXeTyc8wAP4UHsleREJeYlcH3z5cq+Xt7xJ5WHd39WdLHna+kqR1ugk3DewV+w29+Ie6gxewI9SMmaTUK5wfno9MqwckUxe3EgGW3TfewC32dq6QqFbb4xk2Zo5w4dytLiFeA/APqWjubhJEi8S6XieXhcdODVJQi6IlEwFhyuViLYoe9+EmQNcFKtEWsqtL0SWs13NbcGUg/IcHdilenDWdksFvsCbnItikyTUs1yiw3VU7PYT+3f7Wwp5ZCIygPcUictS6qqcG+TPuqOqt6NtIRoCe5xyO7Uecm0d3uScfZMk4at3n0oSUPzg09XLvAzh/9IlJ85/0QIc1TX90htvjQyZ8lI3UwpZG+TP285EeSjXEYEdpkjF95Qfu7a2rhywz6jAH3iUQkhCufchcEHJDKIRIWtYtJgojIhSlEGep7s+GqgLym0VuqfghhdUojyUy+r6CMAObXlVsF/KjT1bT4C60JkC5YR9XtK4St+P4ZIwcqc0U2TaZsgDmZSAjnN/hKR1cbP5QEUppLxOw8M4ay/TNeTTjgtV9yUBhz1AAlEJ+8w9RuMhoOPoHoFPkefnkjA6ap7valpzcc+cgtK6EgY+CiKF7rGc5Nf25mIDB2s4U+Wscb/hR8QdeOVhREKiOV6m+G7O5YthD3F1t5seIoWooZEy7tBwowZFy1NjoFuD9PjOkGtuj+9dZovwnRctHZFQKt9zRS5uZkX2UmMlViTsFdTJ+z/2uqtMLd9ex77JsdLVnZR7jk2sDezOlq/F2FcizE4DBq+8xnhEQrpMm7FWhhRFDSk0Gc8VwslrCi0oZdExgK2vYdmQaCywdTDu1zLYsqldUH6if9QH9WLr6txibSUlXqdAeVr08l4DxmfPJR2R0J1kbnRAURTw4X28Q9ag7kUSUzDDMm19cn4KMnk/UVYl46iOtixBmShLTtBxCt6BWbzPW/QwIqF9EJnrig7hzUEdTZSARxjrAh07PQa9YZ8tAF88lxSSW4xJ+OzF6EG+8waUNfB62iMJ5EORrRqtrQBXTyenbZmPIlFPVQP4EnHJYkxCh72dhGl5cKefvcieV9ojHuZ9n70I3bk9y1lIeHFjfzomIRmxlUtUh5ZwLqIlUVoBe5LhOIi5Jgbcew3AlIIxE+WVrT7srVvxuoE54tlgq6WF8MXOMug7LUYkJNJlM0glt4gYScYCd8Yega6i6/S2JNQRk7L0CgQuWnkJewPlpvzUA/VBvdi62oJYm1KxNqi23mIoIcs+nX2Z3izDiITeVdTaQswFyrILwkmbiqL12Yt0xLB1tWXB7rwOZ85EvcLz+Ejbu9J7REIJSXvjwmCiMRfR9ASkbFHojo5SeJ0Cgp3OGVp4G6OFQxc37pTViIS0EN4kpvrRtXMouCoeCSF3i+6/o6MUMo3grA7DTqe2H0WIFjjwOVqJMyIhkJUtDpPJHAmVEjFa1Br5yB0d50LYOVRsVoAX8MNN7yqOq7gkhK2eT6vE4fsc15SWhsWsHgElY0+vey/YsSokWPj0emSbYp/P78R+c2wUPsALj4BTUVeXhCAaG2qiMJuEiQJRECJlCBkmQ1OH5fB8Hwt2bAEy9+l4fg+2fjqkDLvGvtXW9SJaWcSQWFEUjQUVIQmBREoDIj5k8HTUm0zgIoNrqu3vVRgMdze0Y0vAHr0gjcrDvDD2rbZ+miONyIfwey8iOkSShEA2+CaIWCp6+M1jnVvr2CawR+wyRcRSgTfergmLSRIC7RFTjM8RumwGwpFv3NGxJrBL7DNyTXNFXdipHlCRRUKATzvl+0ai7mnqsJuOjq0AO1X309pySoaxktQY0CKbhICW4uEUtdPYjxdbUmqUCJ+Z/9Mll05rdHSsCSbrsVsh1ul+ldDOT2NFeAE/Sj29IhIqeAlMp7tlQKvdL4NVnUukAEST+tivY8/AfrFj7FnnADUACRGxf3gAH0rJp6giYUdHRzt0EnZ0rIxOwo6OldFJ2NGxMv4PWHjtm7FCXIEAAAAASUVORK5CYII=;" vertex="1" parent="1">
          <mxGeometry x="726.08" y="200" width="60" height="60" as="geometry" />
        </mxCell>
        <mxCell id="jrJ8sMQovFL2cEqCVLPm-35" value="" style="shape=image;verticalLabelPosition=bottom;labelBackgroundColor=default;verticalAlign=top;aspect=fixed;imageAspect=0;image=data:image/png,iVBORw0KGgoAAAANSUhEUgAAAOEAAADhCAYAAAA+s9J6AAAAAXNSR0IArs4c6QAAAARnQU1BAACxjwv8YQUAAAAJcEhZcwAADsMAAA7DAcdvqGQAAABmZVhJZklJKgAIAAAAAQBphwQAAQAAABoAAAAAAAAAAwAAkAcABAAAADAyMzABoAMAAQAAAAEAAAAFoAQAAQAAAEQAAAAAAAAAAgABAAIABAAAAFI5OAACAAcABAAAADAxMDAAAAAAIvvHMbnUA7gAACczSURBVHhe7d0HeNv3fedx9a5PYrup7diKtbiHOLSHpViW5S3bkm1ZsjxjO44zmzaXJmkcx87ytc016fXuene9a6+p09RDsixxL4nasiQugCQADokSSQ0OjP/GBoFPn/8fFEz9QP8UHCgQ5PP9PM87lmiEoiG8ABB/ApgDGo02rZvDfoBGo6V2hJBGm+YRQhptmkcIabRpHiGk0aZ5hJBGm+YRQhptmkcIabRpHiGk0aZ5hJBGm+YRQhptmkcIabRpHiGk0aZ5hJBGm+YRQhptmkcIZ/sC+v/4EYYGf2QMgQgQCAMhAEGEjH9OLIiIUQBhI/0j/PiLfrZPL/qn/H6NRfRC44WNvH79P9GFAAQEg0AooP+ZbgDDML78GTBCOMsXCQORyMQP6AWAsACEh4BgIFpAvzSP5/dNSOUW0Qa4jSlObvAp/MY0IOQZzweMBaOFQtEwCETU8SsEHV8YGIv+d49BnPAfnr4jhLN8fv0WToen3yroF17fWUA8gIijHHBWQr7wZixp8MexxIE3jNSB17kFh37NLTD6M27K4OvchHPfh3j+B0ZS/+uQzv8Icv8bkPvfhDLwFsaUaoSkQ4BmAsKDACTjika/4hljz4w0HSGc5fPp9q78wtWN8OA78Hb9BdT2b0Jr+w58ph/F8ra9buRp/WEsfxs/d/OfclObv8fNZ36dm6ft+/CafgCv6YfG1+g3v4FA+1sIdvwEoc6fQ+l5He6zv4R/4DeAoxLwmwEIBkTjymcGjBDO8hnf1415AbsFXss/Qj7+KuSjD0A6fDccBzZCOLjGyNW4OpbzwKpYrobl3ORDS7mJh1Zzcx5Ywc3VuNJI/xrFQ2shHVoH+fB6KEc2GAktq+Fp+hH8bX8L79k/Q8j+14D7svENbgAae3ak5QjhbF8kiIhsgtv2Kzgbt8FVsRZS9XLIDcvg2l8Kbf+aq1IbVhsp9auMrvz+05JrNnKT6ldyUw+s4SbVLzdOJzesgly/GkrDGqj710Hd/0Uj4dASeI5tR+Dka3C3Pgd377cRce4CAhcRCet3xtN/hHC2T5Wg9fwjhg5tgLN6Przl+VD3roSrahkcjYUQqpfFclUtjeWsXGIk1iznJtXncXPVrUgqoWE5hPqVEBtWQWxYDbFhbbT6dUZSzX1QDpTAd2Qd/Mdehqftq9AGX8WY9l704d4ZMEI42zd0EcMnvoe+spug1s4BanPh/nAthvYsxfD+HLjqdCjRnLW5sRw1OdHq8rg564q5ORryudnr87g5GnInnL4Q9rorFRmp9XdCrFoJd/0GhE48CnfLQxhtfwrq0P8Fwg723EjLEcLZvu5jsO1aiaGyL0D4KB9STQYc1QvhLC+FUlkCV/XipBJqiriJtcXc2NOzsadnu1xbBHdDAUYbSyE33A/nqQfgO/0C0JoFD3tepOkI4Wyf7RBsu1dgaO/cKMLqzFmFcKiueALCe+H8+H74Tj4LNC0wHhCeCSOEs32d9bB+UIKRvbdB+LAAUlX0ltBVsQRyRXEcqkRj0bCxaNjY07Oxp2cbqSuBp74AIwdKoNRtgv3EJriPb0fk5FxCSEuTmcrQ9V4BRj8aR1iZBUf1IuNBF6kqHlWisWimOhYd22j9UrjrCjHSUAq59h6MHt0I9cjjCB67BV72vEjTEcLZvub30f27bDg+uhXCrkKIFdlwVGWOIyyIQ5VoLJqpjkXH5qxfBm9toXGLqNTejdGjGyAfegSBwzfArf/s2gwYIZzli3z8G3T/60K49twM6YNCSGU5sFdmGAiF6vw4VInGomFjT8/Gnp6NRcemH8bw1BQYCNWau+E4+kXIBx9C4NB/hCcyM45REMJZvrHj/xu979wB8cM/hvReAcR92bBXZsGpPyhTlReHItFYNGzs6dnY07Ox6Nj0Y4je6gKM1hZDq90I17H1UA8+gMDh/wC/8ZOz6T9COMs3duR/oOed2z9BuFe/JcyCo2q2IFwFT1XhOMINMYTBI3+AACGkpcOCR/4aZ393B0Z33QLn+yUQKrPhqJ4PpW4ppH25EKoWX9dYdInGomSz16+FWJGJ0f250OrWQzi2Ad4jW+DdPwe+CD2ViZYGCxz+K5z51y/EELoqsmCvmkcI02iEcJbPf+gvDYT23bfC9UGpgXC08g7ItUuMu6YsmqmORZVoLDo2HaF+2EVHqNaug+voXfAd3QrfgTnw6k9cngEjhLN83sa30fvbuQZCYdeSGEKppnRWIBytW2MgtB/II4S09Jx7/88NhI4PPx9DOFLxBYjVJRA+yo5DM9WxqBKNRcemI5SrsuFozIdScyecR74I/7HH4W+cA8+Yiz070nKEcJZPrf+p8eiojlDcvdRAOFw+F0JV8axAOFK7mhDS0ntK3U8MhM49t8UQDpXdbiB07cmKQzPVsagSjUXHpiNUqnMMhHL1WgNh4PgTCBycA3fIyZ4daTlCOMsn176F7n+5zUAofbgshtBVWTSrEDoPFhgIHYfXE0Jaek0q/z76f3c7XLtuhvbhUjj2Rp/K5CgvgrCvEK6q/KRi0SUai47XRHxXDtYP1y2HrzYfzvp8KHVfxNCJuyEdewThI3MQ8Omvvpb+I4SzfIQw/UcIZ/kIYfqPEM7yEcL0HyGc5SOE6T9COMtHCNN/hHCWjxCm/wjhLB8hTP8Rwlk+sfw1DP7LIrg+uAnuPflw7dZf5jADQtV8qGVFEMvzuLHoEo1FF1d1AbdrIbTXLoenMvoixlr1elw+vB7qsUeBo3PgU/rYsyMtRwhn+SYi1D7MI4RpOEI4y6cjHPjNQjjfvzGG0Fm1yECo7Fsch46NRZVocejYJoFHCGmzakLZV65C6NxVbCB0Vc4jhGkyQjjLpyPs/+cFcLx3A9TduQZCR+VCA6G8tzAOHRuLKtHi0LFNAo8Q0mbVXPtevQqh44MiA6Gz4g5CmCYjhLN8OsLz/2++gVDZlUMI03CEcJbvCkL7u5+NIbRXLDAQSh8VxKFjY1ElWhw6tkngEULarJrz/S/j0m8/B+2Dz8H3XimkPVlQKhdB3JMPbW8OpGukvxiU/tKIV5LL8q6KRccWhy7BJiKcLP2NQ70VyyHUrIBWV4rLR0uhHH4aOPRZeFUTe3ak5QjhLJ/jvVdw8bc3QXnvJnjfLYH4YSak8gVw7c6G+lF2HLq4JgBkESrl8ejYWFSJxqJjI4S0tJ/93S/hwjs3QnnvBnj+rRjChwshVcwzECp7MiDvy+Gmv4HMleTyXCOlIi8Wi46NRZVoLDo2QkhL+znefxEXf3sD1PdvhPe9Ioh7FkGuvAPCniyoH2XGoWPjASSEUzNCOMvn2vUShv7tj+DedSP8HxRD3rsIavV8466me18mlLJsbnL5JykVObHUylwjFh0biyrRWHRshJCW9hN2fwnD794Ez4c3ILCrBMq+hdBq5hm3cp7yjDh0bCzAK/gI4dSNEM7yuXa9iKF3Pwv37s/C/8FiA6FafQekvdlwly2CWpHFTWFSK7ONtKocIxYdG4sq0Vh0bISQlvZzfvA8Lv/bZ6Dt+gx87xdC+mg+lOq5ED/KgKaDnATepyG8ApAQTu0IYZKL6G/EiSDG4MeY/nv9bdL1XwRHEAm2ANqRaGojoO1HRKtFRKtExL3PKBR6n1sk+Dt+nn/kpvU/DK3/QWgDm6BduAvaxbXQLi2HdrkE2uUi+M+thK9vBbxnl8PduxRqdymUrhJI1iKj0OlCBI4ugbu2GNK++ZDKboBacyO0mkVQKpdAqS7gxh58TzQWHdtwQyHc5cvhql4JubYEl44WQzn0FND4h/AqzexfV1qOECa5UCgKMTovEBpCyN0Er/gBVOffwzf6t+P9Cj77L+G1vw2v/Rfw2N8y0kZ+zM07/ENu2sj3uIXP/R3C5/4W4fN/g3D/XyHc/zbCAz9FePBNhAffQGTwPwEXvvtJF//86oa3AxeeB869iLDlUajHijBaeSuEvXPhqYhHx8aiSjQWHRshpMGnvyOzfusXDgF+G/zCP0Me+i5cg8/Dfu4pyOefgtz/JKTzWyH1b4F4/hGI/Q9C7L/fSO15lJvW8wg3+dxj3Nx9W8fbAve5R8fbDPe5h4xcZ7YZCWefgnRuB+TzT0MdeAba4LNGsvMlSKPfgNvxXYTsfwqvftqjJZCqFiFYlR2Hjo1FlWgsOjZCSENIvxnU8w7AP/JPEPu2QzhTCqG3EK6uZVC6o8ndSyB3l0DuLoLUtRhSd4GRu2vFNVrGTe1ZyU3szYfYUzihovFKjOw92XD05hg5z+Qauc7mxbrcdx8GzjyCC+efhzj8TYRGv4nI2SfhP74cauWCOHRsLKpEY9GxEUIaIvADoX4E7e9B7v4ShPZcyLZboHXPh9JdBM1aaqRaisYrhNJZEEvuWszNAMvpk887eXLXcshdK6PZVkO2rYFsuxOydb2R27YKmnXlVamWFbHcXXnGFYi9ewMcfU8iMPQaMPJlBDs2YbhOf5AnHh4hTGyEMOl54ZMPQOr7FsT2ErjNt8NvmQePfuG1FUPrKDVS20tiKebiWK6uIm7OrhJuqoWfaMscLzuaNQeiNS+W2r7sqhTz0qsKd9wOnMmCr7cYzs61UHoeBy59CaFzm2FviUfHxqJKNBYdGyGkASFAHt6Noc6NENr+CEHz7Qh16rdCJXBYcyFbCsZbDKmzMFpHEcT2xUZXHoX8tERrKTf2lpNNtS6ZpNJYsm3RVSldGVcltS2EpysL7u4cCB1LoVjvR7B/GwID90E+UxKHjo1FlWgsOjZCSAN8gDjwHi60FsHVPAch0xcQNK+C1L4UQ90LIOkX5K6s2K2RYM2CYMmOpXYWcFM6i7k5bXnclI6SCadfHL0bbMkbLweO7pJY9q5io1FbUawh2wrj37m68qHYlsPX+wBCfY/C3bcOrl56YGYqRgiTnQ9wWt/C8PE7oDbNhWhaDKdNvxXKg9RSAKkzP6k+uSWdnhT91rgjB5ItF0rXEkjW1fCc2QBv/1pIZwqgVUW7gk4eT6yJxqJKNBYd23BDAdzly+CqXg65rgiXji6GcmgbcPAP4FVOs39baTlCmOx8gMPyJoaPz40hdFjzjQstIYxHlWgsOjZCSIP+4KjD8gaGjt0Otek2A6HdkgepKwdyKyFkUSUai46NENIMhHbLD3H56K1RhOZC2C05xvd/cmteHKpEY1GkOkJ4/UcIk50fGO38C1w6cgvUps9DNOdjpCMLgjWDEBLC32uEMNn5gZGO7+PikT+G2nxLFGFnBlyWBZDbcuJQJRqLItURwus/Qpjs/MBw+/dw4fBN4whzMdyxCM7O+YSQEP5eI4TJzkD43asQDrUvgKNjHuS2rDhUicaiSHWE8PqPECY7nx+DbU9j9NjN8DZlQmi5A47OTIjtRfC2Z0DuyOfGoks0Fs1Up1hKo39OVwEkawlcHcuhdt8Jb/8aqOcWQy3P+6TKfMhV441jZFElGouOTarOhqN2CS7tX4WxqmWQDi7B6IntcB+Zg7DjKPu3lZYjhMmOEBLCJEcIkx0hJIRJjhAmO0JICJMcIUx2hJAQJjlCmOwIISFMcoQw2RFCQpjkCGGyI4SEMMkRwiQXDMpwNW+HcvAmuEwLMdq1AB5TFtynF8NpXQSpPY8bi5KNRZdoLKqE6yyBalsMyZYPobMIomUltJ51cJ9bBe18EbSK/FgTEUrjyZUF3Fh0bCw6NkJII4SEMOkRwiRHCAlhsiOESY4QEsJkRwiTHCEkhMmOECY5QkgIkx0hTHKEkBAmO0KY5AghIUx2hDDJBX0iFNMzUBtvhGBaCLttATytmQi2lMLRsQBSRxY3WYfIaxKYiSCNQ5VohPC6jxAmuYBXiEPobslAoLmEEBLC32uEMMnpCOW2nVAO3ABX2wKMWufHENrb50Ns13+E7dOLQ8c2CTxCSAhpE3YthJI5k1scOrZJ4BFCQkibML/HBan1acj7Pwtn63yMWOZBa14Ef1MxRs36iz1l8GPRsU0CjxASQtqEEUJCmOwIYZLzuZ1XIRzu1N+daSF8p4uiCFsX8WPRsU0CjxASQtqE6QjFlh2QGj4DR8u8qxCOmO6IR8fGomObBB4hJIRptRC8CMFvFEAA/kgQ/sgYAvqDJsa/93EbQ4hbCEFucHkhmV80DtbjyAKETmdAbcuGYsqG8/QcaK2LuMmWWyG33wrJdDtk0wKo5ixo5kKopiIorcWQO7P5TQLzqlhUiZbmCC/XZ0ErLzXeJFSpW4pLR0ogH9yG8P45UMUj7MUlLTfjEcYWmVB4QmPXaOJpJ4s9PZs8iNHOB+E6PAeBYzfA3fxHcLTdBqEjE4LpBgim+dyU5oxY0nhiS1asOHRsLDo2FlWiEcLrvpmPMBwExsaAcPhqOMHxWDRsoSTzXYTTthmu43Mw1nwzPOZb4DDNg9heYtyqxd29ZPKfKkKguQiBtmL42grhMeVA028NO7KgWQkhi46NEKbBIlAAqAC0Cbkn5OUX8fBjT88mOuBqexqCfnf0ZAZ8pnlwtiyA1LTM+PlRzXwzt1BTJkLNGQi2ZsLXlgm3aSGUtgVQzAshdyyKR8fGomNjUSUaIbzum/EIfeHQ+PeAYYTGC0L/vf7x4FX3UicrjAg39vRsEC5CadkOZf/NwMcZCJlvgdrxOfjbMxFp+wKCzQX82m9BwHwzvKbPw2O6HR7zPLjbM6C2jx/MZ9GxsejYWFSJRgiv+2Y8wtAYEAoDY5FP0n8figDBMBCJXN+gNEG1Pgz52OcRPJkJ1XwDXJY5cFt0XJ+Bty2Hm2T+PMS224xk8zx4OjLhs+TCZ8mDV0fEomNj0bGxqBKNEF73zXiEiOh3Kd1AWAPCChCWgLAARJxAxAH4L/ELXOTnv8DNJx2G48wzENvuhNv0OEY71+FS13IIto2QW1dD7PkCt1HTWtjbVsPRthyuthJIpkLjkVV3Wwa0tgXx6NhYdGwsqkQjhNd9Mx5hSKxHUKyB31UFr3MfPI498Dh2w+P8AF7XLoQkfmPye9xC0rvcFHcPRPvbCA+9BYy8g6D97+AVfgm4/g8w+CuEL/+aW2Tou4hc/hNELr6M0Lkn4O+6C56O6GuWes13xKNjY9GxsagSjRBe96U/wmAEwTFRfy9OBK88Iol2hFy7oA6WwdP/Nr++N5PKff6nSRX39TD5+v4e/oH/Dv+Ff0DwwjvAxd8gcuEtuLs3YLjlDyFZdIhZUCx5UXSWhVCsmVAthVA7l0PpLOAWhyrB9Bf/VayFEK15EC3FkKyrjBf/1fpWwjNQYsDjxaJjY9HFVbWY2+W6PGhlS403CVXqi403CZUPPhlFKJxgL01pufRHGNK/t3MbD7QY34N5LyIi/BbCub+A68xP4bR+k5tofS2pXF1fTyqh60+4iZ3fgdj155B734B29pcIDf4v4NJ/QWTgVfjO3G2AUyw54wizGISlcejYWFSJRgiv/2YEwlB4DBH9cMDYKIIj+yD2fB1DbZvgtG6Fs30HN1f7tuTq2JFUQudObmL7U5AsOyBYX4Jg+w603rcROP8rhC/8AuELP4BmLTbARW8FM8ZRZhvAVEtJHDo2FlWiEcLrv/RHqB+DN44FSPA5DkPo/CmcTVtgP7UWqm0TlI4nuMntW5KK/XxTnc+6FR7rE1Cs2yF2fgmuzm9B7HoD7rN/DV//r+HrWgfNWhq9S2pdYCCUO3ONW0bVmh+Hjo1FlWiE8Pov7RHqhyCMjV2Gq/efMHz0ZagntkFrehRuHYppGzep7cmkUkw7kor9etjcZr3tUNu3QzRuuZ+D0/Y1yGd+DPfgrxHs2gy3dWX0bqhtPlRbVvQBl85c49csOjYWVaIRwuu/tEcYiOgPyYQBXx/sHT/D0MEt8H/8LNzNL8DVsg1iy1PcJNOOpNJfPyaZ5LYd3KTW7ZBanoHS9hxU89MQOx6Hy7oT0plvwz34NiI9O+GxrIPUOQ+KbS5Uaw7kjkJIHTlQbQvj0LGxqBKNEF7/pT3CiP4DoPr9UbkdDvO3MXJoPXyntkFu3olh86MQ257i174jqZT2nUklm3dwc7U/AcG0E0rbC/C074TasQVC5+OQul+D2vcW0PtleK13G4+SKl23jSMsiiLsmheHjo1FlWiE8PpvBiAMI+KLIGA/Dbv5ZYwcKYF66l64WrdguOc+uMxbuDnaH08qwbwtqdivh81hfRhO85OQW5+H27TTuIut3xpKtq9CO/MT4Mw34bVsHEd4KzRbLiSzjjALavftcejYWFSJRgiv/9IeYVC/JRwDxi4ew8ChHXCdWAPh+APGs9md7Y9Canv8GsV/n5dI7PdwU51+lzd6q/vU+COy2yF0PA/F+hWo3d+C9/wr8HRvgq89G96OedAsucabdeoPyvisi8YPX3x6LKpEU/RHYK35EK05EC36QfsVUHtWQzu3HJ7BQigVedykinxurip+LDq2obo8uMuWQqheDq2uGJePLIbS+CTQMAceFyGckhkIQxFCSAgnjRCmYBMR9h/cbiAUTzxICAkhIUzV9BeY0BGGLhyNQ+gwPzIJOrZ4WInEopnqCCE/Fh0bIUzBriAMDh4xEAofr4X08UMGQrtp8yTo2OJhJRKLZqojhPxYdGyEMAWbiPB841MGQvnkw4SQEBLCVO0KwsDAYQOhePLOGMLRtocnQccWDyuRWDRTHSHkx6JjI4Qp2GQIlVObCSEhJISpmv6CaRgLwz9Yhb7GhyA33Qnl5KMQm3fC2TH7EXrOvQJ3173wmrON159RO/WD5tFnT3j1Z1VMAm9qEfIP1isVWePljDcOsDzfiEXHxqJjY9GxDdfnGwidlUshVxfiwsF8SPsfNxB6hY/Zi1NajhBeIxbNVEcI+bHo2AhhCkYICSEvQpiCEUJCyIsQpmCEkBDyIoQpGCEkhLwIYQpGCAkhL0KYghFCQsiLEKZgQXgMid6Bj3Dm4FpIJ++BemorhNaHYW/bMgk6tnhYicSimequifDs1+G2PRhF2D4XqiXTOGhuIDRejzQe3lQiVK06wnxI+pOJrUXGwXqlexXUvmXQ+vOhVmRFK48ilCrzjMTKfCMWHRuLjo1Fx0YIUzBCSAh5EcIUjBASQl6EMAUjhISQFyFMwQghIeRFCFMwQkgIeRHCFIwQEkJehDAFI4SEkBchTMG8cAMBINCzC5cOfRGOExugtD4JZ/ODkJoJIYuOjUWVaFJHEVRbAZTufMi2YshdK6H1rjEQyn05UMvzYukH6T9BGI1Fx8aiY2PRsV15Uq+rapmBcLAxD2LDVgOhTzzJXpzScoTwGrFopjpCyI9Fx0YIUzBCSAh5EcIUjBASQl6EMAUjhISQFyFMwQghIeRFCFMwQkgIeRHCFIwQEkJehDAF8+kH6wOAv/sDXD58F5wf3w255Qk4mh6A3LJ1EnRs8bASiUUz9T0DqX0npI6nIXToELfD1fEMZOvLULq/Ou0I5c7i2MF6paskeqC+ZzWUs0uhnMuddoT6wXpt3xLjYL1aW4SLhwog1G8B6ufAL51iL05pOUJ4jeLRTHWEkBeLjo0QpmCEkBDyIoQpGCEkhLwIYQpGCAkhL0KYghFCQsiLEKZghJAQ8iKEKRghJIS8CGEK5obfeFKv/8y/YuDwGthPbILU8gycLQ9DbJv5b5d9vRHqp+MVh44t7RFmQ9tXBGflkgkItwJ1c+AXW9iLU1qOEF6jeDRTHSHkxaJjI4QpGCEkhLwIYQpGCAkhL0KYghFCQsiLEKZghJAQ8iKEKRghJIS8CGEKRggJIS9CmIK5oUUR9u7CwKH1sJ/YYOBwtj4EsTX5g/XxKFLdNRD2vQa37X54zbnjbxKaY7xZp2LJg9eyMB4d2yTwphKhUvZJcnkuxIpowngsOjYWHRuLjm20ogjuqhxcrs2Fq3IFRg4tgXv/eoTr5sAnXWQvTmk5QhiHItURQl4sOjZCmIIRQkLIixCmYISQEPIihCkYISSEvAhhCkYICSEvQpiCEUJCyIsQpmCEkBDyIoQpmA9eA2H4/F6cb7wTYtO9EFoeh2DaPI4wHlYixaNIdXyE7r6Xodk2wWPKgtt0B5SOXAidxZA78uHpXBSPjm0SeIkgvNaL/0p7syHvyzGSynKuQqgfrGdRJVxlIbfRmmXwVOVjpKYQcsVajDYuhdKwHoH9c+D229mLU1qOEMahSHWEkNsk8AhhikcICSEvQpiCEUJCyIsQpmCEkBDyIoQpGCEkhLwIYQpGCAkhL0KYghFCQsiLEKZgofEn9foGy3D24Doop++HdmobxNbH4NDfZHMSWIkUjyK1SW07IZqfNt4oNPYmoZ3PQrG9ArXna/Ccfw7urnvgNeXDY14A1bIIojUKzNuZPLJr5epYDMkWPVivP5lYtq6A1r0a7t6lUHuzIe3VAeYaSftyIZbnGQkV+pN6J0GVaJPAm9hwVSnclXlw1BdD2LcaowdWQtu/Ce7qOQiMaezFKS1HCCeBkcoI4TWaBN6nIRTL1hDC6zFCSAh56Qi1itwYQnvjKkI41SOEhJDXSPUSA6G9riiGUG24B1rVHATDbvbilJYjhJPASGWE8BpNAo9FqJbnYLR2MaTytXAcXE0Ip3qEkBDyGq1ZGkMoV9xpIFTqN0KtnINQxMNenNJyhHASGKmMEF6jSeCxCJWy7BhC56E1hHCqRwgJIS977TIDYfQ4ISG8LgtCRlgF/AP1ONu4CcKJe+Bufgyi6QE4zdd+0u61YlGkvLadUExPQzbvgGTaBsG8HWLHs1Ctr8DT9TV4z2yHat0AuTMXbssC+CzZ8HTmQzWA5cWhY2NRJZpiKTEO1qtdeVCsRdCsK+HrWQvfmWXQerIMhEqZ/uK/+VDK82MIdYBydWE8KrZJYCWSo2I1tMrb4KzeAKFyEZyN90I+sAaOfXMwpl97z4DNCIQRDQgMNuDsgXvhOr5xAsJ4VIkWhyLVzVCE3t6l6YGwciW0yrlw1qyDWJVlIJQOLIerjBBO2YJQ9de4QOjCQfQ13gfn0XugNT0KofVBQphChIotF7JlcXoirFgAR81KSNXZcOy/D1JjKZTKz2IMIfbilJabGQh9QOTyEZw7+CAcRzZCPfXYOMKn4lAlWhyKVJfmCK+8xswVhKplBbzdawyEanfmtCO0VyyDpj86Wl0EuSYPo/X3QWwsgLdmHsbYC1OabgYg1KA/NoPRkzh/aDPshzdCObkFQuvDhDCFCGVrzlUIPT1L0gThErjLijFSkwm1rgAjdfdBaMxCeH8xIZyqBeEBAgCcLeg//AhGD90D+WP9lnAznKbtcagSLQ5FqktzhPqzKK4glDoLDYSertUGQqUrY/oRVpbCvW8FhqrnQqsrwnDN/XAdWAAcuosQTtViCIU2DBzegpGDGyGd2AJXy8Nwmp6OQ5VocShS3QxAqP85VxAqncsNhO7u0vRBuHctLlffDHd9MS5X3Q9n4+3A0YcI4VQthlA0xRCKxx8jhClGKFmy0xRhMdx71+FS9Y3wNJTictWDcDZ+Hji+hRBO1bzGI1whwGuHZH0XA4dewqXDGyGe3gS1ZTMcHY8Y2ds3w97+EEbb7zcaMW8yklu2clNaH08q9vOxKR38nObNEDsfg2x9DJJlC1zmLQZEpfNFeLteg8eawU22LEwu2wJublsmPL0FsNvycd6UA7ttGcKDmxC2roHjwEL4yxZx8+zj5y3L4OaqmAtX+R0QKuZBqFgAsXIhxMpFkCqzjC5XPIiRj1ZA25uBcGUmtPKVGK57DVpfLRDWH0xI/6U9Qo9+dRYBMBYEXM1wdf4CF44/ieET90NufQTCqZchnn4FYtPL430JYtMLsZTm57ipLc9f18Tmndwczc/C2fIchNaXIZm+Atn8VWid34DH8m34bH8Gt2k1N8WcXELbCm6qaR1k811wtt8LZ+dmqLYnEeh8Eu5j98NVuQYjFau4XS5byW2ofBW/qtXjrcFw9VqM1KzHSPVdGK3ZYKRUrUKwbgW8VflwfpiLkeqHodr+G8Y8Z2bIAYoZgHAsAkTC+i90jAICrlpcan8d/cefwdDH26E2bzXSWrbA3boV7rbH4DE9Bq95i5HQvJ2b1Pr0dU0xP89NB+hoegmO01+B0PINqO1/Co/1W3BbX4VqeQGKJZubZMlKLuNH0j49zbYErvYSuKyr4D57D/zd90L+eCVctQUQK7LhaMjlNtKQl1yVmRipyB4vx2i0Mh+jFYVGwu4MuCtKIFTeiQtVW2Bv+wUiahNC8EJhL0xpurRHqN8KBvX3ogjpv9Q1OuBzNsLR9T8x2vpzjJx4DaMnvzLel2E/9Srsp16B/fRLcDS9bPx8KS9725NJpR8m4WU37eAmdO6E0/w8HG2vwGX6KqSOr0GyvAiXZQtG2zfBZd7AzW6+K6lGTZu4ybYn4DBthV3/frX9Obg+3oGL1ffj0p674Nq3EeLuddycu9dzc334RW6esgeM3PseNNL2PgTto4eh7nnIaKRsAy5VPILhw38C7cw7gNoJQDUeRpgZPzk6ExDCj0DEB+9Y0Dhj9XumiPgBbQCRkSaIgz83EgZ+BmHgJxAG34Rr4MdwDfzISO79BTex+2dJJfX8nJvY+5fc1P6fQj3/n6H0/Q2Us/8VSt8vIfW9CdfZb8Nx9lUIfc9wE889m1Ry/6vclP5vQD7/TQhnvgWH5RsYanoVw8degPPoc1BPvADp4HZuYuMObsrhZ7g5Dz8Xy3XkRbgOv2QkHPmykaf7HyB2/Raei8eAMQGIGNfWCPv1/2EvS+m5tEc4Bvd4fuM+fli/Wzr+WA3G/IDfO55+UF8DfDLgFYwiHhcg9XCLuGxJBaGLn3aOn9oOqFZA7QWUHkDuRFhqQlg5grB6AGGnlRv0ryGZlEFuY/ZeQBgAHBcRvjyA0EAfIoO9wMUzwMVuBEZ7+Q3zG7P3cfMrA/ArFxDULiGkDSPsGUXE64z+HftEIDAKRFTjAqFfQRuXD/1HRgNhIDQzvitMe4SBiA5Rv0rzGt8c6jeCxoNe4St3T9npH9Mbl3rlt9OVfsngFXd6/Zo8GL211/+bjUsUp3CSsZ+PLaKf735gLASMhaMZ/z/9a9OMp5rxiiCYVD644YcHfvgQgB9BBBFCONaV81H/h38sDK/fhzH9QTzjfCSEUzL9Ci1i3AcNRh8hNW4Bo//wwWNc8+npD94YD+AwCxo/S//pTfwL/f+J/XxsAeh3oz89/Yo7mv759I/oF17942Hj4/qVEC/WdKJduVPxaenXDKFQCKFQ2Di9/jXptLzGEVx//CdkY69k2D45Az6lcfh6E7+w8euIkH79EAwjHAkYX5V+r0n/ygKxczf9l/YIabTZPkJIo03zCCGNNs0jhDTaNI8Q0mjTPEJIo03zCCGNNs0jhDTaNI8Q0mjTPEJIo03zCCGNNs0jhDTaNI8Q0mjTPEJIo03zCCGNNs0jhDTaNI8Q0mjTvH8Hn3kQTRAAmUcAAAAASUVORK5CYII=;" vertex="1" parent="1">
          <mxGeometry x="728.58" y="277.5" width="55" height="55" as="geometry" />
        </mxCell>
        <mxCell id="jrJ8sMQovFL2cEqCVLPm-37" value="" style="endArrow=classic;html=1;rounded=0;exitX=1;exitY=0.5;exitDx=0;exitDy=0;entryX=0;entryY=0.5;entryDx=0;entryDy=0;strokeWidth=2;" edge="1" parent="1" source="jrJ8sMQovFL2cEqCVLPm-21" target="jrJ8sMQovFL2cEqCVLPm-31">
          <mxGeometry width="50" height="50" relative="1" as="geometry">
            <mxPoint x="120" y="270" as="sourcePoint" />
            <mxPoint x="141" y="270" as="targetPoint" />
          </mxGeometry>
        </mxCell>
      </root>
    </mxGraphModel>
  </diagram>
</mxfile>
